<?xml version="1.0" encoding="UTF-8"?>
<svg width="275px" height="292px" viewBox="0 0 275 292" version="1.1" xmlns="http://www.w3.org/2000/svg" xmlns:xlink="http://www.w3.org/1999/xlink">
    <title>Group</title>
    <g id="Page-1" stroke="none" stroke-width="1" fill="none" fill-rule="evenodd">
        <g id="index" transform="translate(-1133.000000, -832.000000)" fill-rule="nonzero">
            <g id="download_12.580383233532755-1" transform="translate(1279.525869, 970.525830) rotate(17.550145) translate(-1279.525869, -970.525830) translate(1151.616209, 842.616170)">
                <g id="Clip-path-group" transform="translate(0.953453, -0.301540)">
                    <g id="Group" transform="translate(15.935940, 20.500551)">
                        <g transform="translate(10.982995, 65.776407) rotate(17.276000) translate(-10.982995, -65.776407) translate(3.495420, 52.868852)" id="Vector">
                            <g transform="translate(7.487574, 12.907556) rotate(0.000001) translate(-7.487574, -12.907556) translate(0.000000, 0.000000)">
                                <path d="M3.97303988e-07,7.67520572e-08 C3.815056,7.50276602 7.84181315,10.6096089 12.0802718,9.32052873 C8.81875862,12.686378 13.5168828,23.7169831 14.9751486,25.8151112 C10.5277479,20.3557167 7.16927482,13.5150292 0.196119171,15.8321671 C4.64410751,11.9260844 1.88835331,3.76993032 3.97303988e-07,7.67520572e-08 Z" fill="#FFE452" transform="translate(7.487574, 12.907556) rotate(0.000001) translate(-7.487574, -12.907556) "></path>
                                <path d="M3.97303988e-07,7.67520572e-08 C3.815056,7.50276602 7.84181315,10.6096089 12.0802718,9.32052873 C8.81875862,12.686378 13.5168828,23.7169831 14.9751486,25.8151112 C10.5277479,20.3557167 7.16927482,13.5150292 0.196119171,15.8321671 C4.64410751,11.9260844 1.88835331,3.76993032 3.97303988e-07,7.67520572e-08 Z" stroke="#EF9034" stroke-width="2" stroke-linecap="round" stroke-linejoin="round" transform="translate(7.487574, 12.907556) rotate(0.000001) translate(-7.487574, -12.907556) "></path>
                            </g>
                            <g transform="translate(6.450567, 11.415724) rotate(-0.000000) translate(-6.450567, -11.415724) translate(3.066130, 5.501899)" fill="#FFF1CC">
                                <path d="M1.82031874e-07,3.46924738e-08 C0.947382692,2.2413422 3.46518474,6.76883385 1.13170669,8.52468997 C3.3036127,7.46176435 5.18266827,8.56275138 6.7688734,11.8276511 C4.82843055,8.37826898 4.70538901,6.18364248 6.39974879,5.24377156 C2.61084483,6.53754366 1.01653539,1.47859672 1.82031874e-07,3.46924738e-08 Z" transform="translate(3.384437, 5.913826) rotate(0.000001) translate(-3.384437, -5.913826) "></path>
                            </g>
                        </g>
                        <g transform="translate(208.321051, 107.061507) rotate(42.062001) translate(-208.321051, -107.061507) translate(207.836408, 106.250479)" id="Vector">
                            <g transform="translate(0.484643, 0.811028) rotate(-0.000000) translate(-0.484643, -0.811028) translate(0.000000, 0.000000)">
                                <path d="M0.0226869592,2.77968792e-09 C0.257503953,0.473297531 0.526445054,0.662512853 0.829510262,0.567645968 C0.594655367,0.798585778 0.872543751,1.48286549 0.969285072,1.62205529 C0.682850258,1.27262827 0.466324317,0.864099399 1.54910257e-09,1.02480732 C0.295079447,0.76567792 0.155275684,0.259913922 0.0226869592,2.77968792e-09 Z" fill="#FFE452" transform="translate(0.484643, 0.811028) rotate(-0.000000) translate(-0.484643, -0.811028) "></path>
                                <path d="M0.0226869592,2.77968792e-09 C0.257503953,0.473297531 0.526445054,0.662512853 0.829510262,0.567645968 C0.594655367,0.798585778 0.872543751,1.48286549 0.969285072,1.62205529 C0.682850258,1.27262827 0.466324317,0.864099399 1.54910257e-09,1.02480732 C0.295079447,0.76567792 0.155275684,0.259913922 0.0226869592,2.77968792e-09 Z" stroke="#EF9034" stroke-width="2" stroke-linecap="round" stroke-linejoin="round" transform="translate(0.484643, 0.811028) rotate(-0.000000) translate(-0.484643, -0.811028) "></path>
                            </g>
                            <g transform="translate(0.436200, 0.722255) rotate(-0.000000) translate(-0.436200, -0.722255) translate(0.221797, 0.352083)" fill="#FFF1CC">
                                <path d="M7.07045728e-10,1.22971844e-09 C0.0617324827,0.154904274 0.204379515,0.42721024 0.0541995064,0.544649725 C0.202001327,0.471692597 0.326870261,0.536923701 0.428806306,0.740343035 C0.308576785,0.528508305 0.307319995,0.3870068 0.425035935,0.315838521 C0.17368016,0.401667325 0.0674369159,0.0980900632 7.07045728e-10,1.22971844e-09 Z" transform="translate(0.214403, 0.370172) rotate(-0.000000) translate(-0.214403, -0.370172) "></path>
                            </g>
                        </g>
                        <g transform="translate(187.142715, 15.574967) rotate(39.911001) translate(-187.142715, -15.574967) translate(176.605868, 4.083342)" id="Vector">
                            <g transform="translate(10.536847, 11.491625) rotate(-0.000001) translate(-10.536847, -11.491625) translate(0.000000, 0.000000)">
                                <path d="M4.26288702,3.52460521e-07 C7.03880513,6.91701359 12.6424076,8.92271213 21.0736944,6.01709598 C14.3772953,11.4792004 16.3658114,20.1827922 18.312218,22.98325 C13.4668568,17.3123214 9.77953502,13.9213003 1.28012159e-07,17.899941 C5.93691127,12.686334 7.71057951,6.27616002 4.26288702,3.52460521e-07 Z" fill="#FFE452" transform="translate(10.536847, 11.491625) rotate(-0.000001) translate(-10.536847, -11.491625) "></path>
                                <path d="M4.26288702,3.52460521e-07 C7.03880513,6.91701359 12.6424076,8.92271213 21.0736944,6.01709598 C14.3772953,11.4792004 16.3658114,20.1827922 18.312218,22.98325 C13.4668568,17.3123214 9.77953502,13.9213003 1.28012159e-07,17.899941 C5.93691127,12.686334 7.71057951,6.27616002 4.26288702,3.52460521e-07 Z" stroke="#EF9034" stroke-width="2" stroke-linecap="round" stroke-linejoin="round" transform="translate(10.536847, 11.491625) rotate(-0.000001) translate(-10.536847, -11.491625) "></path>
                            </g>
                            <g transform="translate(11.543499, 10.793344) rotate(-0.000000) translate(-11.543499, -10.793344) translate(6.674408, 5.707631)" fill="#FFF1CC">
                                <path d="M1.13574103,1.62872472e-07 C2.2586949,3.7792236 2.52864507,6.26716412 5.66528424e-08,8.73197718 C3.37014151,7.00362651 5.90512487,7.48344342 7.60495013,10.1714279 C6.09226126,7.72177967 6.80333827,5.31091812 9.73818117,2.93884325 C4.68097772,4.66569324 2.49255171,1.97354301 1.13574103,1.62872472e-07 Z" transform="translate(4.869091, 5.085714) rotate(-0.000001) translate(-4.869091, -5.085714) "></path>
                            </g>
                        </g>
                        <g transform="translate(150.889414, 8.100506) rotate(18.921999) translate(-150.889414, -8.100506) translate(150.553012, 7.520589)" id="Vector">
                            <g transform="translate(0.336402, 0.579917) rotate(0.000001) translate(-0.336402, -0.579917) translate(0.000000, 0.000000)">
                                <path d="M4.29324987e-09,7.47840678e-09 C0.171410155,0.337085613 0.352308039,0.476678112 0.542693655,0.418777505 C0.396192948,0.569977804 0.607292091,1.06557607 0.672803943,1.15983344 C0.47299702,0.914558469 0.322112285,0.60719256 0.00885117401,0.711280805 C0.208674678,0.535802105 0.0848249599,0.169350993 4.29324987e-09,7.47840678e-09 Z" fill="#FFE452" transform="translate(0.336402, 0.579917) rotate(-0.000000) translate(-0.336402, -0.579917) "></path>
                                <path d="M4.29324987e-09,7.47840678e-09 C0.171410155,0.337085613 0.352308039,0.476678112 0.542693655,0.418777505 C0.396192948,0.569977804 0.607292091,1.06557607 0.672803943,1.15983344 C0.47299702,0.914558469 0.322112285,0.60719256 0.00885117401,0.711280805 C0.208674678,0.535802105 0.0848249599,0.169350993 4.29324987e-09,7.47840678e-09 Z" stroke="#EF9034" stroke-width="2" stroke-linecap="round" stroke-linejoin="round" transform="translate(0.336402, 0.579917) rotate(-0.000000) translate(-0.336402, -0.579917) "></path>
                            </g>
                            <g transform="translate(0.289803, 0.512886) rotate(-0.000000) translate(-0.289803, -0.512886) translate(0.137747, 0.247185)" fill="#FFF1CC">
                                <path d="M1.65862493e-08,3.16102367e-09 C0.0425619716,0.10068402 0.155700639,0.304111117 0.0508651179,0.382991012 C0.148432619,0.335242343 0.23284794,0.384712472 0.30411108,0.531401399 C0.216928044,0.376420474 0.211392613,0.277823393 0.287504787,0.235610156 C0.117290288,0.293732183 0.0456673529,0.0664251776 1.65862493e-08,3.16102367e-09 Z" transform="translate(0.152056, 0.265701) rotate(0.000001) translate(-0.152056, -0.265701) "></path>
                            </g>
                        </g>
                        <g transform="translate(36.284130, 139.280991)" id="Vector">
                            <g transform="translate(0.174367, 0.000003)" fill="#FFFDF9">
                                <path d="M148.521039,77.0118664 C150.025477,60.1932479 139.781855,28.0223063 128.913033,17.1674741 C108.785751,-2.93382752 30.6899008,-9.47466735 14.2100404,20.2383451 C3.63401456,39.3067763 0.258316685,63.56501 0,77.0110125 C7.62811108,89.6715685 136.659918,91.0464557 148.521039,77.0118664 Z"></path>
                            </g>
                            <g transform="translate(-0.000003, 11.639068)" fill="#C5DAEA">
                                <path d="M14.4841678,8.76099566 C6.10658431,24.2035897 1.00778835,43.9064424 0,65.5966229 C1.43368557,67.0671382 4.31264496,68.2676643 7.45081165,69.2970963 C3.83986199,63.3457979 7.00697609,26.3513877 22.1347923,0 C19.3102872,2.45526474 16.1305051,4.74882995 14.4841678,8.76099566 Z"></path>
                            </g>
                            <g transform="translate(0.099758, 0.316544)" stroke="#5E7A8E" stroke-linecap="round" stroke-linejoin="round" stroke-width="2">
                                <path d="M148.720556,76.7253265 C149.2257,61.6554693 143.079017,31.8709242 129.087403,16.769089 C112.76643,-0.84696847 30.3308198,-11.230356 14.1597382,20.1919533 C8.05655052,32.0505783 0.674023471,52.3289659 0,76.6028239"></path>
                            </g>
                        </g>
                        <g transform="translate(54.625063, 43.428884) rotate(36.106891) translate(-54.625063, -43.428884) translate(35.218729, 27.764264)" id="Vector">
                            <g>
                                <path d="M35.6580737,0.0235901015 C30.3783039,-0.353142699 27.4123143,3.83542041 18.1739108,8.79226399 C7.07046483,15.3691133 -0.240918635,21.1070047 0.00606974258,28.5188346 C1.08057864,33.7942117 7.98787052,30.2841759 20.9793959,28.8783067 C30.2812102,27.9343209 36.5006087,19.0006372 38.8126678,13.8599021" fill="#FFFDF9"></path>
                                <path d="M35.6580737,0.0235901015 C30.3783039,-0.353142699 27.4123143,3.83542041 18.1739108,8.79226399 C7.07046483,15.3691133 -0.240918635,21.1070047 0.00606974258,28.5188346 C1.08057864,33.7942117 7.98787052,30.2841759 20.9793959,28.8783067 C30.2812102,27.9343209 36.5006087,19.0006372 38.8126678,13.8599021" stroke="#5E7A8E" stroke-width="2" stroke-linecap="round" stroke-linejoin="round"></path>
                            </g>
                            <g transform="translate(20.493632, 18.137063) rotate(0.000000) translate(-20.493632, -18.137063) translate(4.937722, 8.395848)" fill="#C5DAEA">
                                <path d="M31.0858471,0 C28.5756115,6.03326355 21.5426465,10.4036725 15.5563752,11.7102495 C7.82783371,13.3970582 2.51528371,14.801842 0,19.4824295 C1.55925864,17.8914122 4.89254331,17.3896742 15.1762573,16.1877863 C22.4036526,13.5856243 31.6661486,6.14149923 31.0858471,0 Z"></path>
                            </g>
                            <g transform="translate(20.582470, 18.117970) rotate(-0.000000) translate(-20.582470, -18.117970) translate(5.250659, 8.368853)" stroke="#5E7A8E" stroke-linecap="round" stroke-linejoin="round" stroke-width="2">
                                <path d="M30.6636219,0 C28.0987103,6.04365494 22.9449885,9.96717883 15.2024563,11.7705717 C4.94520011,14.1598844 1.52796608,15.1367969 0,19.4982338"></path>
                            </g>
                        </g>
                        <g transform="translate(159.555320, 46.266495) rotate(17.196592) translate(-159.555320, -46.266495) translate(137.982561, 33.952442)" id="Vector">
                            <g>
                                <path d="M0,13.9389349 C2.50123353,9.16230892 5.62059314,12.9467406 17.0796393,4.17195147 C27.5758779,-1.83561708 40.2615967,-1.99720034 43.1455193,7.94662389 C39.2393943,7.36568841 35.8015426,16.830026 28.21793,22.2212034 C24.1350348,25.2196654 10.7407463,25.4695976 5.08846111,22.672318" fill="#FFFDF9"></path>
                                <path d="M0,13.9389349 C2.50123353,9.16230892 5.62059314,12.9467406 17.0796393,4.17195147 C27.5758779,-1.83561708 40.2615967,-1.99720034 43.1455193,7.94662389 C39.2393943,7.36568841 35.8015426,16.830026 28.21793,22.2212034 C24.1350348,25.2196654 10.7407463,25.4695976 5.08846111,22.672318" stroke="#5E7A8E" stroke-width="2" stroke-linecap="round" stroke-linejoin="round"></path>
                            </g>
                            <g transform="translate(21.171438, 13.836040) rotate(-0.000000) translate(-21.171438, -13.836040) translate(3.969713, 7.294409)" fill="#C5DAEA">
                                <path d="M0,10.2209949 C4.209027,14.0932598 15.114984,13.7070475 19.710737,11.0242319 C25.3576913,7.61792789 31.0051659,1.34824044 34.40345,1.38097626 C28.8420486,-3.17279313 21.1916766,4.66612466 15.4875322,8.56540404 C9.60948943,12.1095159 5.04055104,11.0605184 0,10.2209949 Z"></path>
                            </g>
                            <g transform="translate(21.395616, 12.945168) rotate(-0.000000) translate(-21.395616, -12.945168) translate(4.417895, 7.317975)" stroke="#5E7A8E" stroke-linecap="round" stroke-linejoin="round" stroke-width="2">
                                <path d="M0,10.2513922 C5.34727197,12.3683135 10.3376475,11.7770642 14.9711267,8.4776444 C21.3744485,3.71766252 27.8232466,-2.87523958 33.9554405,1.3567353"></path>
                            </g>
                        </g>
                        <g transform="translate(110.301110, 161.216742) rotate(0.049821) translate(-110.301110, -161.216742) translate(42.491822, 145.065976)" id="Vector">
                            <g transform="translate(67.820656, 16.150754) rotate(0.000000) translate(-67.820656, -16.150754) translate(0.022507, -0.000012)" fill="#FFFEFA">
                                <path d="M129.382852,31.0570217 C133.879676,28.8086096 141.827226,11.5066424 127.091723,5.27598859 C105.913408,-3.66724617 24.3313607,0.361326627 7.59318195,5.6076216 C1.35408852,7.56324125 -5.26962478,22.6729566 6.48489866,32.3015327"></path>
                            </g>
                            <g transform="translate(3.886483, 18.884455) rotate(-0.000000) translate(-3.886483, -18.884455) translate(0.000001, 5.531046)" fill="#C5DAEA">
                                <path d="M7.77296352,0 C4.36301475,0.3980381 -7.17628949,15.0949708 6.58827251,26.7068176 C1.50150673,14.016143 4.62310784,8.14473317 7.77296352,0 Z"></path>
                            </g>
                            <g transform="translate(67.820656, 16.150754) rotate(0.000000) translate(-67.820656, -16.150754) translate(0.022507, -0.000012)" stroke="#5E7B8E" stroke-linecap="round" stroke-linejoin="round" stroke-width="2">
                                <path d="M129.382852,31.0570217 C133.879676,28.8086096 141.827226,11.5066424 127.091723,5.27598859 C105.913408,-3.66724617 24.3313607,0.361326627 7.59318195,5.6076216 C1.35408852,7.56324125 -5.26962478,22.6729566 6.48489866,32.3015327"></path>
                            </g>
                        </g>
                        <g transform="translate(108.825761, 105.847501) rotate(0.049821) translate(-108.825761, -105.847501) translate(44.541154, 21.950925)" id="Vector">
                            <g transform="translate(64.379897, 73.174231) rotate(0.000000) translate(-64.379897, -73.174231) translate(0.190581, -0.000001)" fill="#FFFEFA">
                                <path d="M119.422288,145.738559 C123.49893,139.246547 132.066037,131.13985 126.619079,104.501297 C121.458032,79.157443 103.427038,50.8870732 102.316822,39.349722 C102.37778,26.9609728 95.9091087,-0.608327828 62.5799368,0.0102385864 C28.9718214,0.631618261 22.8037362,29.6046745 23.1659796,40.6893443 C23.4437833,49.1978365 5.02240948,78.9222823 0.986262371,104.648112 C-2.18016944,124.831189 0.886033184,138.731307 10.1848702,146.348465"></path>
                            </g>
                            <g transform="translate(31.295684, 73.368264) rotate(0.000000) translate(-31.295684, -73.368264) translate(-0.000000, 0.202058)" fill="#C5DAEA">
                                <path d="M62.5913696,0 C37.1983056,5.99376798 29.1892438,14.957774 26.7547618,40.6370257 C23.7024178,64.1029528 -9.14905175,102.878647 10.5457322,146.332413 C4.21611356,141.463072 -2.79738078,124.58128 1.14283702,104.530438 C5.94294591,80.1036915 23.70554,46.9342064 23.562141,40.6446497 C23.296329,19.5790277 34.3521751,2.20255363 62.5913696,0 Z"></path>
                            </g>
                            <g transform="translate(64.379897, 73.174231) rotate(0.000000) translate(-64.379897, -73.174231) translate(0.190581, -0.000001)" stroke="#5E7A8E" stroke-linecap="round" stroke-linejoin="round" stroke-width="2">
                                <path d="M119.422288,145.738559 C123.49893,139.246547 132.066037,131.13985 126.619079,104.501297 C121.458032,79.157443 103.427038,50.8870732 102.316822,39.349722 C102.37778,26.9609728 95.9091087,-0.608327828 62.5799368,0.0102385864 C28.9718214,0.631618261 22.8037362,29.6046745 23.1659796,40.6893443 C23.4437833,49.1978365 5.02240948,78.9222823 0.986262371,104.648112 C-2.18016944,124.831189 0.886033184,138.731307 10.1848702,146.348465"></path>
                            </g>
                            <g transform="translate(62.260173, 41.329448) rotate(-0.000000) translate(-62.260173, -41.329448) translate(47.908016, 40.160870)" stroke="#5E7A8E" stroke-linecap="round" stroke-linejoin="round" stroke-width="2">
                                <path d="M0,2.33715773 C9.49801563,-0.940994494 19.0661201,-1.10328013 28.7043133,1.85030082"></path>
                            </g>
                            <g transform="translate(68.211443, 161.941443) rotate(0.000000) translate(-68.211443, -161.941443) translate(37.433842, 156.089737)" fill="#C5DAEA">
                                <path d="M0,1.09044739 C4.82417886,8.21315246 15.5015975,11.7506885 32.032256,11.7030556 C52.579745,11.6440973 60.6588343,1.82321233 61.5552025,0 C59.313286,0.543615983 51.6404441,6.30769807 32.5709114,6.7059168 C21.9013836,6.36018986 6.50490653,4.42908957 0,1.09044739 Z"></path>
                            </g>
                            <g transform="translate(68.219671, 159.322294) rotate(-0.000000) translate(-68.219671, -159.322294) translate(37.652054, 155.839737)" stroke="#5E7A8E" stroke-linecap="round" stroke-linejoin="round" stroke-width="2">
                                <path d="M0,1.16321357 C1.64533947,2.76058534 14.584748,7.23372896 31.7531224,6.95242776 C47.5594588,6.69311088 55.6995712,3.94221578 61.1352348,0"></path>
                            </g>
                        </g>
                        <g transform="translate(113.152091, 159.308638) rotate(0.545821) translate(-113.152091, -159.308638) translate(90.020171, 141.366000)" id="Vector">
                            <g fill="#891D5B">
                                <path d="M46.2064767,0.0354739043 C41.9700963,5.26488911 10.5859055,11.8634697 0.273646395,2.44170285 C-1.3152507,1.33677033 4.60074495,11.3505422 3.06012308,16.5085967 C7.78405893,23.0347188 27.2933276,36.6645122 43.0150507,16.3802846 C41.6922773,12.3367537 46.8595113,-0.769042128 46.2064767,0.0354739043 Z"></path>
                            </g>
                            <g transform="translate(22.892852, 15.496971) rotate(0.000000) translate(-22.892852, -15.496971) translate(2.724666, 4.581417)" fill="#680E48">
                                <path d="M40.3363724,11.8681493 C35.1165577,10.7715818 32.1638873,7.59091779 37.9118267,2.15875458 C24.1422471,9.5374671 5.27877206,1.48395252 0,0 C4.83288279,7.09996872 -0.223891442,9.55996555 0.358682032,11.9518514 C12.1827438,27.3868575 30.500254,22.6736612 40.3363724,11.8681493 Z"></path>
                            </g>
                            <g transform="translate(21.531572, 25.009883) rotate(0.000000) translate(-21.531572, -25.009883) translate(15.894945, 23.053555)" fill="#D61A50">
                                <path d="M11.2196414,2.9784344 C11.7321883,2.19062769 8.54810262,-1.57266348 2.59528487,0.743533199 C1.83460358,0.956150403 -0.228750878,1.61550571 0.0208010682,2.53244482 C0.902840386,3.82388817 3.14721886,3.28315838 2.92096732,3.4087738 C2.66449229,3.13438294 3.35154851,3.83434528 6.12058456,3.62631064 C7.51355785,3.54594151 10.5290119,4.65600373 11.2196414,2.9784344 Z"></path>
                            </g>
                            <g transform="translate(23.131921, 13.537106) rotate(0.000000) translate(-23.131921, -13.537106) translate(0.000001, 0.000598)" stroke="#2A4453" stroke-linecap="round" stroke-linejoin="round" stroke-width="2">
                                <path d="M46.2064729,0.03504171 C41.9700928,5.26445679 10.5859046,11.8630372 0.273646373,2.44127061 C-1.3152506,1.33633811 4.60074457,11.3501093 3.06012283,16.5081637 C15.3705501,28.7342393 31.6118999,32.3885949 43.0150472,16.3798516 C41.6939817,12.5073273 46.8595074,-0.769474304 46.2064729,0.03504171 Z"></path>
                            </g>
                            <g transform="translate(9.190419, 31.325149) rotate(0.000000) translate(-9.190419, -31.325149) translate(1.195175, 28.294773)" fill="#C5DAEA">
                                <path d="M4.57364694,0.0838898694 C0.934745083,0.406507471 0.126546467,1.22285592 0.00372366556,3.10630657 C-0.0595022495,4.05496212 0.667729142,5.99289394 3.31370281,6.05786575 C7.48659795,6.16088137 6.68080847,3.47393633 8.23571769,3.2238993 C9.2031207,3.02912109 12.4110001,2.41566276 15.9904881,4.98774448 C13.1857825,1.94997299 8.90005915,-0.488825752 4.57364694,0.0838898694 Z"></path>
                            </g>
                            <g transform="translate(19.075411, 32.400551) rotate(0.000000) translate(-19.075411, -32.400551) translate(6.692354, 28.915825)" stroke="#2A4453" stroke-linecap="round" stroke-linejoin="round" stroke-width="2">
                                <path d="M24.7661152,1.7261261 C21.8851082,8.29826988 15.1681326,8.39829308 10.6877027,3.66331171 C7.51904019,0.603966674 2.97011691,-0.81757359 0,0.480598729"></path>
                            </g>
                        </g>
                        <g transform="translate(113.038334, 141.296307) rotate(0.545821) translate(-113.038334, -141.296307) translate(90.018288, 126.648836)" id="Vector">
                            <g fill="#FFFDF9">
                                <path d="M0.148505644,17.1951774 C3.36771708,21.5631406 7.03272778,23.9532001 13.4646693,26.8160112 C21.8417368,30.6912498 31.862538,29.9834767 37.9836782,24.9698133 C41.7123193,21.9075114 44.4938906,18.4465198 45.9557583,15.6926908 C46.4031256,9.83918735 41.7134524,0.0289554068 24.0367264,0.00421739966 C5.75462036,-0.206207824 -2.20811989,5.52411217 0.148505644,17.1951774 Z"></path>
                            </g>
                            <g transform="translate(23.091214, 22.436299) rotate(0.000000) translate(-23.091214, -22.436299) translate(0.142336, 15.650479)" stroke="#2A4453" stroke-linecap="round" stroke-linejoin="round" stroke-width="2">
                                <path d="M45.8977547,0 C43.5743883,3.92479278 40.8705356,7.00438036 37.7861965,9.23876274 C29.9893288,15.7380625 19.3073674,13.6655154 13.3015366,11.1206114 C6.40889227,8.28340903 3.37506553,5.65598797 0,1.51037019"></path>
                            </g>
                            <g transform="translate(11.678023, 14.928227) rotate(-0.000000) translate(-11.678023, -14.928227) translate(5.357317, 9.172256)" fill="#0E2833">
                                <path d="M12.3243264,11.1036019 C15.0978666,8.54291051 -1.28001914,-6.24287452 0.325060805,3.01307912 C-2.19703867,10.1329349 10.7354485,12.5705657 12.3243264,11.1036019 Z"></path>
                            </g>
                            <g transform="translate(34.079958, 13.639741) rotate(-0.000000) translate(-34.079958, -13.639741) translate(28.246029, 7.448681)" fill="#0E2833">
                                <path d="M0.477157087,12.2246167 C-2.65662928,10.1196035 10.6562621,-6.68545805 11.0561714,2.96749908 C14.5127326,7.46576736 2.27238937,13.4297653 0.477157087,12.2246167 Z"></path>
                            </g>
                        </g>
                        <g transform="translate(109.059761, 93.234141) rotate(0.545821) translate(-109.059761, -93.234141) translate(63.524822, 65.554934)" id="Vector">
                            <g transform="translate(23.439583, 27.668448) rotate(-0.000000) translate(-23.439583, -27.668448) translate(0.050997, 0.130570)">
                                <path d="M46.6778999,27.7405719 C47.4793338,19.067698 43.7530877,-0.449709868 23.5083688,0.00790985854 C10.2658224,0.306904446 -0.160341209,19.3651182 0.00186722019,32.6916493 C0.133291804,43.4453803 3.84615657,55.487809 24.7486274,55.0649262 C46.2700134,54.6291111 45.5501964,39.9454511 46.6778999,27.7405719 Z" fill="#FFFFFF"></path>
                                <path d="M46.6778999,27.7405719 C47.4793338,19.067698 43.7530877,-0.449709868 23.5083688,0.00790985854 C10.2658224,0.306904446 -0.160341209,19.3651182 0.00186722019,32.6916493 C0.133291804,43.4453803 3.84615657,55.487809 24.7486274,55.0649262 C46.2700134,54.6291111 45.5501964,39.9454511 46.6778999,27.7405719 Z" stroke="#131F35" stroke-width="2" stroke-linecap="round" stroke-linejoin="round"></path>
                            </g>
                            <g transform="translate(23.654742, 27.866414) rotate(-0.000000) translate(-23.654742, -27.866414) translate(2.893670, 2.765819)" fill="#5ABBFF">
                                <path d="M21.5323379,0.00904260495 C32.4126888,-0.352221091 41.3429896,10.1493894 41.5198647,24.6591405 C41.7402091,42.7208825 25.9430181,50.3234667 21.7080485,50.1997081 C2.61944389,49.6417049 -0.112254736,39.0827384 0.0034186438,28.835979 C0.156211421,15.3323446 9.96676202,0.392581751 21.5323379,0.00904260495 Z"></path>
                            </g>
                            <g transform="translate(23.602630, 27.932786) rotate(-0.000000) translate(-23.602630, -27.932786) translate(4.456434, 3.810005)" fill="#1E1F2C">
                                <path d="M20.2439108,0.0016153339 C28.3307074,-0.143856498 38.3317469,9.54988659 38.2923927,23.5460025 C38.2563007,36.1506013 30.0810408,48.8269496 20.0590572,48.2249329 C-0.306807302,46.9966534 -0.0757712682,35.3836925 0.0138127511,27.1409882 C0.0995085254,19.2512075 6.79195381,0.242905725 20.2439108,0.0016153339 Z"></path>
                            </g>
                            <g transform="translate(16.406382, 17.430281) rotate(-0.000000) translate(-16.406382, -17.430281) translate(7.486177, 6.930205)" fill="#FFFFFF">
                                <path d="M4.16349143,6.74467051 C7.30330334,1.69505806 13.5940198,-1.41534278 15.9485467,0.642977912 C20.6418353,4.74616006 15.4261815,13.2265381 12.9595329,16.1079188 C8.76257444,21.0258893 3.61456289,22.1336499 1.47762173,19.8908553 C-1.84793868,16.4004694 1.05115931,11.7490731 4.16349143,6.74467051 Z"></path>
                            </g>
                            <g transform="translate(19.359484, 42.414379) rotate(-0.000000) translate(-19.359484, -42.414379) translate(7.041998, 34.471256)" fill="#FFFFFF">
                                <path d="M0.0203721906,4.42752321 C0.9437112,12.2586355 13.9104492,19.2520793 23.0422608,14.1432036 C26.591199,12.1577437 24.5752022,5.06785248 13.2696674,1.03773032 C6.48963968,-1.36832716 -0.424384879,0.677314659 0.0203721906,4.42752321 Z"></path>
                            </g>
                            <g transform="translate(31.137206, 10.779285) rotate(0.000000) translate(-31.137206, -10.779285) translate(28.625620, 8.069473)" fill="#FFFFFF">
                                <path d="M2.9473534,0.0457727923 C2.1036004,-0.113781777 -0.339414421,-0.0115303623 0.0396437314,2.9851552 C0.418705696,5.98184099 3.64987947,5.80055228 4.63730313,4.62782894 C5.62472678,3.45510561 4.59290828,0.357214082 2.9473534,0.0457727923 Z"></path>
                            </g>
                            <g transform="translate(7.519322, 30.428237) rotate(0.000000) translate(-7.519322, -30.428237) translate(5.823321, 28.197073)" fill="#FFFFFF">
                                <path d="M0.268811455,1.14051703 C0.0888133434,1.74598155 -0.617667391,3.83177711 1.37597406,4.40365787 C3.36961551,4.97553863 3.89266632,1.19781143 2.90931007,0.402815938 C1.92595287,-0.392177646 0.580037838,0.0605379704 0.268811455,1.14051703 Z"></path>
                            </g>
                            <g opacity="0" transform="translate(23.366025, 41.445753) rotate(-0.000000) translate(-23.366025, -41.445753) translate(0.076600, 27.683273)">
                                <path d="M46.5788498,0 C45.3379259,36.4289481 1.50285625,33.8017617 0,5.37778453 C1.07224265,20.8408647 9.9676247,28.4323855 24.62737,27.4385319 C42.0111549,26.260363 45.776417,12.3592721 46.5788498,0 Z" fill="#EE6464"></path>
                                <path d="M46.5788498,0 C45.3379259,36.4289481 1.50285625,33.8017617 0,5.37778453 C1.07224265,20.8408647 9.9676247,28.4323855 24.62737,27.4385319 C42.0111549,26.260363 45.776417,12.3592721 46.5788498,0 Z" stroke="#841717" stroke-width="2" stroke-linecap="round" stroke-linejoin="round"></path>
                            </g>
                            <g opacity="0">
                                <path d="M45.8452571,27.7479472 C47.6609742,14.9334984 38.9744698,-0.273206208 23.7562187,0.174976919 C8.18021961,0.594680557 -0.723621597,21.1182962 0.0461289457,32.4812202 C1.49283821,-6.21978526 46.5665456,-13.4136007 45.8452571,27.7479472 Z" fill="#EE6464"></path>
                                <path d="M45.8452571,27.7479472 C47.6609742,14.9334984 38.9744698,-0.273206208 23.7562187,0.174976919 C8.18021961,0.594680557 -0.723621597,21.1182962 0.0461289457,32.4812202 C1.49283821,-6.21978526 46.5665456,-13.4136007 45.8452571,27.7479472 Z" stroke="#841717" stroke-width="2" stroke-linecap="round" stroke-linejoin="round"></path>
                            </g>
                            <g transform="translate(67.099297, 27.998099) rotate(-0.000000) translate(-67.099297, -27.998099) translate(43.128712, 0.805731)">
                                <path d="M47.8713757,28.9265021 C47.2405232,18.3982487 36.0685687,-0.421259077 22.4622031,0.00719125202 C3.77885959,0.596788384 -1.09898878,21.5108373 0.195598606,29.3942695 C1.89040077,39.7144807 9.64041382,55.0414769 25.5696638,54.3629571 C39.87556,53.753387 48.8280842,44.9288541 47.8713757,28.9265021 Z" fill="#FFFFFF"></path>
                                <path d="M47.8713757,28.9265021 C47.2405232,18.3982487 36.0685687,-0.421259077 22.4622031,0.00719125202 C3.77885959,0.596788384 -1.09898878,21.5108373 0.195598606,29.3942695 C1.89040077,39.7144807 9.64041382,55.0414769 25.5696638,54.3629571 C39.87556,53.753387 48.8280842,44.9288541 47.8713757,28.9265021 Z" stroke="#131F35" stroke-width="2" stroke-linecap="round" stroke-linejoin="round"></path>
                            </g>
                            <g transform="translate(67.690073, 28.075354) rotate(0.000000) translate(-67.690073, -28.075354) translate(46.611649, 3.369474)" fill="#5ABBFF">
                                <path d="M18.1586116,0 C29.1651509,-0.0238821215 39.2896894,11.7746651 41.6382333,24.2127849 C44.3007787,38.3079195 36.537518,48.2749632 22.3449841,49.3550892 C8.66064854,50.399102 1.18949015,36.7979852 0.158218905,26.7265983 C-1.10788709,14.3603319 5.25502615,0.0282051155 18.1586116,0 Z"></path>
                            </g>
                            <g transform="translate(67.561039, 27.631649) rotate(-0.000000) translate(-67.561039, -27.631649) translate(47.756142, 4.280195)" fill="#1E1F2C">
                                <path d="M16.9618088,0.015410698 C23.0748927,-0.378636248 36.0415837,6.76384804 39.1771549,23.7704903 C41.3049817,35.3104174 35.6400005,46.1048993 20.9396968,46.6930993 C11.7639106,47.0639387 2.55273212,36.8615765 0.385262408,25.8613464 C-1.62581599,15.655055 4.28591323,0.83366136 16.9618088,0.015410698 Z"></path>
                            </g>
                            <g transform="translate(57.423812, 19.271667) rotate(0.000000) translate(-57.423812, -19.271667) translate(50.289898, 8.154960)" fill="#FFFFFF">
                                <path d="M3.67024161,3.91021095 C5.35596171,1.26647501 9.21599066,-1.24518645 12.0870866,0.678536096 C15.8900306,3.22571586 13.8106337,13.4364491 12.613981,16.8203687 C9.89382854,24.6577059 2.77926923,22.7571875 0.482263611,18.801864 C-0.839669226,16.5255089 0.664561377,8.62428106 3.67024161,3.91021095 Z"></path>
                            </g>
                            <g transform="translate(80.009575, 22.614980) rotate(-0.000000) translate(-80.009575, -22.614980) translate(75.131760, 15.025086)" fill="#FFFFFF">
                                <path d="M1.68744376,0.0170980511 C-1.23708064,0.318914512 -0.0585230903,8.30087185 2.91895006,13.3978277 C3.87961342,15.0423496 7.7810558,16.6350702 9.52737336,12.8590732 C10.8036631,10.0992596 6.52759211,-0.482225068 1.68744376,0.0170980511 Z"></path>
                            </g>
                            <g transform="translate(66.273486, 41.514184) rotate(-0.000000) translate(-66.273486, -41.514184) translate(54.139015, 33.666405)" fill="#FFFFFF">
                                <path d="M9.55932902,0.389739322 C5.89052568,-0.665265439 -2.85967267,0.0444403532 0.93387091,7.30057264 C3.8395375,12.8596042 16.3554022,19.9210078 23.5338806,12.4789564 C26.5715683,9.47303043 19.85987,3.30514162 9.55932902,0.389739322 Z"></path>
                            </g>
                            <g transform="translate(72.628491, 11.379115) rotate(0.000000) translate(-72.628491, -11.379115) translate(69.678406, 8.556532)" fill="#FFFFFF">
                                <path d="M0.590972464,0.0387079335 C-0.529238478,0.424435436 -0.124708542,3.43338053 2.38901883,4.96979536 C4.90273858,6.50620972 5.42587499,5.10035463 5.84657545,3.9291823 C6.45464356,2.23687743 1.71118341,-0.347019807 0.590972464,0.0387079335 Z"></path>
                            </g>
                            <g opacity="0" transform="translate(67.197906, 41.004248) rotate(0.000000) translate(-67.197906, -41.004248) translate(43.532158, 26.650087)">
                                <path d="M46.8350636,0 C52.4636662,32.3492119 8.54983549,41.9050401 0,3.27110969 C1.64733509,15.6788452 11.938382,29.8323016 25.2211782,28.6375241 C43.8736084,26.9581512 48.9635614,15.5065464 46.8350636,0 Z" fill="#EE6464"></path>
                                <path d="M46.8350636,0 C52.4636662,32.3492119 8.54983549,41.9050401 0,3.27110969 C1.64733509,15.6788452 11.938382,29.8323016 25.2211782,28.6375241 C43.8736084,26.9581512 48.9635614,15.5065464 46.8350636,0 Z" stroke="#841717" stroke-width="2" stroke-linecap="round" stroke-linejoin="round"></path>
                            </g>
                            <g opacity="0" transform="translate(66.903095, 15.609778) rotate(0.000000) translate(-66.903095, -15.609778) translate(43.384453, 0.977586)">
                                <path d="M47.0362327,25.3327404 C47.1388024,20.8322148 39.7283177,1.34305133 22.7138347,0 C2.6080329,1.26510726 -0.884565243,20.373663 0.167191762,29.2643833 C0.273775427,-9.78648237 39.8337177,-7.93812309 47.0362327,25.3327404 Z" fill="#EE6464"></path>
                                <path d="M47.0362327,25.3327404 C47.1388024,20.8322148 39.7283177,1.34305133 22.7138347,0 C2.6080329,1.26510726 -0.884565243,20.373663 0.167191762,29.2643833 C0.273775427,-9.78648237 39.8337177,-7.93812309 47.0362327,25.3327404 Z" stroke="#841717" stroke-width="2" stroke-linecap="round" stroke-linejoin="round"></path>
                            </g>
                        </g>
                        <g transform="translate(108.359069, 58.470234) rotate(0.545821) translate(-108.359069, -58.470234) translate(72.550888, 49.497009)" fill="#0A2C35" id="Vector">
                            <g transform="translate(58.931876, 8.872098) rotate(0.000000) translate(-58.931876, -8.872098) translate(46.247395, 0.351230)">
                                <path d="M0.43233005,1.49706335 C-1.75548869,4.73320517 4.79458063,10.3919765 10.3265555,13.1587143 C16.6849854,16.3387865 24.6306598,19.4663946 25.3245019,14.267068 C25.9687612,9.2644994 19.4949195,8.87925059 13.4730339,5.67737249 C7.84719748,2.68632757 3.20052749,-2.59774253 0.43233005,1.49706335 Z"></path>
                            </g>
                            <g>
                                <path d="M23.8763122,1.30687746 C26.2497455,4.40579412 20.0496837,10.7319694 14.6949026,13.8178038 C8.5395357,17.3648907 1.05664992,20.3163014 0.0870979787,15.192246 C-0.803642675,10.3335911 5.2967162,10.0902679 11.1150395,6.54056642 C16.5496283,3.22478764 20.8730825,-2.61441689 23.8763122,1.30687746 Z"></path>
                            </g>
                        </g>
                        <g transform="translate(109.671848, 99.820965) rotate(-3.644179) translate(-109.671848, -99.820965) translate(89.504547, 66.607705)" id="Vector">
                            <g transform="translate(20.179392, 33.162590) rotate(-0.000000) translate(-20.179392, -33.162590) translate(0.024183, 0.000000)">
                                <path d="M17.5244791,0.0200340253 C24.9657236,0.369286103 32.9955512,4.20707728 37.0107151,17.5026871 C40.5327276,29.16495 41.3381623,45.4254667 38.9283633,56.4711664 C35.5532474,71.9392417 -0.504289448,68.5241503 0.00535084895,50.9330743 C0.279157642,41.4642619 3.51037491,27.5605829 4.23186548,18.8982011 C5.0637784,8.91425339 6.60768858,-0.492604394 17.5244791,0.0200340253 Z" fill="#FFE9A3"></path>
                                <path d="M17.5244791,0.0200340253 C24.9657236,0.369286103 32.9955512,4.20707728 37.0107151,17.5026871 C40.5327276,29.16495 41.3381623,45.4254667 38.9283633,56.4711664 C35.5532474,71.9392417 -0.504289448,68.5241503 0.00535084895,50.9330743 C0.279157642,41.4642619 3.51037491,27.5605829 4.23186548,18.8982011 C5.0637784,8.91425339 6.60768858,-0.492604394 17.5244791,0.0200340253 Z" stroke="#CC6D52" stroke-width="2"></path>
                            </g>
                            <g transform="translate(19.522487, 58.679802) rotate(-0.000000) translate(-19.522487, -58.679802) translate(-0.000000, 50.933079)" stroke="#2A4453" stroke-linecap="round" stroke-linejoin="round" stroke-width="2">
                                <path d="M39.0449753,4.88554945 C34.460214,22.6410091 -1.15862689,16.1056258 0.0290337504,0"></path>
                            </g>
                            <g transform="translate(29.127028, 11.429974) rotate(0.000000) translate(-29.127028, -11.429974) translate(25.897451, 7.759488)" stroke="#FFFFFF" stroke-linecap="round" stroke-linejoin="round" stroke-width="2">
                                <path d="M0,0 C1.12238887,0.435627204 4.00238745,1.39517 6.4591527,7.34097099"></path>
                            </g>
                            <g transform="translate(34.731000, 25.023099) rotate(-0.000000) translate(-34.731000, -25.023099) translate(33.370201, 18.391062)">
                                <path d="M0,0 C1.56357566,4.15869127 2.47077489,8.58004938 2.72159767,13.2640743" fill="#FFE9A3"></path>
                                <path d="M0,0 C1.56357566,4.15869127 2.47077489,8.58004938 2.72159767,13.2640743" stroke="#FFFFFF" stroke-width="2" stroke-linecap="round" stroke-linejoin="round"></path>
                            </g>
                        </g>
                        <g transform="translate(105.783682, 13.924118) rotate(23.559217) translate(-105.783682, -13.924118) translate(98.044757, 3.642607)" id="Vector">
                            <path d="M8.46370575,20.5630207 C1.56842855,16.1035523 -1.15206599,12.8888827 0.302222118,10.919012 C2.81921967,7.59144287 6.06860607,9.31962426 10.0503813,16.1035561 C5.38583109,4.91579007 5.8061402,-0.444972959 11.3113086,0.0212670254 C15.3385231,0.288460943 16.5831837,6.14289388 15.0452903,17.5845658" fill="#FFFDF9"></path>
                            <path d="M8.46370575,20.5630207 C1.56842855,16.1035523 -1.15206599,12.8888827 0.302222118,10.919012 C2.81921967,7.59144287 6.06860607,9.31962426 10.0503813,16.1035561 C5.38583109,4.91579007 5.8061402,-0.444972959 11.3113086,0.0212670254 C15.3385231,0.288460943 16.5831837,6.14289388 15.0452903,17.5845658" stroke="#5E7A8E" stroke-width="2" stroke-linecap="round" stroke-linejoin="round"></path>
                        </g>
                        <g transform="translate(107.349112, 155.572838) rotate(0.049821) translate(-107.349112, -155.572838) translate(31.482107, 119.983567)" id="Vector">
                            <g transform="translate(131.720564, 28.318088) rotate(-0.000000) translate(-131.720564, -28.318088) translate(112.122505, 2.384225)" fill="#FFFEFA">
                                <path d="M23.3782353,0.493070126 C16.6816557,-2.39188954 5.99163575,8.00923495 2.54373827,15.4198565 C-0.4880255,21.5897657 -1.03773186,33.5824257 2.14222741,38.4009373 C9.61070749,49.8052515 23.3147273,55.9653448 24.6582761,48.7939114 C25.8989007,42.1720928 36.8300097,38.5358117 38.7932075,30.3669367 C41.3913481,19.8007527 30.8599659,2.25134979 23.3782353,0.493070126 Z"></path>
                            </g>
                            <g transform="translate(26.701555, 35.121112) rotate(0.000000) translate(-26.701555, -35.121112) translate(1.704685, 0.907275)" fill="#FFFEFA">
                                <path d="M19.6902904,0.378255165 C19.565878,-2.70456644 2.89500961,13.6567986 0.388961323,27.6285356 C-2.0651808,40.0052459 7.49139984,61.2610892 17.8720669,66.9620642 C32.6216519,75.0628412 47.1395967,47.2407339 48.4485705,40.6836207 C50.0833031,33.3102581 50.9825017,26.7949035 48.2268415,18.866818 C43.4214204,4.02894403 20.7130704,25.7513362 19.6902904,0.378255165 Z"></path>
                            </g>
                            <g transform="translate(142.653663, 31.712442) rotate(-0.000000) translate(-142.653663, -31.712442) translate(133.573303, 2.655849)">
                                <path d="M1.51705785,0.000990048603 C7.86842019,-0.148508212 20.5263958,16.6637016 17.775188,29.4331295 C15.7954147,46.1512036 3.27888263,58.2857325 0,58.1113294" fill="#FFFDF9"></path>
                                <path d="M1.51705785,0.000990048603 C7.86842019,-0.148508212 20.5263958,16.6637016 17.775188,29.4331295 C15.7954147,46.1512036 3.27888263,58.2857325 0,58.1113294" stroke="#5E7A8E" stroke-width="2" stroke-linecap="round" stroke-linejoin="round"></path>
                            </g>
                            <g transform="translate(133.079969, 44.302038) rotate(0.000000) translate(-133.079969, -44.302038) translate(115.526016, 17.425535)" fill="#C5DAEA">
                                <path d="M34.6990917,15.6749664 C35.5724046,14.2717473 35.2142761,5.22436235 31.9664369,0 C33.6283705,6.03137191 33.7367229,15.8820855 28.4479582,9.59502524 C26.4353796,15.40842 29.0564552,14.3615353 17.8181308,11.4074821 C18.9826259,17.8118792 9.63841585,16.1075432 3.15509312,29.9264062 C-1.24412263,38.2932521 -3.33726741,55.8087402 12.7672795,53.5545034 C21.1159354,52.2738413 31.3231705,26.6526773 34.6990917,15.6749664 Z"></path>
                            </g>
                            <g transform="translate(143.929874, 32.866539) rotate(-0.000000) translate(-143.929874, -32.866539) translate(142.426880, 27.354219)" stroke="#5E7A8E" stroke-linecap="round" stroke-linejoin="round" stroke-width="2">
                                <path d="M0,10.0999297 C3.78791458,13.7313878 4.26201108,10.3647446 1.42228951,0"></path>
                            </g>
                            <g transform="translate(134.855441, 34.110012) rotate(0.000000) translate(-134.855441, -34.110012) translate(133.545395, 29.187214)" stroke="#5E7A8E" stroke-linecap="round" stroke-linejoin="round" stroke-width="2">
                                <path d="M0.426997905,9.84559536 C1.15548346,9.11661044 5.21725939,8.72096819 0,0"></path>
                            </g>
                            <g>
                                <path d="M21.7287235,0 C12.6649413,2.49881882 -1.55806116,19.6754998 0.139062014,31.7636573 C0.542786691,60.1663499 15.7067926,68.1138199 20.6739742,68.2499771" fill="#FFFDF9"></path>
                                <path d="M21.7287235,0 C12.6649413,2.49881882 -1.55806116,19.6754998 0.139062014,31.7636573 C0.542786691,60.1663499 15.7067926,68.1138199 20.6739742,68.2499771" stroke="#5E7A8E" stroke-width="2" stroke-linecap="round" stroke-linejoin="round"></path>
                            </g>
                            <g transform="translate(19.186715, 45.529261) rotate(-0.000000) translate(-19.186715, -45.529261) translate(1.482094, 20.041571)" fill="#C5DAEA">
                                <path d="M0.719276678,8.52806267 C0.802536194,5.69536575 1.89815564,2.85267819 4.006135,0 C3.90428918,2.86799975 4.08551763,2.22332201 8.44194114,1.05664591 C6.6881795,7.57754061 7.75556576,16.3014965 19.6896383,5.6914891 C21.409225,9.50719066 24.4105057,13.7528904 28.6934804,18.4285883 C36.2211654,26.6467845 37.6712427,44.3082324 31.7667877,49.2690578 C26.8329683,53.7505693 22.3120911,48.1041319 18.3561874,47.0802654 C12.0115734,46.0558958 -3.50845544,36.1002734 0.719276678,8.52806267 Z"></path>
                            </g>
                            <g transform="translate(21.245283, 33.281923) rotate(0.000000) translate(-21.245283, -33.281923) translate(18.763250, 25.733461)" stroke="#5E7A8E" stroke-linecap="round" stroke-linejoin="round" stroke-width="2">
                                <path d="M4.96406603,15.0969238 C3.92280109,13.5759987 -3.8396067,8.74682329 2.407981,0"></path>
                            </g>
                            <g transform="translate(9.138615, 33.380314) rotate(-0.000000) translate(-9.138615, -33.380314) translate(7.020312, 21.299559)" stroke="#5E7A8E" stroke-linecap="round" stroke-linejoin="round" stroke-width="2">
                                <path d="M4.23660564,24.1615105 C-0.310618844,19.5676824 -1.85161876,11.4070453 2.90412383,0"></path>
                            </g>
                            <g transform="translate(113.389060, 29.021258) rotate(0.000000) translate(-113.389060, -29.021258) translate(112.191345, 17.853384)">
                                <path d="M2.39542961,0 C-0.865105301,5.66419194 -1.09696669,13.1094415 1.69984544,22.3357487" fill="#FFFFFF"></path>
                                <path d="M2.39542961,0 C-0.865105301,5.66419194 -1.09696669,13.1094415 1.69984544,22.3357487" stroke="#5E7A8E" stroke-width="2" stroke-linecap="round" stroke-linejoin="round"></path>
                            </g>
                            <g transform="translate(50.922148, 30.548975) rotate(0.000000) translate(-50.922148, -30.548975) translate(49.980267, 19.968580)">
                                <path d="M0,0 C2.73885433,6.73683414 2.80243857,13.7904306 0.190752723,21.1607895" fill="#FFFFFF"></path>
                                <path d="M0,0 C2.73885433,6.73683414 2.80243857,13.7904306 0.190752723,21.1607895" stroke="#5E7A8E" stroke-width="2" stroke-linecap="round" stroke-linejoin="round"></path>
                            </g>
                        </g>
                        <g transform="translate(43.128950, 189.312888) rotate(2.135533) translate(-43.128950, -189.312888) translate(21.142551, 146.014590)" id="Vector">
                            <g transform="translate(28.477860, 77.440983) rotate(-0.000000) translate(-28.477860, -77.440983) translate(14.079123, 68.285385)" fill="#FFFEFA">
                                <path d="M13.2497024,0.002626307 C5.64004319,0.254681143 1.22347573,5.10208233 0,14.5448299 C8.65544466,19.7374817 18.2546033,20.0590802 28.7974758,15.5096254 C28.1895944,5.45787209 17.1559745,-0.139065909 13.2497024,0.002626307 Z"></path>
                            </g>
                            <g transform="translate(21.986399, 43.034490) rotate(-0.000000) translate(-21.986399, -43.034490) translate(0.000000, 2.526731)">
                                <path d="M14.0719748,80.0657114 C8.51910323,57.016908 1.11201935,38.6994088 0.102912991,26.1219769 C-0.494170892,18.6592021 1.47280675,3.09988145 6.89635221,0.979384166 C21.5016884,-4.62343486 41.167905,14.9376918 43.7325,31.0569584 C44.7909744,36.0923971 43.0536061,39.2322038 38.5203951,40.4763787 C42.2023415,53.9499481 43.6524829,67.4629946 42.8708192,81.0155182" fill="#FFFDF9"></path>
                                <path d="M14.0719748,80.0657114 C8.51910323,57.016908 1.11201935,38.6994088 0.102912991,26.1219769 C-0.494170892,18.6592021 1.47280675,3.09988145 6.89635221,0.979384166 C21.5016884,-4.62343486 41.167905,14.9376918 43.7325,31.0569584 C44.7909744,36.0923971 43.0536061,39.2322038 38.5203951,40.4763787 C42.2023415,53.9499481 43.6524829,67.4629946 42.8708192,81.0155182" stroke="#5E7A8E" stroke-width="2" stroke-linecap="round" stroke-linejoin="round"></path>
                            </g>
                            <g transform="translate(8.141972, 4.768788) rotate(0.000000) translate(-8.141972, -4.768788) translate(2.633919, 0.000000)">
                                <path d="M1.47472121,9.50145698 C4.06367399,9.03328753 9.74356926,5.04210693 10.9092828,2.42855458 C12.0765153,-0.445801799 3.33086176,-1.2866314 1.59484892,2.79309563 C0.431520283,5.28110533 -1.2611815,9.99651345 1.47472121,9.50145698 Z" fill="#EE6464"></path>
                                <path d="M1.47472121,9.50145698 C4.06367399,9.03328753 9.74356926,5.04210693 10.9092828,2.42855458 C12.0765153,-0.445801799 3.33086176,-1.2866314 1.59484892,2.79309563 C0.431520283,5.28110533 -1.2611815,9.99651345 1.47472121,9.50145698 Z" stroke="#841717" stroke-width="2" stroke-linecap="round" stroke-linejoin="round"></path>
                            </g>
                            <g transform="translate(17.644211, 5.949100) rotate(0.000000) translate(-17.644211, -5.949100) translate(9.457159, 0.306882)">
                                <path d="M15.7890819,7.36060943 C15.6899388,7.48486555 3.61504248,14.0108222 0.829138038,9.96120449 C-1.52262482,6.53543377 1.55254989,1.10666799 4.76237402,0.414977421 C10.7569933,-1.6286139 18.587782,4.38530382 15.7890819,7.36060943 Z" fill="#EE6464"></path>
                                <path d="M15.7890819,7.36060943 C15.6899388,7.48486555 3.61504248,14.0108222 0.829138038,9.96120449 C-1.52262482,6.53543377 1.55254989,1.10666799 4.76237402,0.414977421 C10.7569933,-1.6286139 18.587782,4.38530382 15.7890819,7.36060943 Z" stroke="#841717" stroke-width="2" stroke-linecap="round" stroke-linejoin="round"></path>
                            </g>
                        </g>
                        <g transform="translate(173.411330, 187.522182) rotate(11.607443) translate(-173.411330, -187.522182) translate(150.283570, 143.288261)" id="Vector">
                            <g transform="translate(29.404121, 80.388810) rotate(-0.000000) translate(-29.404121, -80.388810) translate(13.281708, 72.309769)" fill="#FFFEFA">
                                <path d="M11.2827188,0.18146776 C3.02821479,1.29301285 -0.723809442,6.48438932 0.0266461509,15.7555972 C13.75824,17.2402359 24.4976337,15.974973 32.2448273,11.9598084 C31.6342584,6.49216573 22.202005,-1.28849475 11.2827188,0.18146776 Z"></path>
                            </g>
                            <g transform="translate(23.127761, 45.329857) rotate(-0.000000) translate(-23.127761, -45.329857) translate(0.000001, 2.647439)">
                                <path d="M45.4657792,81.2889125 C45.8608401,62.9445964 47.2476304,45.4156167 45.020983,28.1660093 C43.4314627,16.210332 38.9859492,6.74513348 33.3720448,2.11225447 C21.2985694,-7.73519641 -3.62894639,19.0472422 0.444929951,37.1113378 C1.31383963,41.7267365 3.48811898,44.0437632 6.967768,44.0624179 C10.3168802,61.0187818 12.4124682,74.7862551 13.2545318,85.3648376" fill="#FFFDF9"></path>
                                <path d="M45.4657792,81.2889125 C45.8608401,62.9445964 47.2476304,45.4156167 45.020983,28.1660093 C43.4314627,16.210332 38.9859492,6.74513348 33.3720448,2.11225447 C21.2985694,-7.73519641 -3.62894639,19.0472422 0.444929951,37.1113378 C1.31383963,41.7267365 3.48811898,44.0437632 6.967768,44.0624179 C10.3168802,61.0187818 12.4124682,74.7862551 13.2545318,85.3648376" stroke="#5E7A8E" stroke-width="2" stroke-linecap="round" stroke-linejoin="round"></path>
                            </g>
                            <g transform="translate(33.222226, 5.513560) rotate(0.000000) translate(-33.222226, -5.513560) translate(28.176115, 0.000003)">
                                <path d="M8.95097654,10.969343 C6.40738524,10.3298811 0.784204825,4.66468568 0.0517804814,1.88977016 C-0.748765344,-1.33294299 7.99519086,-0.219521204 8.19006127,3.60780402 C8.818366,6.22337822 11.6391579,11.6450142 8.95097654,10.969343 Z" fill="#EE6464"></path>
                                <path d="M8.95097654,10.969343 C6.40738524,10.3298811 0.784204825,4.66468568 0.0517804814,1.88977016 C-0.748765344,-1.33294299 7.99519086,-0.219521204 8.19006127,3.60780402 C8.818366,6.22337822 11.6391579,11.6450142 8.95097654,10.969343 Z" stroke="#841717" stroke-width="2" stroke-linecap="round" stroke-linejoin="round"></path>
                            </g>
                            <g transform="translate(24.126643, 6.117445) rotate(0.000000) translate(-24.126643, -6.117445) translate(16.087612, 0.037008)">
                                <path d="M0.954819924,7.96191738 C2.25111135,9.26448509 12.3763825,13.7877551 14.6284308,11.5480565 C17.5915618,8.63184003 15.585135,1.32309453 12.4391886,0.41975836 C8.22530657,-1.51147636 -3.38303614,3.6038292 0.954819924,7.96191738 Z" fill="#EE6464"></path>
                                <path d="M0.954819924,7.96191738 C2.25111135,9.26448509 12.3763825,13.7877551 14.6284308,11.5480565 C17.5915618,8.63184003 15.585135,1.32309453 12.4391886,0.41975836 C8.22530657,-1.51147636 -3.38303614,3.6038292 0.954819924,7.96191738 Z" stroke="#841717" stroke-width="2" stroke-linecap="round" stroke-linejoin="round"></path>
                            </g>
                        </g>
                    </g>
                </g>
            </g>
        </g>
    </g>
</svg>