<?xml version="1.0" encoding="UTF-8"?>
<svg width="48px" height="42px" viewBox="0 0 48 42" version="1.1" xmlns="http://www.w3.org/2000/svg" xmlns:xlink="http://www.w3.org/1999/xlink">
    <title>download-2 3</title>
    <defs>
        <rect id="path-1" x="0" y="0" width="48" height="42"></rect>
    </defs>
    <g id="Page-1" stroke="none" stroke-width="1" fill="none" fill-rule="evenodd">
        <g id="index" transform="translate(-510.000000, -1897.000000)">
            <g id="Frame-415" transform="translate(0.000000, 1565.000000)">
                <g id="Group-4" transform="translate(160.000000, -90.000000)">
                    <g id="Frame-36" transform="translate(0.000000, 422.000000)">
                        <g id="download-2-3" transform="translate(350.000000, 0.000000)">
                            <mask id="mask-2" fill="white">
                                <use xlink:href="#path-1"></use>
                            </mask>
                            <g id="Clip" fill-rule="nonzero"></g>
                            <g id="Group" mask="url(#mask-2)" fill-rule="nonzero" stroke="#29193E" stroke-linecap="round" stroke-linejoin="round" stroke-width="2">
                                <g transform="translate(19.142580, 4.200000)" id="Vector">
                                    <path d="M0,0 L26.7544212,0 L26.7544212,23.9070606 L0,23.9070606 L0,0 Z"></path>
                                    <line x1="8.97011948" y1="23.382719" x2="8.97011948" y2="7.37508011"></line>
                                    <line x1="17.6508007" y1="23.38272" x2="17.6508007" y2="7.38078022"></line>
                                    <line x1="3.81469818e-07" y1="6.92124033" x2="26.7544216" y2="6.92124033"></line>
                                    <line x1="3.81469818e-07" y1="15.4721994" x2="26.7544216" y2="15.4721994"></line>
                                </g>
                            </g>
                            <path d="M26.4248402,25.1697008 C26.4248402,32.1353481 20.7780673,37.7821188 13.8124201,37.7821188 C6.84677292,37.7821188 1.20000005,32.1353481 1.20000005,25.1697008 C1.20000005,18.2040535 6.84677292,12.5572805 13.8124201,12.5572805 C20.7780673,12.5572805 26.4248402,18.2040535 26.4248402,25.1697008 Z" id="Vector" fill="#FFFFFF" fill-rule="nonzero" mask="url(#mask-2)"></path>
                            <path d="M16.4861403,20.4174595 L12.4851599,25.4671812 L18.8712606,31.0542603" id="Vector" stroke="#29193E" stroke-width="2.84772992" stroke-linecap="round" stroke-linejoin="round" fill-rule="nonzero" mask="url(#mask-2)"></path>
                            <path d="M5.14868367,25.1698204 C5.14868367,25.7248169 4.69877042,26.1747307 4.14377394,26.1747307 C3.58877746,26.1747307 3.13886392,25.7248169 3.13886392,25.1698204 C3.13886392,24.614824 3.58877746,24.1649102 4.14377394,24.1649102 C4.69877042,24.1649102 5.14868367,24.614824 5.14868367,25.1698204 Z" id="Vector" fill="#29193E" fill-rule="nonzero" mask="url(#mask-2)" transform="translate(4.143774, 25.169820) rotate(-90.000000) translate(-4.143774, -25.169820) "></path>
                            <path d="M24.4851898,25.1699395 C24.4851898,25.724936 24.035276,26.1748475 23.4802796,26.1748475 C22.9252831,26.1748475 22.4753693,25.724936 22.4753693,25.1699395 C22.4753693,24.614943 22.9252831,24.1650292 23.4802796,24.1650292 C24.035276,24.1650292 24.4851898,24.614943 24.4851898,25.1699395 Z" id="Vector" fill="#29193E" fill-rule="nonzero" mask="url(#mask-2)" transform="translate(23.480280, 25.169938) rotate(-90.000000) translate(-23.480280, -25.169938) "></path>
                            <path d="M14.8172698,15.5015399 C14.8172698,16.0565363 14.367356,16.5064502 13.8123595,16.5064502 C13.257363,16.5064502 12.8074503,16.0565363 12.8074503,15.5015399 C12.8074503,14.9465434 13.257363,14.4966307 13.8123595,14.4966307 C14.367356,14.4966307 14.8172698,14.9465434 14.8172698,15.5015399 Z" id="Vector" fill="#29193E" fill-rule="nonzero" mask="url(#mask-2)"></path>
                            <path d="M14.8172698,34.8379791 C14.8172698,35.3929755 14.367356,35.8428893 13.8123595,35.8428893 C13.257363,35.8428893 12.8074503,35.3929755 12.8074503,34.8379791 C12.8074503,34.2829826 13.257363,33.8330688 13.8123595,33.8330688 C14.367356,33.8330688 14.8172698,34.2829826 14.8172698,34.8379791 Z" id="Vector" fill="#29193E" fill-rule="nonzero" mask="url(#mask-2)"></path>
                        </g>
                    </g>
                </g>
            </g>
        </g>
    </g>
</svg>