<?xml version="1.0" encoding="utf-8"?>
<!-- Generator: Adobe Illustrator 25.4.1, SVG Export Plug-In . SVG Version: 6.00 Build 0)  -->
<svg version="1.1" id="图层_1" xmlns="http://www.w3.org/2000/svg" xmlns:xlink="http://www.w3.org/1999/xlink" x="0px" y="0px"
	 viewBox="0 0 28 23" style="enable-background:new 0 0 28 23;" xml:space="preserve">
<style type="text/css">
	.st0{fill:#CCFD0A;}
</style>
<g id="Page-1">
	<g id="icon_twitter_hover">
		<g>
			<path id="twitter" class="st0" d="M27.2,2.6c-1,0.4-2.1,0.7-3.2,0.9c1.2-0.7,2-1.8,2.5-3.1c-1.1,0.6-2.3,1.1-3.5,1.3
				c-1.6-1.7-4-2.2-6.1-1.4s-3.5,2.9-3.5,5.2c0,0.4,0,0.9,0.1,1.3C8.9,6.6,4.7,4.5,1.9,1C0.4,3.6,1.2,6.8,3.6,8.5
				c-0.9,0-1.7-0.3-2.5-0.7v0.1c0,2.7,1.9,4.9,4.5,5.5c-0.5,0.1-1,0.2-1.5,0.2c-0.4,0-0.7,0-1.1-0.1c0.7,2.3,2.8,3.8,5.2,3.9
				c-2,1.5-4.4,2.4-6.9,2.4c-0.4,0-0.9,0-1.3-0.1c4.9,3.1,11.1,3.3,16.2,0.6s8.2-8.1,8.2-13.9c0-0.2,0-0.5,0-0.7
				C25.5,4.7,26.4,3.7,27.2,2.6z"/>
		</g>
	</g>
</g>
</svg>
