<?xml version="1.0" encoding="UTF-8"?>
<svg width="24px" height="24px" viewBox="0 0 24 24" version="1.1" xmlns="http://www.w3.org/2000/svg" xmlns:xlink="http://www.w3.org/1999/xlink">
    <title>服务地球</title>
    <defs>
        <filter color-interpolation-filters="auto" id="filter-1">
            <feColorMatrix in="SourceGraphic" type="matrix" values="0 0 0 0 0.800000 0 0 0 0 0.992157 0 0 0 0 0.039216 0 0 0 1.000000 0"></feColorMatrix>
        </filter>
    </defs>
    <g id="页面-1" stroke="none" stroke-width="1" fill="none" fill-rule="evenodd">
        <g id="服务地球" transform="translate(-1346.000000, -36.000000)" filter="url(#filter-1)">
            <g transform="translate(1346.000000, 36.000000)">
                <path d="M13.9404494,1.00587047 C13.4913971,0.952288383 13.0832416,1.27143595 13.0262591,1.72070001 C12.9692765,2.16996407 13.2847985,2.58116143 13.732968,2.64170349 C15.3671549,2.85190415 16.9219031,3.47185423 18.2530968,4.44408805 C15.2750812,5.12266193 14.3694088,7.17652284 14.1792176,8.95334751 C13.9033991,11.5217043 15.7287407,12.8689579 16.9365784,13.760256 C17.3605978,14.0735708 18.0011552,14.5468411 18.0307954,14.7678104 C18.0349121,14.7999664 18.0052719,14.9071531 17.862011,15.0877213 C16.291081,17.0706742 15.7056873,18.7164013 16.1239433,19.9820282 C16.2515607,20.3662511 16.5174991,20.8296271 17.0576092,21.2146745 C15.6444675,21.9610311 14.0708934,22.3510234 12.47326,22.3508529 C12.3958662,22.3508529 12.3201191,22.3417833 12.2427252,22.3401342 C13.2743685,20.6037107 12.9046894,19.2919111 12.3308225,18.4467857 C10.9393803,16.3986964 8.85962706,15.7638217 6.9009046,16.7928134 C6.76505374,16.866195 6.65390303,16.8365126 6.01581564,16.2354429 C5.38678497,15.6417938 4.38889863,14.7166907 2.92747267,14.9904288 C2.79820851,14.4957213 2.69611453,13.988646 2.64342086,13.4650805 C2.59624047,13.0125631 2.19322702,12.6829907 1.74104179,12.7271417 C1.28902892,12.7733144 0.958870151,13.1773256 1.00415377,13.6308075 C1.5883436,19.5301615 6.55344187,24.0190426 12.47326,23.9999393 C18.8294338,23.9999393 24,18.8219389 24,12.4567016 C24,6.65872892 19.6758258,1.73638864 13.9404494,1.00587047 Z M3.49557628,16.5875098 C3.96817262,16.605649 4.3477317,16.9280335 4.88701846,17.4359332 C5.50452239,18.0188637 6.439835,18.8961451 7.66578613,18.2530252 C9.29517316,17.3955321 10.4346737,18.5877774 10.9690205,19.3735379 C11.1781485,19.6810811 11.7124952,20.4709642 10.3918601,22.1241119 C7.34710409,21.4767354 4.78877897,19.4228135 3.49557628,16.5875098 L3.49557628,16.5875098 Z M18.6590027,20.1601229 C18.1188926,20.0051145 17.7887338,19.7717775 17.6858165,19.4625852 C17.4659851,18.7988526 18.0135053,17.5464179 19.1505358,16.113415 C19.5589118,15.5980946 19.7309895,15.0720556 19.6618291,14.5501391 C19.539975,13.6349301 18.7495699,13.0511752 17.9122346,12.4336152 C16.7957875,11.6091026 15.6406435,10.7573811 15.8151913,9.13061772 C15.9576289,7.80974852 16.5430226,6.08157009 19.8470803,5.88121353 C21.4606425,7.6903639 22.3527735,10.0309979 22.3533229,12.4567016 C22.3533229,15.5684122 20.9083637,18.3453706 18.6590027,20.1601229 L18.6590027,20.1601229 Z" id="形状" fill="#000000" fill-rule="nonzero"></path>
                <path d="M5.4616,13.7975037 C5.76681483,14.0674988 6.23318517,14.0674988 6.5384,13.7975037 C10.2136,10.5487905 12,7.94328667 12,5.83321747 C12,2.61639248 9.3088,0 6,0 C2.6912,0 0,2.61639248 0,5.83321747 C0,7.94328667 1.7864,10.5487905 5.4616,13.7975037 L5.4616,13.7975037 Z M6,1.55552466 C8.4264,1.55552466 10.4,3.47426433 10.4,5.83321747 C10.4,6.89952963 9.6192,8.85015755 6,12.1626473 C2.3808,8.85015755 1.6,6.89952963 1.6,5.83321747 C1.6,3.47426433 3.5736,1.55552466 6,1.55552466 Z" id="形状" fill="#000000" fill-rule="nonzero"></path>
                <path d="M4,6 C4,7.10456951 4.8954305,8 6,8 C7.1045695,8 8,7.10456951 8,6 C8,5.28546884 7.61880217,4.62521479 7,4.2679492 C6.38119785,3.9106836 5.61880215,3.9106836 5,4.2679492 C4.38119783,4.62521479 4,5.28546884 4,6 L4,6 Z" id="路径" fill="#000000" fill-rule="nonzero"></path>
            </g>
        </g>
    </g>
</svg>