<svg width="60" height="60" viewBox="0 0 60 60" fill="none" xmlns="http://www.w3.org/2000/svg">
<path d="M44.8968 29.6394C47.5867 33.1137 46.2239 34.0064 45.9904 38.3941C45.7569 42.7818 43.954 46.9394 40.9105 50.1087C37.867 53.2779 33.7858 55.2475 29.4111 55.6584C25.0364 56.0692 20.6598 54.8939 17.0795 52.3467C13.4992 49.7996 10.9537 46.0504 9.90737 41.7829C8.86102 37.5153 9.3835 33.0139 11.3795 29.0995C13.3756 25.1851 16.7121 22.1186 20.7807 20.4592C24.8492 18.7999 26.8356 20.0628 30.9999 21.4648L27.6983 37.4207L44.8968 29.6394Z" stroke="#29193E" stroke-width="2.84773" stroke-linecap="round" stroke-linejoin="round"/>
<path d="M48.289 24.796C49.8153 28.5795 50.0186 32.7676 48.8659 36.6812C47.7132 40.5947 45.2722 44.004 41.9388 46.3562C38.6054 48.7083 34.5751 49.8653 30.5016 49.6395C26.4281 49.4137 22.5503 47.8183 19.4973 45.1122C16.4443 42.406 14.3951 38.7478 13.682 34.7308C12.9689 30.7139 13.6339 26.5738 15.5689 22.9822C17.504 19.3906 20.5957 16.558 24.3426 14.944C28.0895 13.33 32.2718 13.0291 36.2111 14.0903L31.5034 31.5673L48.289 24.796Z" fill="#FCBF19"/>
<path d="M44.0925 4L38.7627 22.6286L56.7883 14.5574C53.5598 8.74614 47.0519 5.43488 44.0925 4Z" stroke="#29193E" stroke-width="2.84773" stroke-linecap="round" stroke-linejoin="round"/>
</svg>
