<?xml version="1.0" encoding="UTF-8"?>
<svg width="20px" height="23px" viewBox="0 0 20 23" version="1.1" xmlns="http://www.w3.org/2000/svg" xmlns:xlink="http://www.w3.org/1999/xlink">
    <title>icon_discord_hover</title>
    <defs>
        <filter color-interpolation-filters="auto" id="filter-1">
            <feColorMatrix in="SourceGraphic" type="matrix" values="0 0 0 0 1.000000 0 0 0 0 1.000000 0 0 0 0 1.000000 0 0 0 1.000000 0"></feColorMatrix>
        </filter>
    </defs>
    <g id="Page-1" stroke="none" stroke-width="1" fill="none" fill-rule="evenodd">
        <g filter="url(#filter-1)" id="icon_discord_hover">
            <g transform="translate(0.000596, 0.000589)">
                <path d="M12.7344043,14.4400003 C12.7344043,14.4400003 12.3344043,13.9600003 11.9974043,13.5500003 C12.8023166,13.3640538 13.5160517,12.9006216 14.0134043,12.2410003 C13.6119847,12.5073229 13.1815456,12.7270717 12.7304043,12.8960003 C12.2102836,13.1118839 11.669004,13.2727595 11.1154043,13.3760003 C10.1597919,13.5492853 9.1804185,13.5448783 8.22640429,13.3630003 C7.66585665,13.2603533 7.11755305,13.0994819 6.59040429,12.8830003 C6.31097127,12.7759791 6.03960351,12.6489843 5.77840429,12.5030003 C5.74340429,12.4810003 5.71340429,12.4680003 5.67840429,12.4460003 C5.66444914,12.4348439 5.64796552,12.4272889 5.63040429,12.4240003 C5.43040429,12.3110003 5.31640429,12.2360003 5.31640429,12.2360003 C5.79795212,12.8807347 6.48696129,13.3398387 7.26740429,13.5360003 C6.93140429,13.9590003 6.52140429,14.4480003 6.52140429,14.4480003 C5.17989485,14.4851264 3.9069091,13.8561217 3.12140429,12.7680003 C3.15887152,10.5308099 3.70825141,8.33192204 4.72740429,6.34000033 C5.62372119,5.6428821 6.71324779,5.23919853 7.84740429,5.18400033 L7.96040429,5.31900033 C6.89121266,5.5747471 5.89346204,6.06832432 5.04140429,6.76300033 C5.04140429,6.76300033 5.28540429,6.62800033 5.70040429,6.45300033 C6.50341236,6.09189263 7.35696293,5.8558257 8.23140429,5.75300033 C8.2931443,5.73920163 8.35614651,5.73182903 8.41940429,5.73100033 C9.16653079,5.63422008 9.92252965,5.62683465 10.6714043,5.70900033 C11.2577444,5.77622678 11.8363541,5.89911435 12.3994043,6.07600033 C12.9629294,6.25287648 13.5081123,6.48360805 14.0274043,6.76500033 C13.2129319,6.10561726 12.2667265,5.62825238 11.2524043,5.36500033 L11.4094043,5.18600033 C12.5439313,5.23938294 13.6339893,5.64326339 14.5294043,6.34200033 C15.5485572,8.33392204 16.0979371,10.5328099 16.1354043,12.7700003 C15.3451932,13.851901 14.0736682,14.4762605 12.7344043,14.4400003 Z M19.1444043,2.32600033 C19.1444481,2.25147637 19.1401073,2.17701438 19.1314043,2.10300033 C19.1240269,2.02805691 19.1123409,1.95360038 19.0964043,1.88000033 C19.0815058,1.80632263 19.0624758,1.73354106 19.0394043,1.66200033 C19.0169012,1.59094543 18.9905285,1.52117455 18.9604043,1.45300033 C18.9294043,1.38300033 18.8994043,1.31800033 18.8604043,1.25300033 C18.8252588,1.18651909 18.7858429,1.12238476 18.7424043,1.06100033 C18.6984043,1 18.6554043,0.939000328 18.6074043,0.882000328 C18.5599081,0.823537285 18.5088087,0.768096142 18.4544043,0.716000328 C18.4022555,0.663207123 18.3468109,0.613774564 18.2884043,0.568000328 C18.2316531,0.520483434 18.1718592,0.476723641 18.1094043,0.437000328 C18.0484043,0.398000328 17.9824043,0.358000328 17.9174043,0.324000328 C17.8524043,0.290000328 17.7824043,0.259000328 17.7174043,0.224000328 C17.6491595,0.195488151 17.5793857,0.170783534 17.5084043,0.150000328 C17.4384043,0.128000328 17.3644043,0.111000328 17.2904043,0.0930003281 C17.2164043,0.0750003281 17.1424043,0.0670003281 17.0674043,0.0580003281 C16.9933902,0.0492973644 16.9189282,0.0449565311 16.8444043,0.0450003281 L2.28240429,8.8817842e-16 C2.20788033,8.8817842e-16 2.13341835,0.00429736442 2.05940429,0.0130003281 C1.91031826,0.030186028 1.76284723,0.0592789517 1.61840429,0.100000328 C1.54440429,0.122000328 1.47840429,0.148000328 1.40940429,0.174000328 C1.34040429,0.200000328 1.27440429,0.235000328 1.20940429,0.274000328 C1.14440429,0.313000328 1.07840429,0.348000328 1.01740429,0.387000328 C0.954910245,0.428123559 0.895120628,0.473216286 0.83840429,0.522000328 C0.78140429,0.570000328 0.72540429,0.622000328 0.67240429,0.670000328 C0.619611085,0.722149077 0.570178526,0.777593704 0.52440429,0.836000328 C0.48040429,0.893000328 0.43240429,0.954000328 0.38940429,1.01500033 C0.347497845,1.07417271 0.309420074,1.13596559 0.27540429,1.20000033 C0.24040429,1.26500033 0.21040429,1.33500033 0.17540429,1.40000033 C0.146892113,1.46824512 0.122187496,1.53801897 0.10140429,1.60900033 C0.0794042898,1.67900033 0.0624042898,1.75300033 0.0444042898,1.82700033 C0.0284698618,1.90060078 0.0167838793,1.97505719 0.00940428983,2.05000033 C0.00183932664,2.12575139 -0.00116609154,2.20188866 0.000404289828,2.27800033 L0.000404289828,17.3000003 C0.00501468154,17.8979663 0.250017349,18.4689312 0.680220729,18.884274 C1.11042411,19.2996169 1.68964555,19.5244049 2.28740429,19.5080003 L14.7284043,19.5080003 L14.1284043,17.4830003 L19.1464043,22.0830003 L19.1464043,2.32600033 L19.1444043,2.32600033 Z M11.6164043,9.29500033 C11.1143388,9.2596661 10.6417516,9.53502079 10.4249173,9.98922459 C10.208083,10.4434284 10.2911322,10.9840408 10.6343009,11.3522166 C10.9774697,11.7203924 11.5109156,11.8411996 11.9792247,11.6567959 C12.4475339,11.4723921 12.755395,11.0203076 12.7554043,10.5170003 C12.767823,10.2035351 12.6544822,9.89810132 12.4405853,9.66861759 C12.2266885,9.43913386 11.9299677,9.30462459 11.6164043,9.29500033 L11.6164043,9.29500033 Z M7.54940429,9.29500033 C7.04733885,9.2596661 6.5747516,9.53502079 6.35791728,9.98922459 C6.14108296,10.4434284 6.22413216,10.9840408 6.56730092,11.3522166 C6.91046968,11.7203924 7.44391557,11.8411996 7.91222473,11.6567959 C8.38053389,11.4723921 8.68839504,11.0203076 8.68840429,10.5170003 C8.70082297,10.2035351 8.58748219,9.89810132 8.37358533,9.66861759 C8.15968847,9.43913386 7.86296772,9.30462459 7.54940429,9.29500033 L7.54940429,9.29500033 Z" id="logo-discord" fill="#C19977" fill-rule="nonzero"></path>
            </g>
        </g>
    </g>
</svg>