<?xml version="1.0" encoding="UTF-8"?>
<svg width="28px" height="23px" viewBox="0 0 28 23" version="1.1" xmlns="http://www.w3.org/2000/svg" xmlns:xlink="http://www.w3.org/1999/xlink">
    <title>icon_twitter_hover</title>
    <defs>
        <filter color-interpolation-filters="auto" id="filter-1">
            <feColorMatrix in="SourceGraphic" type="matrix" values="0 0 0 0 1.000000 0 0 0 0 1.000000 0 0 0 0 1.000000 0 0 0 1.000000 0"></feColorMatrix>
        </filter>
    </defs>
    <g id="Page-1" stroke="none" stroke-width="1" fill="none" fill-rule="evenodd">
        <g filter="url(#filter-1)" id="icon_twitter_hover">
            <g>
                <path d="M27.191,2.62458955 C26.1703256,3.07059058 25.0887013,3.36147304 23.982,3.48758955 C25.1458443,2.79623925 26.0173675,1.70390175 26.433,0.415589548 C25.3409198,1.06511501 24.1445601,1.52051664 22.897,1.76158955 C21.3320824,0.0931325898 18.9068791,-0.450285752 16.779631,0.390862973 C14.6523828,1.2320117 13.2546624,3.28707662 13.254,5.57458955 C13.2566655,6.0041075 13.3025635,6.43226614 13.391,6.85258955 C8.9074572,6.62521704 4.73114062,4.50543651 1.901,1.02058955 C0.416255337,3.57172393 1.17174943,6.83764825 3.626,8.47758955 C2.74224173,8.44276173 1.87917981,8.19984355 1.107,7.76858955 L1.107,7.83758955 C1.10326193,10.4920805 2.97230472,12.7807898 5.574,13.3075895 C5.09490737,13.4322161 4.6020345,13.496051 4.107,13.4975895 C3.75475857,13.4943006 3.40320015,13.4658952 3.055,13.4125895 C3.78753193,15.6814501 5.88022232,17.2345968 8.264,17.2785895 C6.29088824,18.82687 3.85404982,19.6659201 1.346,19.6605895 C0.896365184,19.6641547 0.446913257,19.6411145 0,19.5915895 C4.88242779,22.7142399 11.0790868,22.926067 16.1633579,20.1441192 C21.247629,17.3621713 24.4103517,12.0291947 24.413,6.23358955 C24.413,5.99158955 24.413,5.74958955 24.397,5.50858955 C25.4837058,4.71100771 26.4282602,3.73602746 27.191,2.62458955 Z" id="twitter" fill="#C19977" fill-rule="nonzero"></path>
            </g>
        </g>
    </g>
</svg>