<svg width="60" height="60" viewBox="0 0 60 60" fill="none" xmlns="http://www.w3.org/2000/svg">
<path d="M41.3907 35.0246C50.0429 35.0246 57.0568 28.0106 57.0568 19.3585C57.0568 10.7063 50.0429 3.69238 41.3907 3.69238C32.7386 3.69238 25.7246 10.7063 25.7246 19.3585C25.7246 28.0106 32.7386 35.0246 41.3907 35.0246Z" stroke="#29193E" stroke-width="2.84773" stroke-linecap="round" stroke-linejoin="round"/>
<path d="M44.1976 14.1594C42.2376 11.9571 37.9872 13.0582 38.0092 15.7009C38.0313 18.3436 44.9449 18.9052 44.9449 22.3498C44.9449 25.7944 39.0125 25.9858 37.9121 23.211" stroke="#29193E" stroke-width="2.84773" stroke-linecap="round" stroke-linejoin="round"/>
<path d="M41.0459 12.9824V10.545" stroke="#29193E" stroke-width="2.84773" stroke-linecap="round" stroke-linejoin="round"/>
<path d="M41.0459 27.7638V25.7007" stroke="#29193E" stroke-width="2.84773" stroke-linecap="round" stroke-linejoin="round"/>
<path d="M20.7775 56.7596C31.2332 56.7596 39.7093 48.2835 39.7093 37.8278C39.7093 27.3721 31.2332 18.896 20.7775 18.896C10.3218 18.896 1.8457 27.3721 1.8457 37.8278C1.8457 48.2835 10.3218 56.7596 20.7775 56.7596Z" fill="#FCBF19"/>
<path d="M38.0003 37.8356C38.0003 43.1353 35.6662 47.7809 31.8325 51.0058C28.8556 53.4865 25.0331 54.9862 20.8498 54.9862C11.3781 54.9862 3.69922 47.3073 3.69922 37.8356C3.69922 28.3639 11.3668 20.6851 20.8385 20.6851C30.3102 20.6851 38.0003 28.3639 38.0003 37.8356Z" fill="white"/>
<path d="M34.5608 27.5293C34.2676 27.1346 33.9519 26.7625 33.6249 26.4017C33.467 26.2213 33.2979 26.0409 33.1287 25.8605C33.0724 25.8041 33.016 25.7477 32.9596 25.6913C32.3845 25.1163 31.7644 24.5863 31.1104 24.0902C30.9412 23.9661 30.7834 23.8421 30.6142 23.7293C30.3549 23.5489 30.0955 23.3798 29.8362 23.2219C29.5768 23.0641 29.3062 22.9062 29.0243 22.7596C28.7199 22.5905 28.4154 22.4439 28.0997 22.2973C27.8516 22.1733 27.5923 22.0718 27.333 21.959C27.006 21.8237 26.679 21.6997 26.352 21.5869C26.2166 21.5418 26.0813 21.4967 25.946 21.4516C25.8107 21.4065 25.6754 21.3727 25.5401 21.3276C25.3371 21.2712 25.1342 21.2148 24.9199 21.1697C24.7846 21.1359 24.638 21.1021 24.5027 21.0682C23.3188 20.8089 22.101 20.6736 20.8381 20.6736C19.5752 20.6736 18.3574 20.8089 17.1734 21.0682C17.0381 21.1021 16.8915 21.1246 16.7562 21.1697C16.5532 21.2148 16.3503 21.2712 16.136 21.3276C16.0007 21.3614 15.8654 21.4065 15.7301 21.4516C15.5948 21.4967 15.4595 21.5418 15.3242 21.5869C14.9972 21.6997 14.6589 21.8237 14.3432 21.959C14.0838 22.0605 13.8245 22.1733 13.5764 22.2973C13.2607 22.4439 12.9562 22.6018 12.6518 22.7596C12.3812 22.9062 12.1106 23.0641 11.8512 23.2219C11.6708 23.3347 11.5017 23.4474 11.3325 23.5602C11.0732 23.7293 10.8251 23.9098 10.577 24.1014C10.4981 24.1691 10.4079 24.2255 10.329 24.2931C10.002 24.5412 9.68625 24.8118 9.3818 25.0824C9.22394 25.2178 9.07736 25.3643 8.93077 25.4996C8.86311 25.5673 8.78418 25.6462 8.71653 25.7139C7.93849 26.4806 7.23939 27.3376 6.61922 28.251C6.54029 28.3637 6.46136 28.4765 6.3937 28.5892C4.67977 31.2616 3.6875 34.4301 3.6875 37.8354C3.6875 37.9369 3.6875 38.0384 3.6875 38.1399C3.6875 38.185 3.6875 38.2301 3.6875 38.2639V38.2752C3.6875 38.3767 3.69878 38.4669 3.69878 38.5571C3.69878 38.5684 3.69878 38.5796 3.69878 38.5796C3.69878 38.6811 3.71005 38.7826 3.71005 38.8841C3.71005 38.9066 3.71005 38.9405 3.71005 38.963C3.72133 39.0645 3.72133 39.1772 3.7326 39.2787C3.7326 39.29 3.7326 39.29 3.7326 39.3013C3.74388 39.3915 3.74388 39.4817 3.75516 39.5719C3.75516 39.6057 3.76643 39.6396 3.76643 39.6847C3.77771 39.7974 3.78898 39.8989 3.80026 40.0117C3.81153 40.1357 3.83409 40.2597 3.85664 40.3725C3.86791 40.474 3.89047 40.5867 3.90174 40.6882C3.91302 40.7333 3.91302 40.7897 3.92429 40.8348C3.93557 40.9137 3.95812 40.9927 3.9694 41.0829C3.99195 41.1844 4.0145 41.2858 4.03705 41.3986C4.07088 41.5339 4.09343 41.6692 4.12726 41.8045C4.14981 41.8947 4.17236 41.9962 4.19491 42.0864C4.20619 42.1315 4.21746 42.1653 4.22874 42.2105C4.25129 42.3007 4.27384 42.3909 4.2964 42.4811C4.31895 42.5713 4.3415 42.6502 4.37533 42.7404C4.3866 42.7742 4.39788 42.8194 4.40915 42.8532C4.44298 42.9434 4.46553 43.0449 4.49936 43.1351C4.49936 43.1464 4.51064 43.1689 4.51064 43.1802C4.54446 43.2817 4.57829 43.3831 4.61212 43.4846C4.64595 43.5974 4.69105 43.7101 4.72488 43.8116C4.80381 44.0146 4.88274 44.2288 4.97295 44.4318C5.01805 44.5333 5.05188 44.6235 5.09698 44.725C5.10826 44.7588 5.13081 44.8039 5.14208 44.8377C5.15336 44.8603 5.15336 44.8716 5.16464 44.8941C5.19846 44.9618 5.23229 45.0407 5.26612 45.1083C5.31122 45.2098 5.3676 45.3226 5.4127 45.4241C5.46908 45.5256 5.51419 45.627 5.57057 45.7398C5.61567 45.83 5.67205 45.9315 5.71715 46.0217C5.71715 46.033 5.72843 46.0442 5.72843 46.0442C5.78481 46.1457 5.84119 46.2472 5.89757 46.3487C5.89757 46.36 5.90884 46.3712 5.92012 46.3825C5.96522 46.4727 6.0216 46.5629 6.07798 46.6531C6.20201 46.8561 6.32605 47.0703 6.46136 47.2733C6.51774 47.3522 6.56284 47.4312 6.61922 47.5101C6.69815 47.6229 6.77708 47.7356 6.85601 47.8484C6.91239 47.9273 6.96877 48.0062 7.02515 48.0852C7.03643 48.0964 7.03643 48.1077 7.0477 48.1077C7.10408 48.1867 7.16046 48.2543 7.21684 48.3332C7.29577 48.4347 7.3747 48.5249 7.45363 48.6264C7.52129 48.7166 7.60022 48.8068 7.66787 48.897C7.74681 48.9872 7.81446 49.0774 7.89339 49.1564C8.11891 49.4157 8.3557 49.6638 8.59249 49.9119C8.66015 49.9795 8.7278 50.0472 8.80674 50.1261C8.81801 50.1374 8.82929 50.1487 8.84056 50.1599C8.91949 50.2389 8.99842 50.3065 9.07736 50.3854C9.08863 50.3967 9.09991 50.408 9.11118 50.4193C9.19011 50.4982 9.26905 50.5659 9.34798 50.6335C9.43818 50.7124 9.51711 50.7801 9.60732 50.859C9.77646 51.0056 9.95687 51.1522 10.1373 51.2988C10.2275 51.3664 10.3177 51.4454 10.4079 51.513C10.4981 51.5807 10.5883 51.6483 10.6898 51.716C10.6898 51.716 10.7011 51.716 10.7011 51.7273L10.9717 51.919C11.0619 51.9866 11.1634 52.0543 11.2536 52.1107C11.4002 52.2121 11.5468 52.3023 11.6934 52.3925C11.8399 52.4828 11.9865 52.573 12.1331 52.6632C12.3812 52.8098 12.618 52.9451 12.8773 53.0691C12.9562 53.1142 13.0465 53.148 13.1254 53.1931C14.3657 53.8471 16.0346 54.3545 16.4179 54.4335C16.5532 54.456 16.6998 54.3884 16.7224 54.2418C16.8013 53.881 16.9479 53.1931 17.0494 52.7646C17.523 50.859 18.0529 48.7279 17.4666 46.1006C17.4553 46.0555 17.444 45.9991 17.4328 45.9428C17.4102 45.8751 17.3989 45.8074 17.3764 45.7398C17.3087 45.7398 17.2523 45.7398 17.1847 45.7285C17.117 45.7285 17.0494 45.7172 16.993 45.706C16.6886 45.6609 16.4405 45.5594 16.2826 45.379C16.0007 45.0407 16.0233 44.5897 16.2262 44.1837C16.4969 44.2401 16.7675 44.2627 17.0494 44.2739C17.117 44.2739 17.1847 44.2739 17.2523 44.2739C17.32 44.2739 17.3989 44.2739 17.4666 44.2739C18.3236 44.2514 19.0565 44.0822 19.1129 44.071C19.2031 44.0484 19.2707 43.9469 19.2482 43.8567C19.2256 43.7552 19.1241 43.6989 19.0339 43.7214C19.0227 43.7214 18.4814 43.8455 17.7936 43.9018C17.7034 43.9131 17.6244 43.9131 17.523 43.9131C17.444 43.9131 17.3651 43.9244 17.2862 43.9244C17.0043 43.9244 16.7111 43.9131 16.4405 43.868C16.3728 43.8567 16.3052 43.8455 16.2375 43.8342C16.1699 43.8229 16.1135 43.8003 16.0571 43.7891C15.7752 43.7101 15.5271 43.5974 15.3242 43.417C14.0387 42.3458 13.2945 38.8841 12.7984 36.6064C12.539 35.4111 12.3586 34.5542 12.1557 34.2272C12.1557 34.2272 12.1444 34.1933 12.1218 34.1482C12.3361 33.5957 12.4827 33.0432 12.539 32.7951C12.5616 32.6936 12.5052 32.6034 12.4037 32.5809C12.3699 32.5696 12.3361 32.5809 12.3022 32.5922C12.2459 32.6147 12.2008 32.6598 12.1895 32.7162C12.1218 33.0206 12.0204 33.3476 11.9189 33.6746C11.8963 33.7536 11.8625 33.8438 11.8287 33.9227C11.7948 34.0129 11.761 34.0918 11.7272 34.1708C11.5693 34.5316 11.4002 34.836 11.2085 35.0052C10.2951 35.8622 9.2916 35.8283 8.89694 35.7719C8.51356 35.7156 8.3106 35.6028 8.26549 35.5464C8.29932 35.49 8.45718 35.3773 8.58122 35.2984C9.0097 35.0165 9.72008 34.5316 10.2388 33.4378C10.6334 32.6034 10.9717 32.1298 11.2423 31.8705C11.31 31.8028 11.3664 31.7577 11.434 31.7126C11.5017 31.6675 11.558 31.6337 11.6144 31.6224C11.7046 31.5886 11.7723 31.5886 11.8399 31.5886C11.8738 31.5886 11.8963 31.5886 11.9189 31.5773C11.9752 31.5548 12.0316 31.4984 12.0316 31.4195C12.0429 31.318 11.964 31.2278 11.8738 31.2278C11.8061 31.2165 11.7385 31.2165 11.6708 31.2278C11.6934 31.115 11.7159 31.0023 11.7497 30.8895C11.8963 30.3934 12.1444 29.9536 12.4939 29.559C12.5278 29.6041 12.5841 29.6266 12.6292 29.6266C12.6744 29.6266 12.7195 29.6041 12.7646 29.5702C12.8209 29.5138 12.8322 29.4236 12.7871 29.356C12.7871 29.3447 12.7758 29.3334 12.7533 29.3222C12.7533 29.3109 12.742 29.3109 12.742 29.3109C12.6969 29.2658 12.6631 29.232 12.6292 29.1868C12.5841 29.1417 12.5503 29.0854 12.5165 29.029C12.2233 28.5892 12.1782 28.0931 12.2684 27.7661C12.3135 27.6195 12.3925 27.5067 12.4601 27.4842C12.4714 27.4842 12.4827 27.4842 12.4827 27.4842C12.5052 27.5406 12.4939 27.6984 12.4939 27.8112C12.4827 28.0705 12.4827 28.3863 12.5954 28.6794C12.6292 28.7584 12.7082 28.8035 12.7984 28.7922C12.8548 28.7809 12.9111 28.7358 12.9337 28.6907C12.945 28.6682 12.945 28.6456 12.945 28.6231C12.945 28.1946 13.7005 27.4729 14.1402 27.3714C14.2642 27.3489 14.2755 27.3827 14.2868 27.394C14.3883 27.6082 14.2417 27.7548 13.8921 28.0254C13.8019 28.0931 13.7005 28.172 13.6102 28.2622C13.4862 28.375 13.3847 28.499 13.3284 28.6456C13.2945 28.7245 13.2832 28.8035 13.2832 28.8824C13.2832 28.9162 13.2832 28.9501 13.2945 28.9952C13.2945 29.0177 13.3058 29.0403 13.3171 29.0628C13.3509 29.1192 13.4186 29.1643 13.4975 29.153C13.599 29.1417 13.6666 29.0515 13.6554 28.9501C13.6328 28.8147 13.7005 28.6907 13.8358 28.5667C15.2227 27.8337 16.4969 27.7097 17.6132 28.2059C17.7259 28.251 17.8274 28.3073 17.9289 28.3637C18.0304 28.4201 18.1206 28.4765 18.2221 28.5441C18.6054 28.8035 18.955 29.1417 19.282 29.559C19.4173 29.7168 19.6315 29.8972 19.6654 29.9311C19.7105 29.9649 19.7556 29.9987 19.8232 30.0551C20.1841 30.3483 20.8042 30.9346 21.4131 31.4984C21.7852 31.8367 22.1912 32.2201 22.5971 32.5922C22.5858 32.626 22.5745 32.6711 22.552 32.7049C22.5069 32.8402 22.4505 32.9981 22.4054 33.1672C22.3265 33.4153 22.2363 33.6972 22.1348 34.0467L22.1235 34.1031L22.1461 34.1595C22.3716 34.8248 23.2285 35.5013 24.1306 35.7156C24.3336 35.7607 24.5253 35.7832 24.7057 35.7832C25.1454 35.7832 25.5514 35.6592 25.8784 35.4111C25.9235 35.3773 25.9799 35.3322 26.025 35.2871C26.0475 35.2645 26.0588 35.2533 26.0813 35.2307L26.0926 35.2194C26.1039 35.2082 26.1152 35.1856 26.1377 35.163C26.1715 35.1067 26.2279 35.0277 26.273 34.9375C26.3294 34.9714 26.3858 35.0165 26.4422 35.0503C26.8594 35.3209 27.2766 35.7832 27.3668 35.9636C27.4006 36.0764 27.4006 36.2004 27.3781 36.3245C27.3781 36.347 27.3668 36.3696 27.3555 36.3921C27.333 36.4598 27.2991 36.5274 27.254 36.5951C27.2315 36.6402 27.1976 36.6853 27.1638 36.7304C26.9496 36.9897 26.6226 37.2153 26.2392 37.3506C26.1715 37.3731 26.1152 37.3957 26.0475 37.4069C25.9911 37.4182 25.946 37.4295 25.8896 37.4408C25.8896 37.4408 25.8896 37.4408 25.8784 37.4408C25.7431 37.4633 24.4238 37.7114 22.7211 37.8354C22.1122 37.8805 21.4582 37.9031 20.793 37.9031C20.4998 37.9031 20.1953 37.8918 19.9022 37.8805C19.4511 37.858 19.0001 37.8242 18.5716 37.7678H18.5603C18.2108 37.7227 17.8725 37.655 17.5568 37.5761C17.523 37.5761 17.5004 37.5648 17.4779 37.5535H17.4666C16.3052 37.1589 15.6625 37.4746 15.3242 37.8016C14.8055 38.309 14.6815 39.1998 14.9746 40.147C15.2791 41.0941 16.0458 42.1541 17.3538 42.684C17.4215 42.7179 17.5004 42.7404 17.5681 42.763C17.647 42.7855 17.7147 42.8081 17.7936 42.8306C17.9627 42.8757 18.1431 42.9208 18.3236 42.9434C18.3799 42.9547 18.4476 42.9659 18.504 42.9659C18.6054 42.9772 18.7069 42.9885 18.8197 42.9998C18.9324 43.011 19.0565 43.0223 19.1692 43.0336C19.3948 43.0449 19.6203 43.0561 19.8571 43.0561H19.8909C20.8944 43.0561 21.9544 42.9321 22.9579 42.7066C23.9953 42.4698 24.9763 42.1428 25.7994 41.7369C25.9122 41.6805 26.025 41.6241 26.1377 41.5565C26.2392 41.5001 26.3294 41.4437 26.4196 41.3873C26.5887 41.2858 26.7466 41.1731 26.8932 41.0716C27.2089 40.8348 27.4683 40.5867 27.6487 40.3274C27.6825 40.3612 27.7051 40.4176 27.7163 40.4627V40.474C27.7276 40.5078 27.7276 40.5416 27.7276 40.5755C27.7276 40.8348 27.5585 41.1618 27.2991 41.4888C27.254 41.5452 27.2089 41.6016 27.1638 41.6467C27.1187 41.703 27.0623 41.7594 27.0172 41.8045C26.6902 42.1428 26.2843 42.4472 25.8784 42.6502C25.7882 42.6953 25.7543 42.7968 25.7882 42.8757V42.887C25.822 42.9547 25.8896 42.9885 25.9573 42.9885C25.9799 42.9885 26.0137 42.9885 26.0362 42.9659C26.5324 42.7291 27.0511 42.3232 27.4457 41.8722C27.4908 41.8158 27.5359 41.7707 27.581 41.7143C27.6261 41.6579 27.66 41.6128 27.6938 41.5565C27.9419 41.2182 28.0997 40.8574 28.0997 40.5529C28.0997 40.4401 28.0772 40.3387 28.0433 40.2485C28.0772 40.2034 28.0772 40.2034 28.1223 40.1695C28.4944 40.3048 28.7875 40.5416 28.9567 40.8461C29.0807 41.0829 29.1033 41.3197 29.0131 41.4775C29.0131 41.4888 29.0018 41.5001 29.0018 41.5114C28.9341 41.7143 28.8214 41.8835 28.6748 42.0526C28.6297 42.0977 28.5958 42.1428 28.5507 42.1879C28.5056 42.233 28.4605 42.2668 28.4154 42.3119C28.4605 42.357 28.5169 42.4021 28.562 42.4585C28.5958 42.4924 28.6297 42.5262 28.6635 42.5713C29.7122 43.8116 31.3359 47.3522 31.4261 50.859C31.4261 51.0394 31.6403 51.1297 31.7756 51.0169C31.7756 51.0169 32.0124 50.8139 32.1252 50.7124C32.2943 50.5659 32.4522 50.408 32.6213 50.2614C32.6777 50.205 32.7454 50.1486 32.8017 50.0923C32.8581 50.0359 32.9145 49.9795 32.9709 49.9344C33.0273 49.878 33.0836 49.8217 33.1287 49.7653C33.1851 49.7089 33.2302 49.6525 33.2866 49.5961C33.343 49.5398 33.3881 49.4834 33.4445 49.427C33.4896 49.3706 33.5347 49.3255 33.5911 49.2691C33.7827 49.0436 33.9744 48.8294 34.1661 48.5926C34.2112 48.5362 34.2563 48.4911 34.2902 48.4347C34.3353 48.3783 34.3804 48.322 34.4142 48.2769C34.4593 48.2205 34.4931 48.1641 34.5382 48.1077C34.5833 48.0513 34.6172 47.995 34.6623 47.9386C34.7412 47.8258 34.8201 47.7131 34.899 47.6003C34.9442 47.5439 34.978 47.4876 35.0118 47.4312C35.2035 47.1493 35.3839 46.8561 35.5643 46.5517C35.6094 46.4727 35.6545 46.4051 35.6996 46.3261C35.7898 46.1796 35.8688 46.0217 35.9477 45.8751C35.9928 45.7962 36.0266 45.7172 36.0717 45.6496C36.1056 45.5932 36.1281 45.5256 36.1619 45.4692C36.534 44.725 36.8498 43.9469 37.1091 43.1463C37.1542 43.011 37.1993 42.8757 37.2332 42.7404C37.2557 42.6728 37.267 42.6051 37.2895 42.5375C37.3346 42.3796 37.3797 42.233 37.4136 42.0751C37.4925 41.7707 37.5602 41.455 37.6278 41.1392C37.6616 40.9814 37.6842 40.8235 37.718 40.6657C37.7293 40.598 37.7406 40.5191 37.7518 40.4514C37.7857 40.2597 37.8082 40.068 37.8308 39.8651C37.8646 39.5719 37.8984 39.2787 37.9097 38.9856C37.9323 38.6924 37.9435 38.3879 37.9435 38.0835V38.0609C37.9435 38.0271 37.9435 37.9933 37.9435 37.9482C37.9435 37.9144 37.9435 37.8693 37.9435 37.8354C37.9999 33.9678 36.7145 30.4046 34.5608 27.5293ZM19.8909 29.5815C19.8458 29.5477 19.812 29.5251 19.7781 29.5138L19.7669 29.4913C19.5075 29.1417 19.2256 28.8373 18.9324 28.578C19.0678 28.6005 19.2031 28.6231 19.3271 28.6456C19.9698 28.7584 20.5674 28.8598 21.1989 28.578C21.2102 28.7696 20.466 29.2432 19.8909 29.5815ZM24.063 41.0152C23.8262 40.9814 23.4202 40.9814 22.9579 41.1167C22.7099 41.1844 22.4618 41.2971 22.2137 41.4662C22.0897 41.5452 21.9657 41.6692 21.8529 41.7932C21.7965 41.8609 21.7289 41.9398 21.6838 42.0075C21.6274 42.0864 21.571 42.1541 21.5259 42.233C21.4357 42.3796 21.368 42.5149 21.3568 42.6051C20.9057 42.6502 20.466 42.684 20.0262 42.684C19.8683 42.684 19.6992 42.684 19.5413 42.6728C19.4624 42.6728 19.3722 42.6728 19.2933 42.6615C19.3158 42.6277 19.3384 42.6051 19.3609 42.56C19.5075 42.3458 19.7669 41.9962 20.1615 41.6467C20.3532 41.4662 20.5787 41.2971 20.8268 41.1392C21.0185 41.0265 21.2214 40.9137 21.4357 40.8235C21.8642 40.6431 22.2701 40.5191 22.6422 40.4401C22.9128 40.3838 23.1609 40.3499 23.3751 40.3499C23.657 40.3387 23.8825 40.3612 24.0517 40.4063C24.0742 40.4176 24.0968 40.4176 24.1081 40.4289C24.6155 40.6093 24.4238 41.0603 24.063 41.0152Z" fill="black"/>
<path d="M19.3489 45.784C19.1068 45.8598 18.3018 46.0903 17.5082 46.0987L17.4751 46.0954C17.4198 46.0897 17.3745 46.0963 17.3193 46.0906C17.253 46.0839 17.1977 46.0782 17.1303 46.0825C16.6994 46.0386 16.3106 45.9097 16.0503 45.6152C15.6821 45.1757 15.6854 44.5955 15.9151 44.0942C15.944 44.0302 15.9717 43.9772 16.0006 43.9132C16.0272 43.8712 16.0549 43.8182 16.0815 43.7763C16.1356 43.7929 16.2008 43.8108 16.266 43.8286C16.3311 43.8464 16.3974 43.8531 16.4736 43.8721C16.4349 43.9239 16.4083 43.9659 16.3695 44.0177C16.3296 44.0807 16.3007 44.1447 16.2608 44.2076C16.0633 44.6117 16.0392 45.067 16.3171 45.4079C16.4671 45.5795 16.7244 45.6839 17.0216 45.7254C17.0879 45.7321 17.1431 45.7378 17.2205 45.7456C17.2757 45.7513 17.342 45.758 17.4094 45.7537C17.9664 45.7659 18.6264 45.6433 19.2258 45.4588C19.3175 45.4347 19.4247 45.4791 19.4477 45.5819C19.4477 45.5819 19.4465 45.593 19.4576 45.5941C19.495 45.6649 19.4407 45.7598 19.3489 45.784Z" fill="black"/>
<path d="M26.1941 34.3624C26.1715 34.4188 26.1377 34.4751 26.1152 34.5202C26.0813 34.5766 26.0588 34.6443 26.025 34.6894C25.9799 34.7683 25.946 34.836 25.9122 34.8811C25.9009 34.9036 25.8784 34.9262 25.8671 34.9487C25.8445 34.9713 25.822 34.9938 25.7994 35.0051C25.7543 35.0502 25.698 35.0953 25.6416 35.1291C25.168 35.4449 24.638 35.4223 24.2547 35.3321C23.5104 35.1517 22.7662 34.5992 22.552 34.0692C22.6873 33.5843 22.8113 33.2235 22.9128 32.9191C22.9241 32.8852 22.9354 32.8627 22.9354 32.8289C22.9354 32.8176 22.9467 32.8063 22.9467 32.795C22.9467 32.7838 22.9467 32.7838 22.9579 32.7725C22.9692 32.7274 22.9918 32.6823 23.003 32.6372C23.0143 32.6146 23.0143 32.5921 23.0256 32.5695C23.0369 32.5244 23.0481 32.4906 23.0707 32.4455C23.2398 31.9155 23.2849 31.6449 23.1609 31.1713C23.1158 31.0134 23.0707 30.8443 23.0143 30.6526C22.755 29.7618 22.4167 28.6568 23.0932 28.1381C23.2398 28.0253 23.4428 27.9915 23.6909 28.0479C24.6606 28.2396 26.1603 29.6265 26.7579 30.6639C27.2653 31.566 26.6451 33.3927 26.1941 34.3624Z" fill="#FFB800"/>
<path d="M31.5192 48.4817C31.0433 46.2057 30.304 44.1341 29.0322 42.4471C29.0408 42.44 29.0564 42.4414 29.065 42.4343C29.5076 42.1676 29.9228 42.1981 30.302 42.5328C31.3445 43.4573 31.4567 45.4867 31.5175 46.707C31.5383 47.0796 31.5507 47.3725 31.5974 47.5504C31.6525 47.8078 31.6207 48.1519 31.5192 48.4817Z" fill="white"/>
<path d="M18.4517 48.4943C18.4517 48.4943 18.6437 51.0481 18.0684 52.5578C17.719 53.4057 16.8109 53.9542 15.359 53.01C14.2479 52.0002 15.3461 49.1675 15.5768 47.9211C15.8387 46.5137 17.0235 45.2588 18.3245 46.9837" fill="#FFFDF9"/>
<path d="M16.7532 53.6915C16.3664 53.6907 15.8647 53.5672 15.2482 53.1631C15.2396 53.156 15.231 53.149 15.2224 53.142C14.2504 52.2604 14.7773 50.2661 15.1525 48.808C15.2503 48.443 15.337 48.1265 15.3832 47.8773C15.538 47.0567 16.032 46.155 16.7798 45.9777C17.1729 45.8831 17.7965 45.9629 18.4701 46.8586C18.5333 46.9391 18.5146 47.0672 18.4341 47.1305C18.3536 47.1938 18.2254 47.175 18.1621 47.0945C17.8613 46.6905 17.3894 46.2325 16.8728 46.3551C16.3719 46.4762 15.924 47.1287 15.7692 47.9492C15.7246 48.2141 15.6378 48.5306 15.5417 48.9112C15.2118 50.1912 14.7028 52.1284 15.4772 52.8482C16.1023 53.2593 16.6681 53.3922 17.112 53.2531C17.4566 53.1477 17.7286 52.8679 17.8943 52.4725C18.0999 51.9232 18.2352 51.1441 18.2806 50.1766C18.2853 50.0657 18.3799 49.9852 18.4838 49.9985C18.5948 50.0032 18.6752 50.0977 18.6619 50.2017C18.6212 51.216 18.482 52.035 18.2499 52.6343C18.0396 53.1368 17.673 53.497 17.2292 53.6361C17.0971 53.6572 16.9424 53.6884 16.7532 53.6915Z" fill="black"/>
<path d="M18.4745 50.3783C18.3635 50.3736 18.276 50.2876 18.2807 50.1767C18.3238 49.2647 18.2645 48.5129 18.2645 48.5129C18.2535 48.4035 18.3395 48.316 18.4489 48.3051C18.5583 48.2942 18.6458 48.3801 18.6568 48.4895C18.6599 48.5208 18.7192 49.2726 18.6777 50.2002C18.6628 50.2885 18.5769 50.376 18.4745 50.3783Z" fill="black"/>
<path d="M15.3835 53.0592C16.7479 54.4288 20.2395 53.6053 21.2061 53.2797C21.9481 52.8521 23.4228 50.4759 21.5004 49.5772C20.4103 48.9966 18.0473 49.6123 16.5744 50.9343" fill="#FFFDF9"/>
<path d="M17.8771 54.0241C16.8686 54.0243 15.8716 53.8309 15.2474 53.204C15.1781 53.1253 15.1674 53.0062 15.2492 52.9263C15.3278 52.8571 15.4469 52.8463 15.5268 52.9281C16.6847 54.0969 19.7883 53.5632 21.1271 53.1169C21.5512 52.8611 22.2989 51.8325 22.2563 50.9272C22.2365 50.4113 21.9605 50.0159 21.4219 49.7623C20.3712 49.2051 18.0794 49.8536 16.7022 51.0883C16.6236 51.1576 16.497 51.1545 16.4277 51.0759C16.3585 50.9973 16.3615 50.8707 16.4402 50.8014C17.9545 49.457 20.4004 48.7965 21.5938 49.4195C22.2431 49.7293 22.6107 50.2449 22.6424 50.915C22.6863 51.9714 21.859 53.15 21.2998 53.4699C21.286 53.4773 21.2722 53.4848 21.2616 53.4816C21.2403 53.4753 19.5463 54.0242 17.8771 54.0241Z" fill="black"/>
<path d="M21.5371 49.2464C21.3341 49.3704 21.3567 49.8215 21.4695 49.9906C21.6499 50.2612 22.1573 50.6108 22.349 50.4191C23.1496 49.596 22.2362 48.8405 21.5371 49.2464Z" fill="white"/>
<path d="M22.1912 50.5884C22.18 50.5884 22.1574 50.5884 22.1461 50.5884C21.8755 50.5658 21.5147 50.2839 21.3681 50.0584C21.2779 49.9231 21.2441 49.6525 21.2892 49.4495C21.323 49.3142 21.3907 49.2127 21.4809 49.1676C21.8755 48.9421 22.3717 49.021 22.631 49.3593C22.834 49.6186 22.8791 50.0584 22.428 50.5094C22.3717 50.532 22.304 50.5884 22.1912 50.5884ZM21.5936 49.348C21.5598 49.3706 21.526 49.4157 21.5147 49.4946C21.4809 49.6525 21.5147 49.8554 21.5598 49.9344C21.6838 50.1148 21.977 50.3403 22.18 50.3628C22.2251 50.3628 22.2476 50.3628 22.2702 50.3403C22.5633 50.0358 22.6423 49.7201 22.4619 49.4833C22.2815 49.2691 21.9206 49.1563 21.5936 49.348Z" fill="black"/>
<path d="M22.1912 50.5884C22.18 50.5884 22.1574 50.5884 22.1461 50.5884C21.8755 50.5658 21.5147 50.2839 21.3681 50.0584C21.2779 49.9231 21.2441 49.6525 21.2892 49.4495C21.323 49.3142 21.3907 49.2127 21.4809 49.1676C21.8755 48.9421 22.3717 49.021 22.631 49.3593C22.834 49.6186 22.8791 50.0584 22.428 50.5094C22.3717 50.532 22.304 50.5884 22.1912 50.5884ZM21.5936 49.348C21.5598 49.3706 21.526 49.4157 21.5147 49.4946C21.4809 49.6525 21.5147 49.8554 21.5598 49.9344C21.6838 50.1148 21.977 50.3403 22.18 50.3628C22.2251 50.3628 22.2476 50.3628 22.2702 50.3403C22.5633 50.0358 22.6423 49.7201 22.4619 49.4833C22.2815 49.2691 21.9206 49.1563 21.5936 49.348Z" fill="black"/>
<path d="M22.4167 50.4868C22.1799 50.4755 21.9543 50.8702 21.9543 51.0619C21.9543 51.3776 22.1911 51.9414 22.4505 51.885C23.5781 51.6369 23.2285 50.5319 22.4167 50.4868Z" fill="white"/>
<path d="M22.4166 51.9979C22.3602 51.9979 22.2813 51.9753 22.2024 51.9189C21.9881 51.7498 21.8416 51.3326 21.8416 51.062C21.8416 50.8928 21.9543 50.656 22.1009 50.5094C22.2024 50.408 22.3151 50.3629 22.4166 50.3741C22.8789 50.3967 23.2398 50.735 23.2736 51.1522C23.2961 51.4679 23.1044 51.8625 22.473 51.9979C22.4617 51.9979 22.4392 51.9979 22.4166 51.9979ZM22.4053 50.5996C22.3602 50.5996 22.3151 50.6222 22.2588 50.6786C22.146 50.7801 22.0671 50.9717 22.0671 51.062C22.0671 51.2762 22.1911 51.6257 22.349 51.7385C22.3828 51.7611 22.4053 51.7723 22.4392 51.7723C22.8564 51.6821 23.0819 51.4566 23.0593 51.1747C23.0368 50.9041 22.7887 50.6222 22.4053 50.5996Z" fill="black"/>
<path d="M22.4166 51.9979C22.3602 51.9979 22.2813 51.9753 22.2024 51.9189C21.9881 51.7498 21.8416 51.3326 21.8416 51.062C21.8416 50.8928 21.9543 50.656 22.1009 50.5094C22.2024 50.408 22.3151 50.3629 22.4166 50.3741C22.8789 50.3967 23.2398 50.735 23.2736 51.1522C23.2961 51.4679 23.1044 51.8625 22.473 51.9979C22.4617 51.9979 22.4392 51.9979 22.4166 51.9979ZM22.4053 50.5996C22.3602 50.5996 22.3151 50.6222 22.2588 50.6786C22.146 50.7801 22.0671 50.9717 22.0671 51.062C22.0671 51.2762 22.1911 51.6257 22.349 51.7385C22.3828 51.7611 22.4053 51.7723 22.4392 51.7723C22.8564 51.6821 23.0819 51.4566 23.0593 51.1747C23.0368 50.9041 22.7887 50.6222 22.4053 50.5996Z" fill="black"/>
<path d="M22.2476 51.8851C22.0446 51.7498 21.6499 51.9753 21.5597 52.1445C21.4019 52.4151 21.3229 53.024 21.571 53.1029C22.6648 53.475 22.9241 52.3362 22.2476 51.8851Z" fill="white"/>
<path d="M21.9658 53.2946C21.8417 53.2946 21.6951 53.272 21.5373 53.2157C21.4696 53.1931 21.3907 53.1367 21.3343 53.0127C21.2328 52.7646 21.323 52.3249 21.4583 52.0881C21.5373 51.9415 21.7628 51.7949 21.9658 51.7498C22.1011 51.716 22.2251 51.7272 22.3153 51.7949C22.6987 52.0542 22.8453 52.5278 22.6649 52.8999C22.5521 53.1142 22.3266 53.2946 21.9658 53.2946ZM22.1011 51.964C22.0785 51.964 22.0447 51.964 22.0221 51.9753C21.8755 52.0091 21.7064 52.1219 21.6613 52.2008C21.5598 52.3812 21.4922 52.7533 21.5598 52.9338C21.5711 52.9676 21.5937 53.0014 21.6162 53.0014C22.0109 53.1367 22.3266 53.0578 22.4619 52.7984C22.5747 52.5617 22.507 52.1896 22.1913 51.9866C22.1574 51.964 22.1349 51.964 22.1011 51.964Z" fill="black"/>
<path d="M21.9658 53.2946C21.8417 53.2946 21.6951 53.272 21.5373 53.2157C21.4696 53.1931 21.3907 53.1367 21.3343 53.0127C21.2328 52.7646 21.323 52.3249 21.4583 52.0881C21.5373 51.9415 21.7628 51.7949 21.9658 51.7498C22.1011 51.716 22.2251 51.7272 22.3153 51.7949C22.6987 52.0542 22.8453 52.5278 22.6649 52.8999C22.5521 53.1142 22.3266 53.2946 21.9658 53.2946ZM22.1011 51.964C22.0785 51.964 22.0447 51.964 22.0221 51.9753C21.8755 52.0091 21.7064 52.1219 21.6613 52.2008C21.5598 52.3812 21.4922 52.7533 21.5598 52.9338C21.5711 52.9676 21.5937 53.0014 21.6162 53.0014C22.0109 53.1367 22.3266 53.0578 22.4619 52.7984C22.5747 52.5617 22.507 52.1896 22.1913 51.9866C22.1574 51.964 22.1349 51.964 22.1011 51.964Z" fill="black"/>
<path d="M33.2079 48.649C31.3925 50.4306 30.885 50.2953 30.4453 50.1712C29.7687 49.9795 29.3177 48.9873 29.1486 48.1867C28.9682 47.3523 29.0245 46.5742 29.2952 46.3487C30.0168 45.7398 30.5242 45.4692 30.5355 45.4692C30.558 45.4579 30.5693 45.4467 30.5806 45.4354L31.1895 44.7701C32.4637 44.3754 33.4108 44.5897 33.8844 45.3564C34.4257 46.2698 34.1212 47.7469 33.2079 48.649Z" fill="white"/>
<path d="M34.1664 45.1873C33.6139 44.274 32.4751 44.0033 31.043 44.4656C31.0092 44.4769 30.9867 44.4882 30.9641 44.5107L30.3439 45.1873C30.2312 45.255 29.735 45.5368 29.0698 46.0894C28.6187 46.4727 28.6526 47.4988 28.8104 48.2543C28.9119 48.7166 29.0923 49.2128 29.3404 49.63C29.5997 50.0472 29.9267 50.3742 30.3439 50.4869C30.5018 50.532 30.6597 50.5659 30.8288 50.5659C31.37 50.5659 32.0691 50.2389 33.4448 48.8858C34.4822 47.8597 34.7979 46.236 34.1664 45.1873ZM30.4454 50.1599C29.7689 49.9683 29.3178 48.976 29.1487 48.1754C28.9683 47.341 29.0247 46.563 29.2953 46.3374C30.0169 45.7285 30.5243 45.4579 30.5356 45.4579C30.5582 45.4466 30.5695 45.4354 30.5807 45.4241L31.1896 44.7588C32.4638 44.3642 33.411 44.5784 33.8846 45.3452C34.4371 46.2585 34.1326 47.7356 33.2193 48.6377C31.3926 50.4306 30.8852 50.284 30.4454 50.1599Z" fill="black"/>
<path d="M30.7046 50.2502C30.8512 50.0585 30.6595 49.6413 30.4904 49.5398C30.2197 49.3594 29.6221 49.2241 29.5094 49.4722C29.0696 50.5321 30.1972 50.8929 30.7046 50.2502Z" fill="white"/>
<path d="M30.0618 50.6787C29.9152 50.6787 29.7799 50.6449 29.6558 50.5659C29.3739 50.3968 29.1597 50.0134 29.419 49.4158C29.4416 49.3594 29.498 49.2805 29.6333 49.2354C29.8926 49.1565 30.3324 49.2805 30.5579 49.4383C30.6932 49.5286 30.8285 49.7766 30.8624 49.9796C30.8849 50.1149 30.8624 50.2389 30.7947 50.3179C30.603 50.5547 30.3324 50.6787 30.0618 50.6787ZM29.825 49.4383C29.7799 49.4383 29.7348 49.4384 29.7009 49.4496C29.6671 49.4609 29.6333 49.4835 29.622 49.506C29.4529 49.9007 29.5093 50.2277 29.7686 50.3742C30.0054 50.5096 30.3775 50.4757 30.6143 50.1713C30.6368 50.1375 30.6481 50.0811 30.6368 50.0021C30.6143 49.8443 30.5015 49.6639 30.4226 49.6188C30.2873 49.5286 30.0167 49.4383 29.825 49.4383Z" fill="black"/>
<path d="M30.0618 50.6787C29.9152 50.6787 29.7799 50.6449 29.6558 50.5659C29.3739 50.3968 29.1597 50.0134 29.419 49.4158C29.4416 49.3594 29.498 49.2805 29.6333 49.2354C29.8926 49.1565 30.3324 49.2805 30.5579 49.4383C30.6932 49.5286 30.8285 49.7766 30.8624 49.9796C30.8849 50.1149 30.8624 50.2389 30.7947 50.3179C30.603 50.5547 30.3324 50.6787 30.0618 50.6787ZM29.825 49.4383C29.7799 49.4383 29.7348 49.4384 29.7009 49.4496C29.6671 49.4609 29.6333 49.4835 29.622 49.506C29.4529 49.9007 29.5093 50.2277 29.7686 50.3742C30.0054 50.5096 30.3775 50.4757 30.6143 50.1713C30.6368 50.1375 30.6481 50.0811 30.6368 50.0021C30.6143 49.8443 30.5015 49.6639 30.4226 49.6188C30.2873 49.5286 30.0167 49.4383 29.825 49.4383Z" fill="black"/>
<path d="M29.4191 49.4271C29.6447 49.3482 29.7123 48.8971 29.6334 48.7167C29.5093 48.4235 29.0809 47.9838 28.8553 48.1416C27.8969 48.7844 28.6411 49.6977 29.4191 49.4271Z" fill="white"/>
<path d="M29.1372 49.5849C28.8102 49.5849 28.5058 49.4158 28.3592 49.1339C28.2126 48.8407 28.2577 48.4122 28.7877 48.0514C28.8441 48.0176 28.9343 47.9837 29.0696 48.0176C29.3289 48.0965 29.6221 48.4348 29.7348 48.6828C29.8025 48.8407 29.7799 49.1 29.6897 49.2917C29.6334 49.4158 29.5432 49.506 29.4417 49.5398C29.3515 49.5736 29.2387 49.5849 29.1372 49.5849ZM28.9681 48.2318C28.9568 48.2318 28.9343 48.2318 28.923 48.2431C28.5734 48.4799 28.4381 48.773 28.5622 49.0437C28.6749 49.2804 29.0132 49.4496 29.374 49.3368C29.4191 49.3256 29.4529 49.2804 29.4868 49.2128C29.5544 49.0662 29.5544 48.8745 29.5206 48.7843C29.4417 48.5926 29.1936 48.3107 29.0019 48.2543C28.9906 48.2318 28.9794 48.2318 28.9681 48.2318Z" fill="black"/>
<path d="M29.1372 49.5849C28.8102 49.5849 28.5058 49.4158 28.3592 49.1339C28.2126 48.8407 28.2577 48.4122 28.7877 48.0514C28.8441 48.0176 28.9343 47.9837 29.0696 48.0176C29.3289 48.0965 29.6221 48.4348 29.7348 48.6828C29.8025 48.8407 29.7799 49.1 29.6897 49.2917C29.6334 49.4158 29.5432 49.506 29.4417 49.5398C29.3515 49.5736 29.2387 49.5849 29.1372 49.5849ZM28.9681 48.2318C28.9568 48.2318 28.9343 48.2318 28.923 48.2431C28.5734 48.4799 28.4381 48.773 28.5622 49.0437C28.6749 49.2804 29.0132 49.4496 29.374 49.3368C29.4191 49.3256 29.4529 49.2804 29.4868 49.2128C29.5544 49.0662 29.5544 48.8745 29.5206 48.7843C29.4417 48.5926 29.1936 48.3107 29.0019 48.2543C28.9906 48.2318 28.9794 48.2318 28.9681 48.2318Z" fill="black"/>
<path d="M29.0471 48.0627C29.2839 48.1078 29.5658 47.7583 29.5883 47.5666C29.6334 47.2509 29.4756 46.6532 29.2162 46.6758C28.0661 46.7322 28.2465 47.8936 29.0471 48.0627Z" fill="white"/>
<path d="M29.0921 48.1754C29.0696 48.1754 29.047 48.1754 29.0245 48.1641C28.5734 48.0739 28.2577 47.6793 28.2915 47.2621C28.3141 46.9463 28.5734 46.5855 29.2162 46.5404C29.2838 46.5404 29.3853 46.5517 29.4755 46.6532C29.6559 46.8561 29.7461 47.2846 29.7123 47.5552C29.6897 47.7131 29.5432 47.9386 29.374 48.0626C29.2725 48.1416 29.1823 48.1754 29.0921 48.1754ZM29.2274 46.7772C28.799 46.7997 28.5396 46.9914 28.5171 47.2846C28.4945 47.544 28.6975 47.871 29.0696 47.9499C29.1147 47.9612 29.1711 47.9386 29.2274 47.8935C29.3515 47.8033 29.4642 47.6342 29.4755 47.544C29.5093 47.3297 29.4304 46.9689 29.2951 46.8223C29.2725 46.7997 29.25 46.7772 29.2274 46.7772Z" fill="black"/>
<path d="M29.0921 48.1754C29.0696 48.1754 29.047 48.1754 29.0245 48.1641C28.5734 48.0739 28.2577 47.6793 28.2915 47.2621C28.3141 46.9463 28.5734 46.5855 29.2162 46.5404C29.2838 46.5404 29.3853 46.5517 29.4755 46.6532C29.6559 46.8561 29.7461 47.2846 29.7123 47.5552C29.6897 47.7131 29.5432 47.9386 29.374 48.0626C29.2725 48.1416 29.1823 48.1754 29.0921 48.1754ZM29.2274 46.7772C28.799 46.7997 28.5396 46.9914 28.5171 47.2846C28.4945 47.544 28.6975 47.871 29.0696 47.9499C29.1147 47.9612 29.1711 47.9386 29.2274 47.8935C29.3515 47.8033 29.4642 47.6342 29.4755 47.544C29.5093 47.3297 29.4304 46.9689 29.2951 46.8223C29.2725 46.7997 29.25 46.7772 29.2274 46.7772Z" fill="black"/>
</svg>
