<?xml version="1.0" encoding="utf-8"?>
<!-- Generator: Adobe Illustrator 25.4.1, SVG Export Plug-In . SVG Version: 6.00 Build 0)  -->
<svg version="1.1" id="图层_1" xmlns="http://www.w3.org/2000/svg" xmlns:xlink="http://www.w3.org/1999/xlink" x="0px" y="0px"
	 viewBox="0 0 20 23" style="enable-background:new 0 0 20 23;" xml:space="preserve">
<style type="text/css">
	.st0{fill:#CCFD0A;}
</style>
<g id="Page-1">
	<g id="icon_discord_hover">
		<g transform="translate(0.000596, 0.000589)">
			<path id="logo-discord" class="st0" d="M12.7,14.4c0,0-0.4-0.5-0.7-0.9c0.8-0.2,1.5-0.6,2-1.3c-0.4,0.3-0.8,0.5-1.3,0.7
				c-0.5,0.2-1.1,0.4-1.6,0.5c-1,0.2-1.9,0.2-2.9,0c-0.6-0.1-1.1-0.3-1.6-0.5c-0.3-0.1-0.6-0.2-0.8-0.4c0,0-0.1,0-0.1-0.1
				c0,0,0,0,0,0c-0.2-0.1-0.3-0.2-0.3-0.2c0.5,0.6,1.2,1.1,2,1.3c-0.3,0.4-0.7,0.9-0.7,0.9c-1.3,0-2.6-0.6-3.4-1.7
				c0-2.2,0.6-4.4,1.6-6.4c0.9-0.7,2-1.1,3.1-1.2L8,5.3C6.9,5.6,5.9,6.1,5,6.8c0,0,0.2-0.1,0.7-0.3c0.8-0.4,1.7-0.6,2.5-0.7
				c0.1,0,0.1,0,0.2,0c0.7-0.1,1.5-0.1,2.3,0c0.6,0.1,1.2,0.2,1.7,0.4C13,6.3,13.5,6.5,14,6.8c-0.8-0.7-1.8-1.1-2.8-1.4l0.2-0.2
				c1.1,0.1,2.2,0.5,3.1,1.2c1,2,1.6,4.2,1.6,6.4C15.3,13.9,14.1,14.5,12.7,14.4z M19.1,2.3c0-0.1,0-0.1,0-0.2c0-0.1,0-0.1,0-0.2
				c0-0.1,0-0.1-0.1-0.2c0-0.1,0-0.1-0.1-0.2c0-0.1-0.1-0.1-0.1-0.2c0-0.1-0.1-0.1-0.1-0.2c0-0.1-0.1-0.1-0.1-0.2
				c0-0.1-0.1-0.1-0.2-0.2c-0.1-0.1-0.1-0.1-0.2-0.1c-0.1,0-0.1-0.1-0.2-0.1c-0.1,0-0.1-0.1-0.2-0.1s-0.1-0.1-0.2-0.1
				c-0.1,0-0.1-0.1-0.2-0.1c-0.1,0-0.1,0-0.2-0.1c-0.1,0-0.1,0-0.2,0c-0.1,0-0.1,0-0.2,0L2.3,0C2.2,0,2.1,0,2.1,0
				c-0.1,0-0.3,0-0.4,0.1c-0.1,0-0.1,0-0.2,0.1S1.3,0.2,1.2,0.3C1.1,0.3,1.1,0.3,1,0.4C1,0.4,0.9,0.5,0.8,0.5
				c-0.1,0-0.1,0.1-0.2,0.1C0.6,0.7,0.6,0.8,0.5,0.8C0.5,0.9,0.4,1,0.4,1c0,0.1-0.1,0.1-0.1,0.2c0,0.1-0.1,0.1-0.1,0.2
				c0,0.1-0.1,0.1-0.1,0.2c0,0.1,0,0.1-0.1,0.2C0,1.9,0,2,0,2.1c0,0.1,0,0.2,0,0.2v15c0,0.6,0.2,1.2,0.7,1.6c0.4,0.4,1,0.6,1.6,0.6
				h12.4l-0.6-2l5,4.6L19.1,2.3L19.1,2.3z M11.6,9.3c-0.5,0-1,0.2-1.2,0.7s-0.1,1,0.2,1.4c0.3,0.4,0.9,0.5,1.3,0.3
				c0.5-0.2,0.8-0.6,0.8-1.1c0-0.3-0.1-0.6-0.3-0.8S11.9,9.3,11.6,9.3L11.6,9.3z M7.5,9.3c-0.5,0-1,0.2-1.2,0.7
				c-0.2,0.5-0.1,1,0.2,1.4s0.9,0.5,1.3,0.3c0.5-0.2,0.8-0.6,0.8-1.1c0-0.3-0.1-0.6-0.3-0.8C8.2,9.4,7.9,9.3,7.5,9.3L7.5,9.3z"/>
		</g>
	</g>
</g>
</svg>
