<svg width="1056" height="423" viewBox="0 0 1056 423" fill="none" xmlns="http://www.w3.org/2000/svg">
<g clip-path="url(#clip0_706_6413)">
<rect width="1056" height="423" fill="white"/>
<g clip-path="url(#clip1_706_6413)">
<path d="M1056.4 0H0.399902V423H1056.4V0Z" fill="#DCF8FF"/>
<path opacity="0.51" d="M509.1 72.9998C467.7 77.7998 424.2 86.7998 385.4 75.5998C370.5 71.2998 357.2 64.1998 342.2 60.3998C316.1 53.7998 287.5 57.5998 260 55.9998C243.4 54.9998 227 52.0998 211.6 47.2998C197.8 42.9998 184.6 37.0998 170.1 34.3998C149.6 30.5998 127.6 33.3998 106.8 30.4998C93.8 28.6998 81.6 24.5998 68.8 22.3998C55.1 19.9998 40.9 19.6998 26.8 19.3998C17.8 19.1998 8.9 18.9998 0 18.7998V50.1998C0.9 50.1998 1.9 50.0998 2.8 50.0998C41.5 48.9998 80.1 51.2998 118.6 53.6998C167.2 56.6998 215.7 59.8998 264.1 64.1998C278 65.3998 291.9 66.7998 305.6 68.6998C329.9 72.0998 353.7 77.2998 377.5 82.4998C390.4 85.2998 403.4 88.0998 416.8 88.3998C433.5 88.6998 450 85.0998 466.4 82.0998C511.9 73.6998 558.5 69.6998 604.9 70.0998C573 68.2998 540.9 69.3998 509.1 72.9998Z" fill="#E7FFFD"/>
<path opacity="0.51" d="M1056.4 21.4002C1015.5 18.3002 974.4 18.0002 933.5 20.6002C935.1 21.8002 936.7 22.9002 938.4 24.1002C939.5 26.5002 936.8 28.8002 934.6 29.7002C902.6 42.8002 867.7 42.8002 833.6 42.5002C773 42.0002 712.3 41.5002 651.8 35.8002C627.1 33.5002 602.1 30.3002 577.7 34.8002C689.4 41.0002 801.1 47.3002 912.9 53.5002C982.6 57.4002 989.1 22.2002 1056.5 74.6002V21.4002H1056.4Z" fill="#E7FFFD"/>
<path opacity="0.8" d="M1056.4 259.2C1052.8 261.6 1049.4 264.5 1046.4 268C1037.8 277.8 1029.3 292.5 1017.2 289.8C1015.1 289.3 1012.1 289.3 1010.5 290.3C1017.2 269.3 1018.9 246.5 1015.6 224.6C1014.4 216.6 1012.1 208.1 1006.4 203.1C999.8 197.3 990.4 197.6 982 199C944.6 205.5 910.1 230.4 889.6 265.6C878.6 284.5 874.1 314.6 892 325.2C868.8 322.7 846.1 314.8 825.8 302.1C818.2 297.3 810.8 291.8 802.3 289.4C789.8 285.8 775.8 289.9 766.4 299.7C726 233.2 640.4 205.8 573.9 238C557.7 245.8 540.7 261.2 543.3 280.6C544.4 288.9 548.3 299.7 541.9 304.2C539.8 305.6 524.1 339.8 521.6 339.9C493.4 340.8 478.4 306 450.3 303.6C441.1 269 414.7 241.6 384 229.3C358.1 218.9 329.5 218.4 302.4 224.9V422.9H1056.4V259.2Z" fill="#FFFDF5"/>
<path opacity="0.8" d="M303.6 224.8V422.8H0.399902V227.3C11.2999 229.5 21.9999 233 32.1999 238C48.3999 245.8 65.3999 261.2 62.7999 280.6C61.6999 288.9 57.7999 299.7 64.1999 304.2C66.2999 305.7 68.8999 305.8 71.2999 305.9C99.4999 306.8 127.7 306.1 155.8 303.6C165 269 191.4 241.6 222.1 229.3C248 218.8 276.5 218.3 303.6 224.8Z" fill="#FFFDF5"/>
<path d="M6.8999 376.899L71.5999 360.399C71.5999 360.399 49.7999 327.899 32.0999 331.599C22.3999 333.699 6.8999 376.899 6.8999 376.899Z" fill="#EFDDCA"/>
<path d="M31.6001 331.8C31.8001 331.7 32.0001 331.7 32.1001 331.6C49.8001 327.9 73.6001 359.9 73.6001 359.9L30.1001 371C37.0001 355.4 40.3001 352.5 31.6001 331.8Z" fill="#DDC5AB"/>
<g opacity="0.5">
<path d="M33.9001 361.9L33.6001 359.2C32.2001 359.2 30.8001 358.8 29.9001 358.2L30.3001 356.4C31.2001 357 32.5001 357.4 33.8001 357.4C35.5001 357.3 36.5001 356.2 36.3001 354.7C36.1001 353.2 35.1001 352.4 33.3001 351.7C30.8001 350.7 29.2001 349.6 28.9001 347.3C28.6001 345.1 29.8001 343.4 31.9001 342.9L31.6001 340.2L33.0001 340.1L33.3001 342.7C34.7001 342.7 35.7001 343.1 36.4001 343.5L36.0001 345.3C35.5001 345 34.4001 344.5 33.0001 344.5C31.2001 344.6 30.7001 345.8 30.8001 346.9C31.0001 348.3 31.9001 348.9 34.0001 349.8C36.5001 350.8 37.9001 352.1 38.2001 354.5C38.4001 356.6 37.4001 358.6 35.0001 359.2L35.3001 362L33.9001 361.9Z" fill="#723F3D"/>
</g>
<path d="M30.4998 331.7C29.9998 330.8 30.2998 329.9 31.0998 329.7C31.8998 329.5 32.8998 330.1 33.3998 331C33.8998 331.9 33.5998 332.8 32.7998 333C31.9998 333.2 30.9998 332.6 30.4998 331.7Z" fill="#895A49"/>
<path d="M31.6997 330.399C35.2997 331.099 45.5997 334.299 48.5997 348.999C49.0997 351.399 45.1997 347.699 43.9997 350.899C42.0997 356.299 40.9997 355.499 40.9997 355.499C39.4997 355.399 40.1997 337.899 31.5997 331.099C31.3997 330.899 31.4997 330.399 31.6997 330.399Z" fill="#EDD7BC"/>
<path d="M107.6 403L0.399902 423V350.4C29.9999 358.6 68.5999 380.5 107.6 403Z" fill="#FFA02E"/>
<path d="M949.3 423H1056.5V340.5C1026.9 349.9 988.3 397.4 949.3 423Z" fill="#FF8B2C"/>
<path d="M808.2 345.6C808.5 344.5 807 343.2 804.8 342.6C802.6 342 800.7 342.4 800.4 343.5C800.1 344.6 801.6 345.9 803.8 346.5C806 347.1 807.9 346.7 808.2 345.6Z" fill="#FFA02E"/>
<path d="M788.9 329.6C788.8 328.5 786.9 327.8 784.7 328C782.5 328.2 780.8 329.3 780.9 330.4C781 331.5 782.9 332.2 785.1 332C787.3 331.8 789.1 330.7 788.9 329.6Z" fill="#FFA02E"/>
<path d="M829.1 367.5C829 366.6 827.2 366 825.1 366.2C823 366.4 821.4 367.4 821.5 368.3C821.6 369.2 823.4 369.8 825.5 369.6C827.6 369.4 829.2 368.4 829.1 367.5Z" fill="#FFA02E"/>
<path d="M623.3 313.2C623.3 313.2 609.2 318.2 601.9 315.1L600.8 323.9C609 327.9 622 324.9 627.1 322.4L623.3 313.2Z" fill="#AAA743"/>
<path d="M542.8 423H883.4L839 392.7L815.2 354.4L800.4 343L777.1 297.7L703.6 289L670.2 302.5L643.8 311.2L618.4 344.1L596.7 373.3L591.9 387.3L569.2 411.1L542.8 423Z" fill="#FFBB33"/>
<path d="M651.1 421.8C702.4 389.1 735 337 735.6 292.8L703.6 289L670.3 302.5L643.8 311.1L618.4 344.1L596.7 373.3L591.9 387.3L569.2 411.1L542.8 423H649.1C649.7 422.6 650.4 422.2 651.1 421.8Z" fill="#FFC533"/>
<path d="M783.6 339.8L792.3 343.3L803.7 396.7L828.1 423H883.4L839 392.7L815.2 354.4L800.4 343L777.1 297.7L734.9 292.7L754.8 302.1L783.6 339.8Z" fill="#FFA02E"/>
<path d="M705.4 289L686.6 295.8L677.5 304L704.9 294L731 292.1L705.4 289Z" fill="#FFA02E"/>
<path d="M616.8 320.4C616.6 319 615 317.9 613.1 318C611.2 318.1 609.8 319.4 610 320.9C610.2 322.3 611.8 323.4 613.7 323.3C615.6 323.1 617 321.8 616.8 320.4Z" fill="#C6BD46"/>
<path d="M814 363.6C813.5 362.7 811.3 363.1 809.2 364.5C807.1 365.8 805.8 367.6 806.3 368.5C806.8 369.4 809 369 811.1 367.6C813.2 366.2 814.5 364.4 814 363.6Z" fill="#FFC44D"/>
<path d="M829.3 379.6C829.2 378.6 827.1 378 824.6 378.3C822.1 378.6 820.2 379.6 820.3 380.6C820.4 381.6 822.5 382.2 825 381.9C827.5 381.7 829.4 380.7 829.3 379.6Z" fill="#FFC44D"/>
<path d="M784.8 377.6C784.5 376.6 782.3 376.5 779.9 377.2C777.5 378 775.8 379.4 776.1 380.3C776.4 381.3 778.6 381.4 781 380.7C783.4 380 785.1 378.5 784.8 377.6Z" fill="#FFD766"/>
<path d="M805.7 386.9C805.7 385.9 803.6 385.2 801.1 385.3C798.6 385.4 796.6 386.3 796.6 387.3C796.6 388.3 798.7 389 801.2 388.9C803.8 388.8 805.8 387.9 805.7 386.9Z" fill="#FFBB33"/>
<path d="M733.4 349.2C732.8 347.4 730.4 346.6 728 347.4C725.6 348.2 724.1 350.2 724.7 352C725.3 353.8 727.7 354.6 730.1 353.8C732.5 353 734 351 733.4 349.2Z" fill="#FFD766"/>
<path d="M667.2 324.2C666.9 323.2 664.7 323.1 662.3 323.8C659.9 324.6 658.2 326 658.5 326.9C658.8 327.9 661 328 663.4 327.3C665.8 326.6 667.5 325.2 667.2 324.2Z" fill="#FFD766"/>
<path d="M777.4 338.9C777.1 337.9 774.9 337.8 772.5 338.5C770.1 339.3 768.4 340.7 768.7 341.6C769 342.6 771.2 342.7 773.6 342C776 341.3 777.7 339.9 777.4 338.9Z" fill="#FFD766"/>
<path d="M696.2 312.7C695.9 311.7 693.7 311.6 691.3 312.3C688.9 313.1 687.2 314.5 687.5 315.4C687.8 316.4 690 316.5 692.4 315.8C694.9 315.1 696.6 313.7 696.2 312.7Z" fill="#FFD766"/>
<path d="M760.2 354.4C760.6 353.5 759 351.9 756.7 351C754.4 350.1 752.2 350.1 751.8 351C751.4 351.9 753 353.5 755.3 354.4C757.7 355.3 759.9 355.3 760.2 354.4Z" fill="#FFD766"/>
<path d="M672.1 364.7C672.5 363.8 670.9 362.2 668.6 361.3C666.3 360.4 664.1 360.4 663.7 361.3C663.3 362.2 664.9 363.8 667.2 364.7C669.5 365.7 671.7 365.7 672.1 364.7Z" fill="#FFD766"/>
<path d="M642.5 336.8C642.1 335.7 639.9 335.5 637.5 336.4C635.1 337.3 633.5 338.8 633.9 339.9C634.3 341 636.5 341.2 638.9 340.3C641.3 339.5 642.9 337.9 642.5 336.8Z" fill="#FFD766"/>
<path d="M634.1 366.3C633.6 365 631.3 364.6 628.9 365.5C626.6 366.4 625.1 368.2 625.6 369.5C626.1 370.8 628.4 371.2 630.8 370.3C633.1 369.4 634.6 367.6 634.1 366.3Z" fill="#FFD766"/>
<path d="M734.6 303.4C735.1 302.1 733.6 300.4 731.3 299.4C729 298.5 726.7 298.7 726.2 300C725.7 301.3 727.2 303 729.5 304C731.8 304.9 734.1 304.6 734.6 303.4Z" fill="#FFD766"/>
<path d="M722.1 373.2C722.1 372.2 720 371.5 717.5 371.6C715 371.7 713 372.6 713 373.6C713 374.6 715.1 375.3 717.6 375.2C720.2 375.1 722.2 374.2 722.1 373.2Z" fill="#FFD766"/>
<path d="M673.7 386.7C673.7 385.7 671.6 385 669.1 385.1C666.6 385.2 664.6 386.1 664.6 387.1C664.6 388.1 666.7 388.8 669.2 388.7C671.7 388.6 673.7 387.7 673.7 386.7Z" fill="#FFD766"/>
<path d="M752.2 382.8C752.1 381 750 379.6 747.5 379.7C745 379.8 743 381.4 743.1 383.2C743.2 385 745.3 386.4 747.8 386.3C750.3 386.2 752.3 384.7 752.2 382.8Z" fill="#FFD766"/>
<path d="M700.4 359.1C700.4 358.1 698.3 357.4 695.8 357.5C693.3 357.6 691.3 358.5 691.3 359.5C691.3 360.5 693.4 361.2 695.9 361.1C698.4 361.1 700.4 360.2 700.4 359.1Z" fill="#FFD766"/>
<path d="M723.7 333.9C724.1 333 722.5 331.4 720.2 330.5C717.9 329.6 715.7 329.6 715.3 330.5C714.9 331.4 716.5 333 718.8 333.9C721.2 334.9 723.4 334.8 723.7 333.9Z" fill="#FFD766"/>
<path d="M684.8 336.7C684 335.6 681.7 335.8 679.6 337.3C677.6 338.7 676.5 340.8 677.4 342C678.2 343.1 680.5 342.9 682.6 341.4C684.6 339.9 685.6 337.8 684.8 336.7Z" fill="#FFD766"/>
<path d="M699.3 394.7C698.7 392.9 696.3 392.1 693.9 392.9C691.5 393.7 690 395.7 690.6 397.5C691.2 399.3 693.6 400.1 696 399.3C698.4 398.5 699.9 396.4 699.3 394.7Z" fill="#FFD766"/>
<path d="M726.1 399.9C726.5 399 724.9 397.4 722.6 396.5C720.3 395.6 718.1 395.6 717.7 396.5C717.3 397.4 718.9 399 721.2 399.9C723.6 400.8 725.8 400.8 726.1 399.9Z" fill="#FFD766"/>
<path d="M638 410.2C638.4 409.3 636.8 407.7 634.5 406.8C632.2 405.9 630 405.9 629.6 406.8C629.2 407.7 630.8 409.3 633.1 410.2C635.4 411.2 637.6 411.2 638 410.2Z" fill="#FFD766"/>
<path d="M702.2 413C702.2 412 700.1 411.3 697.6 411.4C695.1 411.5 693.1 412.4 693.1 413.4C693.1 414.4 695.2 415.1 697.7 415C700.2 414.9 702.3 414 702.2 413Z" fill="#FFD766"/>
<path d="M600.9 407.2C600.9 406.2 598.8 405.5 596.3 405.6C593.8 405.7 591.8 406.6 591.8 407.6C591.8 408.6 593.9 409.3 596.4 409.2C598.9 409.1 600.9 408.2 600.9 407.2Z" fill="#FFD766"/>
<path d="M773.2 408.9C773.1 407.1 771 405.7 768.5 405.8C766 405.9 764 407.5 764.1 409.3C764.2 411.1 766.3 412.5 768.8 412.4C771.3 412.3 773.3 410.8 773.2 408.9Z" fill="#FFD766"/>
<path d="M842.8 405.8C842.8 404.7 840.7 403.9 838.2 404C835.7 404.1 833.7 405.1 833.7 406.2C833.7 407.3 835.8 408.1 838.3 408C840.8 407.9 842.8 406.9 842.8 405.8Z" fill="#FFBB33"/>
<path d="M796.3 398.5C796.3 397.4 794.2 396.6 791.7 396.7C789.2 396.8 787.2 397.8 787.2 398.9C787.2 400 789.3 400.8 791.8 400.7C794.4 400.6 796.4 399.6 796.3 398.5Z" fill="#FFD766"/>
<path d="M817.714 412.586C820.197 412.482 822.148 410.922 822.072 409.101C821.996 407.28 819.921 405.888 817.438 405.992C814.955 406.096 813.004 407.656 813.08 409.477C813.156 411.298 815.231 412.69 817.714 412.586Z" fill="#FFBB33"/>
<path d="M666.3 404.6C666.3 403.6 664.2 402.9 661.7 403C659.2 403.1 657.2 404 657.2 405C657.2 406 659.3 406.7 661.8 406.6C664.3 406.5 666.3 405.6 666.3 404.6Z" fill="#FFD766"/>
<path d="M650.7 382.1C649.9 381 647.6 381.2 645.5 382.7C643.5 384.1 642.4 386.2 643.3 387.4C644.1 388.5 646.4 388.3 648.5 386.8C650.5 385.4 651.5 383.3 650.7 382.1Z" fill="#FFD766"/>
<path d="M617.1 383C616.3 381.9 614 382.1 611.9 383.6C609.8 385.1 608.8 387.1 609.7 388.3C610.5 389.4 612.8 389.2 614.9 387.7C616.9 386.2 617.9 384.1 617.1 383Z" fill="#FFD766"/>
<path d="M670.8 307.2C671.2 306.3 669.6 304.7 667.3 303.8C665 302.9 662.8 302.9 662.4 303.8C662 304.7 663.6 306.3 665.9 307.2C668.2 308.2 670.4 308.2 670.8 307.2Z" fill="#FFD766"/>
<path d="M796.4 358.6C796.5 357 794.5 355.7 792 355.6C789.5 355.5 787.4 356.7 787.4 358.3C787.3 359.9 789.3 361.2 791.8 361.3C794.3 361.4 796.3 360.2 796.4 358.6Z" fill="#FFC44D"/>
<path d="M763.2 340.1C763.2 340.1 748.7 344 741.7 340.3L739.9 348.9C747.7 353.5 761 351.6 766.3 349.5L763.2 340.1Z" fill="#FFA02E"/>
<path d="M762.1 336C762.1 336 747.1 336.1 741.3 330.7L737.3 338.6C743.7 345.1 757 346.6 762.6 345.9L762.1 336Z" fill="#AAA743"/>
<path d="M753 341.3C753.7 340 753 338.2 751.4 337.2C749.8 336.2 747.9 336.4 747.2 337.7C746.5 339 747.2 340.8 748.8 341.8C750.3 342.8 752.2 342.5 753 341.3Z" fill="#C6BD46"/>
<path d="M612.1 364.6C612.1 364.6 599.5 356.4 597.6 348.7L590 353.1C591.8 362 602 370.6 607.2 373.1L612.1 364.6Z" fill="#AAA743"/>
<path d="M601.8 364.4C603 363.6 603.2 361.6 602.2 360C601.2 358.4 599.4 357.8 598.2 358.6C597 359.4 596.8 361.4 597.8 363C598.8 364.6 600.6 365.2 601.8 364.4Z" fill="#C6BD46"/>
<path d="M627 355.5L618.6 352.9C613.3 360.3 614 373.6 615.6 379.1L625.3 376.9C625.2 376.9 622.6 362.2 627 355.5Z" fill="#FFA02E"/>
<path d="M684.4 355.5C695.1 345.2 701.6 342.3 708.9 361.1C711.8 368.5 721 376.8 721 376.8C721 376.8 715 389.4 705.9 382.4C696.8 375.4 698.2 361.6 692.6 358.4C687.1 355.2 684.4 355.5 684.4 355.5Z" fill="#C1A385"/>
<path d="M691.2 356.101C690.7 353.501 688.9 351.601 687.2 351.801C685.5 352.001 684.6 354.301 685.1 356.901C685.6 359.501 687.4 361.401 689.1 361.201C690.8 361.001 691.7 358.701 691.2 356.101Z" fill="#8C735A"/>
<path d="M643.5 415.2C672.7 423.7 700.1 418.8 726.5 406.3C726.5 406.3 691.2 354.7 687.5 354.7C659.5 355.2 643.5 415.2 643.5 415.2Z" fill="#E5CFB1"/>
<path d="M689.4 358.4C698.6 372.5 693.4 404 680 419.2C696.2 417.9 711.7 413.5 726.6 406.3C726.6 406.3 691.3 354.7 687.6 354.7C687.3 354.7 687 354.7 686.7 354.7C687.6 355.8 688.5 357 689.4 358.4Z" fill="#D8BD9C"/>
<g opacity="0.3">
<path d="M676.9 397.8L677.2 394.1C675 394.1 672.8 393.5 671.6 392.7L672.7 390.2C674 391 675.9 391.7 677.9 391.6C680.6 391.5 682.5 390 682.7 387.9C682.9 385.9 681.5 384.7 678.9 383.6C675.2 382.2 673 380.6 673.3 377.4C673.6 374.3 676 372 679.5 371.3L679.8 367.6L682.1 367.5L681.8 371.1C684 371.1 685.5 371.6 686.6 372.2L685.4 374.7C684.7 374.3 683.2 373.5 680.8 373.6C677.9 373.7 676.7 375.4 676.6 376.9C676.4 378.8 677.7 379.7 680.9 381C684.6 382.4 686.4 384.3 686.1 387.6C685.8 390.5 683.5 393.3 679.6 394L679.3 397.8H676.9Z" fill="#723F3D"/>
</g>
<path d="M684.9 356.2C691.8 365.5 689.9 386 687.3 391.5C687.3 391.5 693.1 384.6 691.9 369.8C691.1 360.5 684.9 356.2 684.9 356.2Z" fill="#D8BD9C"/>
<path d="M1038.8 423H745.7C745.7 423 785.7 357.4 860.4 305.8C895.3 281.6 938.2 271.8 938.2 271.8C938.2 271.8 998.9 330.2 1038.8 423Z" fill="#FFBB33"/>
<path d="M860.3 305.8C882 290.8 906.8 281.3 922.5 276.3C926.7 280.4 929.9 285.4 931.9 291.3C944.6 328.5 904.8 387 842.7 423H745.7C745.7 423 785.7 357.4 860.3 305.8Z" fill="#FFC533"/>
<path d="M938.2 271.8C979.5 308.5 998.9 330.2 1038.9 423H971.7C975.3 412.8 978 323.5 938.2 271.8Z" fill="#FFA02E"/>
<path d="M947.8 309.899C947.6 307.999 949.1 306.399 951.1 306.399C953.2 306.399 955 307.999 955.3 309.899C955.5 311.799 954 313.399 952 313.399C949.9 313.399 948.1 311.899 947.8 309.899Z" fill="#FFC533"/>
<path d="M926.3 315.9C927.4 314.5 929.9 314.3 932 315.3C934.1 316.3 934.9 318.3 933.8 319.7C932.7 321.1 930.2 321.3 928.1 320.3C926.1 319.2 925.2 317.2 926.3 315.9Z" fill="#FFBB33"/>
<path d="M900.9 304.9C902.3 304.1 905.1 304.3 907.2 305.3C909.3 306.3 909.9 307.8 908.5 308.7C907.1 309.5 904.3 309.3 902.2 308.3C900.1 307.2 899.6 305.7 900.9 304.9Z" fill="#FFBB33"/>
<path d="M923.4 286.7C924.3 285 926.6 283.3 928.7 282.9C930.7 282.5 931.6 283.6 930.7 285.3C929.8 287 927.5 288.7 925.4 289.1C923.4 289.5 922.5 288.4 923.4 286.7Z" fill="#FFBB33"/>
<path d="M890.806 329.497C892.82 328.347 893.766 326.21 892.918 324.723C892.069 323.236 889.748 322.962 887.734 324.111C885.719 325.261 884.773 327.398 885.621 328.885C886.47 330.372 888.791 330.646 890.806 329.497Z" fill="#FFD86C"/>
<path d="M898 351.4C899.4 350.8 902 351.9 903.9 353.9C905.8 355.9 906.1 358.1 904.7 358.7C903.3 359.3 900.7 358.2 898.8 356.2C897 354.2 896.6 352 898 351.4Z" fill="#FFD86C"/>
<path d="M797.2 383.5C798.2 382 800.7 381.3 802.8 382.1C804.9 382.8 805.8 384.7 804.9 386.2C804 387.7 801.4 388.4 799.3 387.6C797.2 386.9 796.2 385 797.2 383.5Z" fill="#FFD86C"/>
<path d="M833.9 335.9C834.7 334.7 836.9 334.1 838.7 334.7C840.6 335.3 841.4 336.7 840.6 338C839.8 339.3 837.6 339.8 835.8 339.2C833.9 338.6 833.1 337.1 833.9 335.9Z" fill="#FFD86C"/>
<path d="M767.2 406.5C768 405.3 770.2 404.7 772 405.3C773.9 405.9 774.7 407.3 773.9 408.6C773.1 409.8 770.9 410.4 769.1 409.8C767.2 409.2 766.4 407.7 767.2 406.5Z" fill="#FFD86C"/>
<path d="M859.9 329.2C860.9 328.4 863.2 328.7 865 330C866.8 331.2 867.4 332.9 866.4 333.7C865.4 334.5 863.1 334.2 861.3 332.9C859.4 331.7 858.8 330 859.9 329.2Z" fill="#FFD86C"/>
<path d="M937.3 350.3C938.3 349.5 940.6 349.8 942.4 351.1C944.2 352.3 944.8 354 943.8 354.8C942.8 355.6 940.5 355.3 938.7 354C936.9 352.7 936.3 351.1 937.3 350.3Z" fill="#FFD243"/>
<path d="M958.525 293.637C959.072 292.552 957.918 290.866 955.945 289.87C953.973 288.874 951.931 288.947 951.383 290.031C950.836 291.116 951.99 292.802 953.962 293.798C955.934 294.794 957.977 294.721 958.525 293.637Z" fill="#FFBB33"/>
<path d="M960.1 334.7C961.1 333.9 963.4 334.2 965.2 335.5C967 336.7 967.6 338.4 966.6 339.2C965.6 340 963.3 339.7 961.5 338.4C959.6 337.2 959 335.5 960.1 334.7Z" fill="#FFC533"/>
<path d="M878.5 371.3C879.2 370 881.3 369.1 883.2 369.5C885 369.8 886 371.2 885.2 372.6C884.5 373.9 882.4 374.8 880.5 374.4C878.6 374 877.8 372.7 878.5 371.3Z" fill="#FFD86C"/>
<path d="M928.2 407.7C929.3 407 931.6 407.5 933.3 408.9C935 410.3 935.6 412 934.5 412.7C933.4 413.4 931.1 412.9 929.4 411.5C927.7 410.1 927.1 408.4 928.2 407.7Z" fill="#FFD243"/>
<path d="M962.9 371.899C963.5 370.399 965.4 368.999 967.2 368.899C969 368.799 970 369.999 969.5 371.499C968.9 372.999 967 374.399 965.2 374.499C963.3 374.599 962.3 373.399 962.9 371.899Z" fill="#FFD243"/>
<path d="M242.5 316.3L148.6 299.2C148.6 299.2 202.8 242.3 214.4 239.1C225.9 236 242.5 316.3 242.5 316.3Z" fill="#F7DDC9"/>
<path d="M198 294.8C218.6 275.6 226.2 250.9 214.9 239.5C214.8 239.4 214.6 239.2 214.5 239.1C226.1 236.5 242.5 316.2 242.5 316.2L183.8 305.5C188.6 302.7 193.5 299.1 198 294.8Z" fill="#EACDB9"/>
<path d="M213.3 239.7C213.4 238.4 214.5 237.6 215.8 237.8C217 238 218 239.2 217.9 240.5C217.8 241.8 216.7 242.6 215.4 242.4C214.1 242.2 213.2 241 213.3 239.7Z" fill="#9B5B50"/>
<path d="M232.9 267.3C232.9 267.3 228.5 271.5 221 266.7C221 266.7 223.1 239.4 215.7 240.2L215.4 239C220.2 231 231.6 239.6 232.9 267.3Z" fill="#FFE8D9"/>
<g opacity="0.5">
<path d="M201.5 292.8L203 289.6C200.7 287.2 200.4 283.9 201.6 281.4C202.9 278.7 205 278 208.2 278.7C210.9 279.2 212.2 279.1 213 277.5C213.6 276.3 213.5 274.3 211.6 272.9C210 271.7 208.6 271.6 207.9 271.6L208.3 269.1C209.3 269.1 210.6 269.4 212.1 270.4L213.5 267.4L215.1 268.6L213.6 271.7C215.7 273.9 216.2 276.9 215 279.5C213.7 282.2 211.4 282.4 208.3 281.8C206 281.3 204.5 281.7 203.7 283.4C202.9 285.2 203.4 287.3 205.2 288.6C206.6 289.6 208.2 290 209.5 290L209.1 292.5C207.8 292.6 206.1 292.1 204.6 291L203.1 294.1L201.5 292.8Z" fill="#723F3D"/>
</g>
<path d="M256.1 423H0L40.1 359.6L58.5 316.1L117.9 233.3L154.4 250.6L198.5 306.4L210.7 322.3L256.1 423Z" fill="#FFBB33"/>
<path d="M154.4 250.6L198.5 306.5L210.7 322.4L256.1 423H125.8C124 416.1 121.9 409.2 119.3 402.1C104.9 361.7 136.4 235.3 154.4 250.6Z" fill="#FFA02E"/>
<path d="M88.0999 322.9C88.2999 322 90.1999 322 92.3999 322.9C94.5999 323.8 96.1999 325.2 95.9999 326.1C95.7999 327 93.8999 327 91.6999 326.1C89.4999 325.2 87.8999 323.8 88.0999 322.9Z" fill="#FFD243"/>
<path d="M110.8 286.3C111.2 285.6 113.3 286.3 115.4 287.8C117.5 289.3 118.9 291.1 118.4 291.8C118 292.5 115.9 291.8 113.8 290.3C111.7 288.7 110.4 286.9 110.8 286.3Z" fill="#FFD243"/>
<path d="M98.9998 308.3C99.6998 307.9 101.2 309.5 102.3 311.9C103.4 314.2 103.8 316.4 103.1 316.8C102.4 317.2 100.9 315.6 99.7998 313.2C98.5998 310.9 98.2998 308.6 98.9998 308.3Z" fill="#FFD243"/>
<path d="M122.5 251.8C123.3 252.2 123.4 254.4 122.7 256.7C122 259 120.8 260.6 120 260.2C119.2 259.8 119.1 257.6 119.8 255.3C120.5 252.9 121.7 251.4 122.5 251.8Z" fill="#FFD243"/>
<path d="M99.6 348.7C101 347.6 104.1 347.5 106.5 348.6C108.9 349.7 109.7 351.5 108.3 352.6C106.9 353.7 103.8 353.8 101.4 352.7C99 351.6 98.2 349.8 99.6 348.7Z" fill="#FFD243"/>
<path d="M33.6002 325.3C33.4002 324.4 35.2002 323.7 37.5002 323.7C39.8002 323.7 41.9002 324.4 42.0002 325.3C42.2002 326.2 40.4002 326.9 38.1002 326.9C35.8002 326.9 33.7002 326.2 33.6002 325.3Z" fill="#FFBB33"/>
<path d="M121.1 408.299C121 407.399 122.9 406.9 125.3 407.2C127.7 407.5 129.6 408.399 129.7 409.299C129.8 410.199 127.9 410.7 125.5 410.4C123.1 410.1 121.1 409.099 121.1 408.299Z" fill="#FFBB33"/>
<path d="M38.2001 307.7C38.7001 307.1 40.7001 308 42.6001 309.7C44.5001 311.4 45.7001 313.4 45.2001 314C44.7001 314.6 42.7001 313.7 40.8001 312C38.8001 310.2 37.7001 308.3 38.2001 307.7Z" fill="#FFBB33"/>
<path d="M159 240.5C159.5 239.9 161.5 240.8 163.4 242.5C165.3 244.2 166.5 246.2 166 246.8C165.5 247.4 163.5 246.5 161.6 244.8C159.7 243.1 158.5 241.1 159 240.5Z" fill="#FFBB33"/>
<path d="M184.5 255.7C184.2 254.8 185.8 253.9 188.1 253.6C190.4 253.3 192.4 253.8 192.7 254.6C193 255.5 191.4 256.4 189.1 256.7C186.9 257.1 184.8 256.6 184.5 255.7Z" fill="#FFBB33"/>
<path d="M38.7999 246.5C39.6999 246.6 40.5999 248.6 40.7999 251C40.9999 253.4 40.4999 255.3 39.5999 255.2C38.6999 255.1 37.7999 253.1 37.5999 250.7C37.3999 248.3 37.8999 246.4 38.7999 246.5Z" fill="#FFBB33"/>
<path d="M101.5 368C101.2 366.4 103.1 365 105.7 365C108.3 365 110.7 366.3 111 368C111.3 369.6 109.4 371 106.8 371C104.1 370.9 101.8 369.6 101.5 368Z" fill="#FFBB33"/>
<path d="M176.2 315.7C176.2 314.5 178.2 314.5 180.7 315.9C183.2 317.2 185.3 319.3 185.3 320.5C185.3 321.7 183.3 321.7 180.8 320.3C178.3 319 176.3 317 176.2 315.7Z" fill="#FFBB33"/>
<path d="M128.6 338.4C127.8 337.3 129.2 336.1 131.7 335.6C134.2 335.2 136.9 335.7 137.7 336.8C138.5 337.9 137.1 339.1 134.6 339.6C132.1 340 129.4 339.5 128.6 338.4Z" fill="#FFBB33"/>
<path d="M143.8 260.599C143.1 259.399 144.7 258.399 147.3 258.299C149.9 258.199 152.6 258.999 153.2 260.199C153.9 261.299 152.3 262.399 149.7 262.499C147.2 262.599 144.5 261.699 143.8 260.599Z" fill="#FFBB33"/>
<path d="M130.1 277.5C129.9 276.3 131.9 276.1 134.5 277.2C137.1 278.3 139.3 280.2 139.5 281.4C139.7 282.6 137.7 282.8 135.1 281.7C132.5 280.7 130.2 278.8 130.1 277.5Z" fill="#FFBB33"/>
<path d="M82.7002 275.299C82.1002 274.099 83.6002 273.199 86.3002 273.099C88.9002 272.999 91.6002 273.899 92.2002 275.099C92.8002 276.299 91.3002 277.199 88.6002 277.299C86.0002 277.299 83.4002 276.399 82.7002 275.299Z" fill="#FFD243"/>
<path d="M147.5 308.5C146.9 307.3 148.4 306.4 151.1 306.3C153.7 306.2 156.4 307.1 157 308.3C157.6 309.5 156.1 310.4 153.4 310.5C150.8 310.6 148.2 309.7 147.5 308.5Z" fill="#FFBB33"/>
<path d="M166.281 281.389C166.694 280.424 164.888 278.727 162.247 277.598C159.606 276.469 157.131 276.336 156.719 277.301C156.306 278.266 158.112 279.963 160.753 281.092C163.394 282.221 165.869 282.354 166.281 281.389Z" fill="#FFBB33"/>
<path d="M98.6999 346.5C100.1 345.3 103.3 345.1 106 346C108.6 346.9 109.7 348.5 108.3 349.7C106.9 350.9 103.7 351.1 101 350.2C98.2999 349.3 97.2999 347.7 98.6999 346.5Z" fill="#FFBB33"/>
<path d="M127.4 237.3C128.6 235.9 131.6 235.2 134.2 235.8C136.8 236.4 137.9 237.9 136.8 239.3C135.6 240.7 132.6 241.4 130 240.8C127.4 240.3 126.3 238.7 127.4 237.3Z" fill="#FFD243"/>
<path d="M66.3001 304.1C67.5001 302.7 70.5001 302 73.1001 302.6C75.7001 303.2 76.8001 304.7 75.7001 306.1C74.5001 307.5 71.5001 308.2 68.9001 307.6C66.3001 307.1 65.2001 305.5 66.3001 304.1Z" fill="#FFD243"/>
<path d="M59.387 347.64C62.1389 347.039 64.1118 345.37 63.7935 343.913C63.4753 342.457 60.9865 341.763 58.2347 342.364C55.4828 342.965 53.5099 344.633 53.8281 346.09C54.1464 347.547 56.6351 348.241 59.387 347.64Z" fill="#FFD243"/>
<path d="M68.6999 379.8C70.4999 379.3 73.7999 380.2 76.1999 381.9C78.4999 383.6 78.9999 385.4 77.1999 386C75.3999 386.5 72.0999 385.6 69.6999 383.9C67.3999 382.2 66.8999 380.4 68.6999 379.8Z" fill="#FFD243"/>
<path d="M139.9 369.1C141.6 368.4 145 369.2 147.4 370.7C149.8 372.3 150.4 374.1 148.7 374.7C147 375.3 143.6 374.6 141.2 373.1C138.8 371.6 138.2 369.7 139.9 369.1Z" fill="#FFBB33"/>
<path d="M36.2002 395.599C37.2002 394.599 40.0002 394.099 42.3002 394.599C44.6002 395.099 45.7002 396.299 44.7002 397.399C43.7002 398.399 40.9002 398.899 38.6002 398.399C36.2002 397.899 35.1002 396.699 36.2002 395.599Z" fill="#FFD243"/>
<path d="M94.7002 404.8C95.4002 403.5 97.8002 402.3 100.1 402.2C102.4 402.1 103.7 403.1 103 404.4C102.3 405.7 99.9002 406.9 97.6002 407C95.3002 407.1 94.0002 406.1 94.7002 404.8Z" fill="#FFD243"/>
<path d="M688.5 423H465.8L500.7 367.8L516.6 330L568.3 258.1L600.1 273.1L638.4 321.6L649 335.4L688.5 423Z" fill="#FFBB33"/>
<path d="M600.1 273.099L638.4 321.699L649 335.499L688.5 423.099H575.2C573.6 417.099 571.8 411.099 569.6 404.899C557 369.699 584.5 259.799 600.1 273.099Z" fill="#FFA02E"/>
<path d="M542.4 335.9C542.6 335.1 544.2 335.1 546.1 335.9C548 336.7 549.4 337.9 549.2 338.7C549 339.5 547.4 339.5 545.5 338.7C543.6 337.9 542.2 336.7 542.4 335.9Z" fill="#FFD243"/>
<path d="M562.2 304.1C562.6 303.5 564.4 304.1 566.2 305.4C568 306.7 569.2 308.3 568.8 308.8C568.4 309.4 566.6 308.8 564.8 307.5C563 306.2 561.8 304.7 562.2 304.1Z" fill="#FFD243"/>
<path d="M551.9 323.2C552.5 322.9 553.8 324.3 554.8 326.3C555.8 328.3 556.1 330.2 555.5 330.6C554.9 331 553.6 329.5 552.6 327.5C551.6 325.5 551.3 323.6 551.9 323.2Z" fill="#FFD243"/>
<path d="M572.4 274.1C573.1 274.4 573.1 276.4 572.5 278.4C571.9 280.4 570.9 281.8 570.2 281.4C569.5 281.1 569.5 279.1 570.1 277.1C570.6 275.1 571.7 273.7 572.4 274.1Z" fill="#FFD243"/>
<path d="M552.5 358.4C553.7 357.4 556.4 357.4 558.5 358.3C560.6 359.2 561.3 360.8 560.1 361.8C558.9 362.8 556.2 362.8 554.1 361.9C551.9 360.9 551.2 359.4 552.5 358.4Z" fill="#FFD243"/>
<path d="M495 338C494.9 337.2 496.4 336.6 498.4 336.6C500.4 336.6 502.2 337.2 502.3 338C502.4 338.8 500.9 339.4 498.9 339.4C496.9 339.4 495.2 338.8 495 338Z" fill="#FFBB33"/>
<path d="M571.1 410.199C571 409.399 572.7 408.999 574.7 409.199C576.8 409.399 578.5 410.199 578.5 410.999C578.6 411.799 576.9 412.199 574.9 411.999C572.9 411.799 571.2 410.899 571.1 410.199Z" fill="#FFBB33"/>
<path d="M499 322.7C499.4 322.2 501.2 323 502.8 324.5C504.5 326 505.5 327.7 505 328.2C504.6 328.7 502.8 327.9 501.2 326.4C499.6 324.9 498.6 323.2 499 322.7Z" fill="#FFBB33"/>
<path d="M604.1 264.299C604.5 263.799 606.3 264.599 607.9 266.099C609.6 267.599 610.6 269.299 610.1 269.799C609.7 270.299 607.9 269.499 606.3 267.999C604.7 266.499 603.7 264.799 604.1 264.299Z" fill="#FFBB33"/>
<path d="M626.3 277.5C626.1 276.7 627.5 275.9 629.4 275.6C631.4 275.3 633.2 275.7 633.4 276.5C633.6 277.3 632.2 278.1 630.3 278.4C628.3 278.7 626.5 278.3 626.3 277.5Z" fill="#FFBB33"/>
<path d="M499.6 269.5C500.4 269.6 501.1 271.3 501.3 273.4C501.5 275.5 501 277.1 500.3 277.1C499.5 277 498.8 275.3 498.6 273.2C498.3 271 498.8 269.4 499.6 269.5Z" fill="#FFBB33"/>
<path d="M554.1 375.1C553.8 373.7 555.5 372.5 557.8 372.5C560.1 372.5 562.1 373.6 562.4 375.1C562.7 376.5 561 377.7 558.7 377.7C556.4 377.7 554.3 376.5 554.1 375.1Z" fill="#FFBB33"/>
<path d="M619.1 329.7C619.1 328.6 620.8 328.7 623 329.8C625.2 330.9 627 332.7 627 333.8C627 334.9 625.3 334.8 623.1 333.7C620.9 332.6 619.1 330.8 619.1 329.7Z" fill="#FFBB33"/>
<path d="M577.7 349.4C577 348.5 578.2 347.4 580.4 347C582.6 346.6 584.9 347.1 585.6 348C586.3 348.9 585.1 350 582.9 350.4C580.7 350.8 578.3 350.4 577.7 349.4Z" fill="#FFBB33"/>
<path d="M590.9 281.8C590.3 280.8 591.7 279.9 594 279.8C596.3 279.7 598.6 280.4 599.2 281.4C599.8 282.4 598.4 283.3 596.1 283.4C593.8 283.5 591.5 282.8 590.9 281.8Z" fill="#FFBB33"/>
<path d="M578.9 296.499C578.8 295.399 580.5 295.299 582.8 296.199C585.1 297.099 587 298.799 587.2 299.799C587.3 300.899 585.6 300.999 583.3 300.099C581 299.199 579.1 297.599 578.9 296.499Z" fill="#FFBB33"/>
<path d="M537.8 294.499C537.2 293.499 538.6 292.599 540.9 292.599C543.2 292.499 545.5 293.299 546 294.299C546.6 295.299 545.2 296.199 542.9 296.199C540.6 296.299 538.3 295.499 537.8 294.499Z" fill="#FFD243"/>
<path d="M594.1 323.4C593.5 322.4 594.9 321.5 597.2 321.5C599.5 321.4 601.8 322.2 602.3 323.2C602.9 324.2 601.5 325.1 599.2 325.1C597 325.2 594.7 324.5 594.1 323.4Z" fill="#FFBB33"/>
<path d="M610.402 299.794C610.771 298.931 609.218 297.439 606.932 296.462C604.647 295.485 602.495 295.393 602.126 296.256C601.757 297.119 603.311 298.611 605.596 299.588C607.881 300.565 610.033 300.657 610.402 299.794Z" fill="#FFBB33"/>
<path d="M551.6 356.499C552.8 355.499 555.6 355.299 557.9 356.099C560.2 356.899 561.1 358.299 559.9 359.299C558.7 360.299 555.9 360.499 553.6 359.699C551.3 358.899 550.4 357.499 551.6 356.499Z" fill="#FFBB33"/>
<path d="M576.6 261.499C577.6 260.299 580.2 259.699 582.5 260.199C584.7 260.699 585.8 262.099 584.8 263.299C583.8 264.499 581.2 265.099 578.9 264.599C576.6 264.099 575.6 262.799 576.6 261.499Z" fill="#FFD243"/>
<path d="M523.5 319.6C524.5 318.4 527.1 317.8 529.4 318.3C531.6 318.8 532.7 320.2 531.7 321.4C530.7 322.6 528.1 323.2 525.8 322.7C523.5 322.2 522.5 320.8 523.5 319.6Z" fill="#FFD243"/>
<path d="M517.444 357.538C519.872 357.008 521.611 355.528 521.329 354.233C521.046 352.938 518.848 352.318 516.42 352.848C513.992 353.379 512.253 354.858 512.536 356.153C512.818 357.448 515.016 358.068 517.444 357.538Z" fill="#FFD243"/>
<path d="M525.5 385.499C527 384.999 529.9 385.899 532 387.399C534 388.899 534.4 390.499 532.9 390.899C531.4 391.399 528.5 390.499 526.4 388.999C524.4 387.499 524 385.899 525.5 385.499Z" fill="#FFD243"/>
<path d="M587.5 376.1C589 375.5 591.9 376.2 594 377.5C596.1 378.9 596.6 380.4 595.1 381C593.6 381.6 590.7 380.9 588.6 379.6C586.5 378.2 586 376.7 587.5 376.1Z" fill="#FFBB33"/>
<path d="M497.3 399.2C498.2 398.3 500.6 397.9 502.6 398.3C504.6 398.7 505.6 399.8 504.7 400.7C503.8 401.6 501.4 402 499.4 401.6C497.3 401.2 496.4 400.1 497.3 399.2Z" fill="#FFD243"/>
<path d="M548.2 407.2C548.8 406.1 550.9 405.1 552.9 405C554.9 404.9 556 405.8 555.4 406.9C554.8 408 552.7 409 550.7 409.1C548.7 409.2 547.6 408.3 548.2 407.2Z" fill="#FFD243"/>
<path d="M997 423H872.5C872.5 423 903.3 359.8 938.3 358.4C957.6 357.7 997 423 997 423Z" fill="#EDD9C0"/>
<path d="M942.8 359.301C963 366.701 997 423.001 997 423.001H936.3C948.9 402.201 952 376.901 942.8 359.301Z" fill="#DDC5AB"/>
<path d="M939 358.9C938.6 357.8 939.4 356.9 940.6 356.9C941.8 356.9 943.1 357.8 943.5 358.9C943.9 360 943.1 360.9 941.9 360.9C940.7 360.9 939.4 360 939 358.9Z" fill="#895A49"/>
<path d="M961.4 391.801C957.3 374.301 947.7 361.801 941.2 359.001C940.8 358.801 940.7 358.101 941.1 358.001C946.3 356.901 961.6 355.301 970.7 373.701C972.2 376.701 965.5 373.901 965.1 379.001C964.4 387.501 961.4 391.801 961.4 391.801Z" fill="#EDD7BC"/>
<g opacity="0.5">
<path d="M931.8 410.901L932.5 406.201C928.2 404.901 926.4 401.201 926.9 397.601C927.5 393.501 930.1 391.401 934.8 390.101C938.8 388.901 940.6 387.901 940.9 385.601C941.2 383.801 940.3 381.501 937 381.101C934.3 380.801 932.3 381.501 931.4 382.001L930.8 378.901C932.2 378.301 934 377.801 936.6 378.001L937.3 373.601L940 373.901L939.3 378.501C943.1 379.701 945.2 382.901 944.6 386.701C944 390.701 941 392.401 936.3 393.701C932.9 394.701 931 396.001 930.6 398.501C930.2 401.101 932 403.201 935 403.601C937.4 403.901 939.8 403.301 941.5 402.401L942.1 405.601C940.4 406.601 937.7 407.101 935.2 406.801L934.5 411.401L931.8 410.901Z" fill="#723F3D"/>
</g>
<path d="M340.5 204.6C341.4 204.1 340.5 203.1 338.5 203.5C317.9 208.2 314.4 223.5 314.4 223.5C314.4 223.5 319.2 235.4 327.7 231.4C327.6 231.4 334.3 208 340.5 204.6Z" fill="#D8BD9C"/>
<path d="M287.1 250.1L389.7 269.4C386.8 248.5 345.7 200.5 339.5 204C332.8 207.9 287.1 250.1 287.1 250.1Z" fill="#E5CFB1"/>
<path d="M340.4 203.801C348.9 204.301 386.9 249.301 389.7 269.401L342 260.401C355.5 234.401 354.5 210.801 340.4 203.801Z" fill="#D8BD9C"/>
<g opacity="0.5">
<path d="M320.4 239.6L322.7 236.3C321.2 235.3 320 233.6 319.6 232.2L321.8 230.5C322.2 231.9 323.1 233.5 324.6 234.4C326.3 235.6 328.3 235.1 329.4 233.4C330.5 231.8 330.3 230.1 329.2 228C327.7 224.9 327.1 222.3 328.9 219.8C330.6 217.5 333 217 335.2 218.5L337 215.9L338.1 217.1L336.4 219.6C337.5 220.8 338 222 338.2 222.9L336.6 224.2C336.4 223.5 336 222.2 334.8 221C333.3 219.5 331.8 220.1 331 221.3C330 222.8 330.3 224.2 331.5 226.8C332.9 229.8 333 232.1 331.3 234.6C329.8 236.9 327.1 238.3 324.3 237.3L322 240.7L320.4 239.6Z" fill="#723F3D"/>
</g>
<path d="M97.7998 419.6L172.1 408.4C172.1 408.4 138 350.4 123.8 347.3C109.7 344.1 97.7998 419.6 97.7998 419.6Z" fill="#D8BD9C"/>
<path d="M98.4998 415.7C100.6 388.9 103.9 371.3 117.2 351.4C126.7 352 140 386.8 135.8 413.9L97.8998 419.6C97.7998 419.6 98.2998 418.2 98.4998 415.7Z" fill="#E5CFB1"/>
<path d="M119 348.6C118.8 347.4 119.7 346.3 121 346.1C122.3 345.9 123.5 346.7 123.6 347.9C123.8 349.1 122.9 350.2 121.6 350.4C120.3 350.6 119.2 349.8 119 348.6Z" fill="#8E6050"/>
<g opacity="0.5">
<path d="M136.2 405.3L135.3 401.1C133.1 401.1 130.6 400.4 129 399.3L129.3 396.5C130.9 397.5 133.1 398.3 135.2 398.2C137.9 398.2 139.4 396.4 138.9 394.1C138.4 391.8 136.6 390.4 133.5 389.2C129.2 387.6 126.4 385.7 125.6 382.1C124.9 378.6 126.6 376 130 375.3L129.1 371.1H131.5L132.3 375.1C134.6 375.2 136.3 375.8 137.6 376.5L137.2 379.3C136.3 378.8 134.5 377.9 132 377.9C129 377.9 128.3 379.9 128.7 381.5C129.2 383.7 130.8 384.7 134.5 386.2C138.8 387.9 141.3 390.1 142.1 393.8C142.8 397.1 141.3 400.2 137.5 401L138.4 405.3H136.2Z" fill="#723F3D"/>
</g>
<path d="M120.1 348.2C119.1 348 119.9 346.6 122 346.4C144 344.2 149.7 358.7 149.7 358.7C149.7 358.7 146.3 372.7 137 371.4C137 371.5 126.9 349.5 120.1 348.2Z" fill="#E5CFB1"/>
<path d="M458.5 315.301C458.9 313.801 456.8 311.901 453.8 311.101C450.8 310.301 448 310.901 447.6 312.401C447.2 313.901 449.3 315.801 452.3 316.601C455.4 317.401 458.1 316.801 458.5 315.301Z" fill="#FFA02E"/>
<path d="M431.7 293C431.5 291.4 428.9 290.4 425.8 290.8C422.7 291.2 420.3 292.6 420.5 294.2C420.7 295.8 423.3 296.8 426.4 296.4C429.5 296.1 431.9 294.5 431.7 293Z" fill="#FFA02E"/>
<path d="M487.6 345.701C487.5 344.401 485 343.601 482.1 343.901C479.2 344.201 476.9 345.501 477 346.801C477.1 348.101 479.6 348.901 482.5 348.601C485.5 348.301 487.7 347.001 487.6 345.701Z" fill="#FFA02E"/>
<path d="M201 270.2C201 270.2 181.3 277.2 171.2 272.8L169.7 285C181.1 290.6 199.2 286.4 206.4 282.9L201 270.2Z" fill="#AAA743"/>
<path d="M88.8999 423H563.3L501.4 380.9L468.3 327.5L447.7 311.7L415.2 248.5L312.9 236.4L266.4 255.2L229.6 267.3L194.3 313.2L164.1 353.8L157.4 373.3L125.8 406.4L88.8999 423Z" fill="#FFBB33"/>
<path d="M239.8 421.3C311.2 375.8 356.6 303.2 357.5 241.7L312.9 236.5L266.5 255.3L229.7 267.3L194.3 313.2L164.1 353.8L157.5 373.4L125.8 406.5L88.8999 423H236.9C237.9 422.4 238.8 421.9 239.8 421.3Z" fill="#FFC533"/>
<path d="M424.3 307.201L436.4 312.001L452.3 386.301L486.3 423.001H563.3L501.4 380.901L468.3 327.501L447.7 311.701L415.2 248.501L356.5 241.601L384.1 254.701L424.3 307.201Z" fill="#FFA02E"/>
<path d="M315.4 236.4L289.3 245.9L276.6 257.3L314.7 243.4L351.1 240.7L315.4 236.4Z" fill="#FFA02E"/>
<path d="M192.1 280.1C191.9 278.1 189.6 276.6 187 276.8C184.4 277 182.4 278.8 182.6 280.8C182.8 282.8 185.1 284.3 187.7 284.1C190.3 283.9 192.3 282.1 192.1 280.1Z" fill="#C6BD46"/>
<path d="M466.6 340.3C465.8 339.1 462.8 339.7 459.9 341.5C456.9 343.4 455.2 345.8 455.9 347C456.6 348.2 459.7 347.6 462.6 345.8C465.5 343.9 467.3 341.5 466.6 340.3Z" fill="#FFC44D"/>
<path d="M487.9 362.6C487.7 361.2 484.8 360.4 481.3 360.8C477.8 361.2 475.1 362.6 475.3 364C475.5 365.4 478.4 366.2 481.9 365.8C485.4 365.5 488 364 487.9 362.6Z" fill="#FFC44D"/>
<path d="M426 359.801C425.6 358.501 422.5 358.201 419.2 359.301C415.9 360.401 413.5 362.301 414 363.701C414.4 365.001 417.5 365.301 420.8 364.201C424.1 363.001 426.4 361.101 426 359.801Z" fill="#FFD766"/>
<path d="M455.1 372.7C455 371.3 452.2 370.3 448.7 370.4C445.2 370.6 442.4 371.8 442.5 373.2C442.6 374.6 445.4 375.6 448.9 375.5C452.4 375.4 455.2 374.1 455.1 372.7Z" fill="#FFBB33"/>
<path d="M354.4 320.2C353.6 317.7 350.3 316.6 346.9 317.7C343.6 318.8 341.5 321.6 342.3 324.1C343.1 326.6 346.4 327.7 349.8 326.6C353.1 325.6 355.2 322.7 354.4 320.2Z" fill="#FFD766"/>
<path d="M262.2 285.5C261.8 284.2 258.7 283.9 255.4 285C252.1 286.1 249.7 288 250.2 289.4C250.6 290.7 253.7 291 257 289.9C260.3 288.8 262.7 286.8 262.2 285.5Z" fill="#FFD766"/>
<path d="M415.6 306C415.2 304.7 412.1 304.4 408.8 305.5C405.5 306.6 403.1 308.5 403.6 309.9C404 311.2 407.1 311.5 410.4 310.4C413.7 309.3 416 307.3 415.6 306Z" fill="#FFD766"/>
<path d="M302.7 269.4C302.3 268.1 299.2 267.8 295.9 268.9C292.6 270 290.2 271.9 290.7 273.3C291.1 274.6 294.2 274.9 297.5 273.8C300.7 272.7 303.1 270.8 302.7 269.4Z" fill="#FFD766"/>
<path d="M391.7 327.5C392.2 326.2 390 324.1 386.8 322.8C383.6 321.5 380.5 321.5 380 322.8C379.5 324.1 381.7 326.2 384.9 327.5C388.2 328.8 391.2 328.8 391.7 327.5Z" fill="#FFD766"/>
<path d="M269 341.901C269.5 340.601 267.3 338.501 264.1 337.201C260.9 335.901 257.8 335.901 257.3 337.201C256.8 338.501 259 340.601 262.2 341.901C265.4 343.201 268.5 343.201 269 341.901Z" fill="#FFD766"/>
<path d="M227.8 303.001C227.3 301.501 224.1 301.201 220.9 302.401C217.6 303.601 215.4 305.801 215.9 307.301C216.4 308.801 219.6 309.101 222.8 307.901C226.2 306.701 228.4 304.501 227.8 303.001Z" fill="#FFD766"/>
<path d="M216.1 344C215.4 342.2 212.2 341.7 208.9 342.9C205.6 344.1 203.6 346.7 204.3 348.5C205 350.3 208.2 350.8 211.5 349.6C214.7 348.4 216.8 345.9 216.1 344Z" fill="#FFD766"/>
<path d="M356.1 256.4C356.8 254.6 354.7 252.2 351.5 250.9C348.3 249.6 345.1 250 344.4 251.7C343.7 253.5 345.8 255.9 349 257.2C352.2 258.6 355.4 258.2 356.1 256.4Z" fill="#FFD766"/>
<path d="M338.7 353.7C338.6 352.3 335.8 351.3 332.3 351.4C328.8 351.5 326 352.8 326.1 354.2C326.2 355.6 329 356.6 332.5 356.5C336 356.4 338.7 355.1 338.7 353.7Z" fill="#FFD766"/>
<path d="M271.2 372.401C271.1 371.001 268.3 370.001 264.8 370.101C261.3 370.201 258.5 371.501 258.6 372.901C258.7 374.301 261.5 375.301 265 375.201C268.5 375.101 271.3 373.801 271.2 372.401Z" fill="#FFD766"/>
<path d="M380.6 367.1C380.5 364.5 377.6 362.6 374.1 362.7C370.6 362.8 367.9 365 368 367.6C368.1 370.2 371 372.1 374.5 372C378 371.8 380.7 369.6 380.6 367.1Z" fill="#FFD766"/>
<path d="M308.4 334.101C308.3 332.701 305.5 331.701 302 331.801C298.5 331.901 295.7 333.201 295.8 334.601C295.9 336.001 298.7 337.001 302.2 336.901C305.7 336.701 308.4 335.501 308.4 334.101Z" fill="#FFD766"/>
<path d="M340.9 298.901C341.4 297.601 339.2 295.501 336 294.201C332.8 292.901 329.7 292.901 329.2 294.201C328.7 295.501 330.9 297.601 334.1 298.901C337.4 300.301 340.4 300.201 340.9 298.901Z" fill="#FFD766"/>
<path d="M286.7 302.801C285.6 301.201 282.4 301.601 279.5 303.601C276.6 305.601 275.3 308.501 276.4 310.101C277.5 311.701 280.7 311.301 283.6 309.301C286.4 307.301 287.8 304.401 286.7 302.801Z" fill="#FFD766"/>
<path d="M306.9 383.5C306.1 381 302.8 379.9 299.4 381C296.1 382.1 294 384.9 294.8 387.4C295.6 389.9 298.9 391 302.3 389.9C305.6 388.9 307.7 386 306.9 383.5Z" fill="#FFD766"/>
<path d="M344.3 390.8C344.8 389.5 342.6 387.4 339.4 386.1C336.2 384.8 333.1 384.8 332.6 386.1C332.1 387.4 334.3 389.5 337.5 390.8C340.7 392.1 343.8 392.1 344.3 390.8Z" fill="#FFD766"/>
<path d="M221.5 405.2C222 403.9 219.8 401.8 216.6 400.5C213.4 399.2 210.3 399.2 209.8 400.5C209.3 401.8 211.5 403.9 214.7 405.2C217.9 406.5 221 406.5 221.5 405.2Z" fill="#FFD766"/>
<path d="M311 409.101C310.9 407.701 308.1 406.701 304.6 406.801C301.1 406.901 298.3 408.201 298.4 409.601C298.5 411.001 301.3 412.001 304.8 411.901C308.3 411.701 311 410.501 311 409.101Z" fill="#FFD766"/>
<path d="M169.9 401C169.8 399.6 167 398.6 163.5 398.7C160 398.8 157.2 400.1 157.3 401.5C157.4 402.9 160.2 403.9 163.7 403.8C167.2 403.7 169.9 402.4 169.9 401Z" fill="#FFD766"/>
<path d="M409.8 403.401C409.7 400.801 406.8 398.901 403.3 399.001C399.8 399.101 397.1 401.301 397.2 403.901C397.3 406.501 400.2 408.401 403.7 408.301C407.1 408.101 409.9 405.901 409.8 403.401Z" fill="#FFD766"/>
<path d="M506.7 399.1C506.6 397.6 503.8 396.4 500.3 396.6C496.8 396.7 494 398.1 494.1 399.7C494.2 401.2 497 402.4 500.5 402.2C504 402 506.8 400.6 506.7 399.1Z" fill="#FFBB33"/>
<path d="M442 388.901C441.9 387.401 439.1 386.201 435.6 386.401C432.1 386.501 429.3 387.901 429.4 389.501C429.5 391.001 432.3 392.201 435.8 392.001C439.3 391.801 442.1 390.401 442 388.901Z" fill="#FFD766"/>
<path d="M471.781 408.587C475.257 408.442 477.989 406.266 477.883 403.728C477.777 401.19 474.873 399.25 471.396 399.395C467.92 399.54 465.188 401.716 465.294 404.254C465.4 406.792 468.304 408.732 471.781 408.587Z" fill="#FFBB33"/>
<path d="M260.9 397.401C260.8 396.001 258 395.001 254.5 395.101C251 395.201 248.2 396.501 248.3 397.901C248.4 399.301 251.2 400.301 254.7 400.201C258.2 400.101 261 398.801 260.9 397.401Z" fill="#FFD766"/>
<path d="M239.2 366.101C238.1 364.501 234.9 364.901 232 366.901C229.1 368.901 227.8 371.801 228.9 373.401C230 375.001 233.2 374.601 236.1 372.601C238.9 370.601 240.3 367.701 239.2 366.101Z" fill="#FFD766"/>
<path d="M192.5 367.301C191.4 365.701 188.2 366.101 185.3 368.101C182.4 370.101 181.1 373.001 182.2 374.601C183.3 376.201 186.5 375.801 189.4 373.801C192.2 371.801 193.6 368.901 192.5 367.301Z" fill="#FFD766"/>
<path d="M267.2 261.8C267.7 260.5 265.5 258.4 262.3 257.1C259.1 255.8 256 255.8 255.5 257.1C255 258.4 257.2 260.5 260.4 261.8C263.7 263.1 266.7 263.1 267.2 261.8Z" fill="#FFD766"/>
<path d="M442.1 333.401C442.2 331.201 439.4 329.401 435.9 329.201C432.4 329.001 429.5 330.701 429.4 332.901C429.3 335.101 432.1 336.901 435.6 337.101C439.1 337.201 442 335.601 442.1 333.401Z" fill="#FFC44D"/>
<path d="M395.9 307.601C395.9 307.601 375.7 313.001 366 307.801L363.5 319.801C374.4 326.201 392.8 323.501 400.2 320.601L395.9 307.601Z" fill="#FFA02E"/>
<path d="M394.3 301.9C394.3 301.9 373.4 302 365.4 294.5L359.9 305.5C368.8 314.5 387.3 316.7 395.2 315.7L394.3 301.9Z" fill="#AAA743"/>
<path d="M381.6 309.2C382.6 307.4 381.6 304.9 379.3 303.5C377 302.1 374.4 302.4 373.4 304.2C372.4 306 373.4 308.5 375.7 309.9C378 311.3 380.6 310.9 381.6 309.2Z" fill="#C6BD46"/>
<path d="M185.5 341.701C185.5 341.701 168 330.301 165.4 319.601L154.8 325.801C157.3 338.201 171.6 350.101 178.7 353.701L185.5 341.701Z" fill="#AAA743"/>
<path d="M171.2 341.401C172.9 340.301 173.1 337.501 171.7 335.301C170.3 333.101 167.8 332.201 166.1 333.301C164.4 334.401 164.2 337.201 165.6 339.401C167 341.701 169.5 342.601 171.2 341.401Z" fill="#C6BD46"/>
<path d="M206.2 329.1L194.4 325.5C187 335.8 188 354.4 190.2 362L203.6 358.9C203.7 358.9 200.1 338.3 206.2 329.1Z" fill="#FFA02E"/>
<path d="M422.2 384.5C434.7 402.5 484.6 420.1 484.6 420.1L503.4 404L422.2 384.5Z" fill="#FFA02E"/>
<path d="M480.7 342.1C494.2 336 501.3 335.4 501.9 355.6C502.1 363.5 508 374.5 508 374.5C508 374.5 498.1 384.4 491.9 374.7C485.7 365.1 491.6 352.5 487.5 347.6C483.3 342.7 480.7 342.1 480.7 342.1Z" fill="#C1A385"/>
<path d="M486.9 345C487.3 342.4 486.3 340 484.6 339.6C482.9 339.3 481.3 341.1 480.9 343.7C480.5 346.3 481.5 348.7 483.2 349.1C484.9 349.4 486.5 347.6 486.9 345Z" fill="#8C735A"/>
<path d="M422.2 384.5C446.8 402.3 474.3 406.9 503.3 404C503.3 404 487.4 343.5 483.9 342.3C457.4 333.4 422.2 384.5 422.2 384.5Z" fill="#E5CFB1"/>
<path d="M484.4 346.5C488.3 362.9 472.8 390.8 455.1 400.6C470.8 404.9 486.9 405.9 503.3 404.1C503.3 404.1 487.4 343.6 483.9 342.4C483.6 342.3 483.3 342.2 483 342.1C483.6 343.5 484.1 344.9 484.4 346.5Z" fill="#D8BD9C"/>
<g opacity="0.3">
<path d="M459.4 379.399L461 375.999C458.9 375.299 457.1 373.999 456.2 372.799L458.1 370.799C459 371.999 460.6 373.299 462.6 373.899C465.1 374.699 467.5 373.899 468.4 371.999C469.2 370.199 468.4 368.599 466.2 366.699C463.2 364.199 461.7 361.899 463 358.999C464.3 356.199 467.4 354.799 470.9 355.299L472.5 351.899L474.7 352.599L473.2 355.899C475.3 356.699 476.5 357.699 477.3 358.599L475.4 360.499C474.8 359.899 473.7 358.599 471.4 357.899C468.7 356.999 466.9 358.199 466.3 359.599C465.5 361.299 466.4 362.599 469 364.899C472 367.499 473.1 369.799 471.7 372.799C470.5 375.499 467.4 377.299 463.4 376.699L461.8 380.199L459.4 379.399Z" fill="#723F3D"/>
</g>
<path d="M481 342.899C484.4 353.999 475.7 372.699 471.4 376.899C471.4 376.899 479.2 372.399 483 357.999C485.4 348.999 481 342.899 481 342.899Z" fill="#D8BD9C"/>
<path d="M525.8 370.4C525.7 368.9 523.3 367.9 520.4 368C517.5 368.1 515.2 369.4 515.3 370.9C515.4 372.4 517.8 373.4 520.7 373.3C523.6 373.1 525.9 371.9 525.8 370.4Z" fill="#FFBB33"/>
<path d="M587.6 386.599C587.1 385.499 584.7 385.399 582.2 386.499C579.7 387.599 578 389.399 578.5 390.499C579 391.599 581.4 391.699 583.9 390.599C586.4 389.499 588.1 387.699 587.6 386.599Z" fill="#FFBB33"/>
<path d="M540.9 394.4C539.9 393.5 537.4 394.9 535.3 397.3C533.2 399.8 532.3 402.5 533.3 403.3C534.3 404.2 536.8 402.8 538.9 400.4C541 397.9 541.9 395.3 540.9 394.4Z" fill="#FFBB33"/>
<path d="M565 404.399C564.5 403.199 561.6 403.299 558.7 404.599C555.7 405.899 553.7 407.899 554.2 409.099C554.7 410.299 557.6 410.199 560.5 408.899C563.6 407.599 565.6 405.599 565 404.399Z" fill="#FFBB33"/>
<path d="M522.7 405.9C521.9 404.9 519.2 405.7 516.6 407.8C514.1 409.9 512.7 412.4 513.6 413.4C514.4 414.4 517.1 413.6 519.7 411.5C522.2 409.4 523.6 406.9 522.7 405.9Z" fill="#FFBB33"/>
<path d="M548.6 374.5C548.3 373.4 545.4 373.4 542.1 374.4C538.9 375.4 536.5 377.1 536.9 378.2C537.2 379.3 540.1 379.3 543.4 378.3C546.6 377.2 548.9 375.6 548.6 374.5Z" fill="#FFBB33"/>
<path d="M533.2 343.7C533.6 342.6 531.2 340.9 528 339.8C524.8 338.7 521.9 338.7 521.5 339.8C521.1 340.9 523.5 342.6 526.7 343.7C530 344.8 532.9 344.7 533.2 343.7Z" fill="#FFBB33"/>
<path d="M527.532 386.082C527.87 382.175 526.984 378.908 525.554 378.784C524.123 378.66 522.689 381.727 522.351 385.633C522.012 389.54 522.898 392.807 524.329 392.931C525.759 393.055 527.193 389.989 527.532 386.082Z" fill="#FFBB33"/>
<path d="M170.4 221.5C170.4 221.5 191.1 218.5 200.1 224.9L204 213.3C194 205.6 175.3 206 167.7 208.1L170.4 221.5Z" fill="#AAA743"/>
<path d="M191.7 216C192.1 214 190.4 211.9 187.8 211.3C185.2 210.7 182.8 211.8 182.4 213.8C182 215.8 183.7 217.9 186.3 218.5C188.9 219.1 191.3 218 191.7 216Z" fill="#C6BD46"/>
<path d="M964.5 230.4C964.5 230.4 948.8 244.1 937.7 243.7L940.7 255.6C953.3 256.6 968.7 246.1 974 240.2L964.5 230.4Z" fill="#AAA743"/>
<path d="M960.3 244.1C959.7 242.2 957.1 241.2 954.6 242C952.1 242.7 950.5 244.9 951.2 246.8C951.8 248.7 954.4 249.7 956.9 248.9C959.4 248.2 960.9 246.1 960.3 244.1Z" fill="#C6BD46"/>
<path d="M476.2 268.7C476.2 268.7 473.6 289.4 465.2 296.5L475.4 303.4C485.5 295.7 489.9 277.7 490 269.7L476.2 268.7Z" fill="#AAA743"/>
<path d="M482.2 281.7C480.4 280.7 477.9 281.7 476.5 283.9C475.1 286.1 475.4 288.8 477.2 289.8C479 290.8 481.5 289.8 482.9 287.6C484.3 285.3 484 282.7 482.2 281.7Z" fill="#C6BD46"/>
<path d="M717.5 186.4C717.5 186.4 706.9 204.4 696.3 207.5L702.9 217.8C715.2 214.8 726.5 199.9 729.7 192.7L717.5 186.4Z" fill="#AAA743"/>
<path d="M717.9 200.701C716.7 199.101 714 199.001 711.8 200.501C709.6 202.001 708.9 204.601 710.1 206.201C711.3 207.801 714 207.901 716.2 206.401C718.3 204.901 719.1 202.401 717.9 200.701Z" fill="#C6BD46"/>
<path d="M941.7 152C941.7 152 921.9 156.7 912.6 151.3L909.8 162.9C920.2 169.5 938.2 167.4 945.5 164.8L941.7 152Z" fill="#AAA743"/>
<path d="M932.4 161.8C933 159.9 931.4 157.7 929 156.9C926.6 156.1 924.1 157 923.6 158.9C923 160.8 924.6 163 927 163.8C929.4 164.6 931.9 163.7 932.4 161.8Z" fill="#C6BD46"/>
<path d="M639.4 255.9C639.4 255.9 623.9 242.8 622.7 232.1L611.7 236.8C612.6 249.1 624.9 262.4 631.4 266.7L639.4 255.9Z" fill="#AAA743"/>
<path d="M626 254.199C627.9 253.499 628.7 250.999 627.9 248.599C627.1 246.199 624.9 244.699 623.1 245.399C621.2 246.099 620.4 248.599 621.2 250.999C621.9 253.499 624.1 254.899 626 254.199Z" fill="#C6BD46"/>
<path d="M871 215.8C871 215.8 852.4 224 842.2 220.3L841.5 232.3C852.9 236.9 870.3 231.7 877 227.8L871 215.8Z" fill="#AAA743"/>
<path d="M863.7 227.1C863.9 225.1 862 223.3 859.5 222.9C857 222.5 854.7 223.9 854.5 225.8C854.3 227.8 856.2 229.6 858.7 230C861.2 230.4 863.5 229.1 863.7 227.1Z" fill="#C6BD46"/>
<path d="M428.4 230C428.4 230 411.2 226.4 405.9 218.8L399.5 226.9C405.2 235.9 420 240.9 426.7 241.5L428.4 230Z" fill="#AAA743"/>
<path d="M417.5 234.3C418.6 233 418.2 230.8 416.6 229.2C415 227.7 412.8 227.5 411.6 228.8C410.5 230.1 410.9 232.3 412.5 233.9C414.2 235.3 416.4 235.5 417.5 234.3Z" fill="#C6BD46"/>
<path d="M68.8998 242.5C68.8998 242.5 47.9998 241.9 40.1998 234.1L34.2998 244.9C42.8998 254.2 61.2998 256.9 69.1998 256.2L68.8998 242.5Z" fill="#AAA743"/>
<path d="M57.0998 249.799C58.1998 248.099 57.1998 245.499 54.9998 244.099C52.7998 242.699 50.0998 242.899 49.0998 244.599C47.9998 246.299 48.9998 248.899 51.1998 250.299C53.3998 251.699 56.0998 251.499 57.0998 249.799Z" fill="#C6BD46"/>
<path d="M806 251.3C806 251.3 785.1 250.7 777.3 242.9L771.4 253.7C780 263 798.4 265.7 806.3 265L806 251.3Z" fill="#AAA743"/>
<path d="M793.1 258.201C794.2 256.501 793.2 253.901 791 252.501C788.8 251.101 786.1 251.301 785.1 253.001C784 254.701 785 257.301 787.2 258.701C789.4 260.201 792 259.901 793.1 258.201Z" fill="#C6BD46"/>
<path d="M77.7001 172.6C77.7001 172.6 62.1001 186.5 51.1001 186.2L54.3001 198.1C66.9001 199 82.2001 188.3 87.5001 182.3L77.7001 172.6Z" fill="#AAA743"/>
<path d="M73.0002 186.5C72.6002 184.5 70.1002 183.3 67.5002 183.8C64.9002 184.3 63.1002 186.3 63.6002 188.2C64.0002 190.2 66.5002 191.4 69.1002 190.9C71.7002 190.4 73.5002 188.5 73.0002 186.5Z" fill="#C6BD46"/>
</g>
</g>
<defs>
<clipPath id="clip0_706_6413">
<rect width="1056" height="423" fill="white"/>
</clipPath>
<clipPath id="clip1_706_6413">
<rect width="1056.4" height="423" fill="white"/>
</clipPath>
</defs>
</svg>
