<?xml version="1.0" encoding="UTF-8"?>
<svg width="51px" height="54px" viewBox="0 0 51 54" version="1.1" xmlns="http://www.w3.org/2000/svg" xmlns:xlink="http://www.w3.org/1999/xlink">
    <title>download 1</title>
    <defs>
        <rect id="path-1" x="0" y="0" width="51" height="54"></rect>
    </defs>
    <g id="Page-1" stroke="none" stroke-width="1" fill="none" fill-rule="evenodd">
        <g id="index" transform="translate(-173.000000, -261.000000)">
            <g id="download-1" transform="translate(173.000000, 261.000000)">
                <mask id="mask-2" fill="white">
                    <use xlink:href="#path-1"></use>
                </mask>
                <g id="Clip" fill-rule="nonzero"></g>
                <g id="Group" mask="url(#mask-2)" fill-rule="nonzero" stroke="#29193E" stroke-linecap="round" stroke-linejoin="round" stroke-width="1.42762005">
                    <g transform="translate(1.593750, 1.588235)" id="Vector">
                        <path d="M47.6872291,28.5062835 C47.6872291,41.2471078 36.513448,50.7890655 24.9280016,50.8235302 C12.142939,50.8235302 7.05473409,43.3168961 5.40058107,40.6983725 C4.29781239,38.9526901 2.66002179,34.7269777 0.48720929,28.0212351 L43.696957,12.7951565 C45.8372572,17.3050998 47.1673479,22.5421421 47.6872291,28.5062835 Z" fill="#972E8C"></path>
                        <path d="M23.149538,46.1388702 C35.9346014,46.1388702 46.2990761,35.8102591 46.2990761,23.0694351 C46.2990761,10.3285323 35.9346014,0 23.149538,0 C10.3643956,0 0,10.3285323 0,23.0694351 C0,35.8102591 10.3643956,46.1388702 23.149538,46.1388702 Z" fill="#972E8C"></path>
                        <line x1="43.0935669" y1="34.9842186" x2="43.9780986" y2="39.6306024" fill="none"></line>
                        <line x1="40.061615" y1="39.0126152" x2="40.9463048" y2="43.658999" fill="none"></line>
                    </g>
                </g>
                <path d="M30.9327752,16.4310881 C29.931422,13.8949781 27.4201499,13.666066 24.4959375,14.2319225 L23.4544225,10.6143513 L21.2451664,11.2457854 L22.2594277,14.7694766 C21.6788246,14.9340178 21.0877035,15.1166645 20.500566,15.2967704 L19.4810442,11.7498913 L17.2730633,12.3800554 L18.3118698,15.9976593 C17.8369323,16.1442534 17.3698042,16.2883051 16.9117605,16.4194934 L16.9077753,16.4066294 L13.8597279,17.2771404 L14.5372315,19.6305876 C15.6194942,19.2980114 16.1541975,19.144535 16.1413412,19.1701585 C17.0368693,18.9142938 17.476903,19.3489933 17.689828,19.7720992 L18.8771715,23.8924586 C18.937734,23.8757821 19.0190155,23.8551349 19.1146405,23.8409996 L18.8809972,23.9078642 L20.5418439,29.6822133 C20.583122,29.9741309 20.5469447,30.469184 19.922354,30.6492899 C19.9456228,30.6604075 19.4096443,30.8129832 18.3144187,31.1070169 L18.6331684,33.8630818 L21.5084527,33.0399008 C22.0439527,32.8894949 22.5730786,32.7479816 23.0905692,32.6026581 L24.1448348,36.2614765 L26.3515405,35.6312647 L25.3101851,32.0111988 C25.9021038,31.8545988 26.4922693,31.6916471 27.0806818,31.5225 L28.1156611,35.1271588 L30.326352,34.4956762 L29.2759121,30.8433723 C32.9292651,29.5689722 35.2610797,27.8933829 34.5835766,24.3233473 C34.0389923,21.4503884 32.3588623,20.5784471 30.1043436,20.6761236 C31.1986124,19.6602883 31.6697251,18.2855117 30.9327752,16.4310881 Z M30.0939839,25.1373176 C30.881137,27.8727354 26.0935122,28.9041344 24.5965029,29.3335932 L23.2014944,24.4853477 C24.6985037,24.0571595 29.271929,22.2862766 30.0927102,25.1385884 L30.0939839,25.1373176 Z M27.0975742,18.5915647 C27.812371,21.0800118 23.8106245,21.9093886 22.5627183,22.2656297 L21.2980778,17.8687587 C22.544709,17.5125175 26.3502648,15.9963883 27.0975742,18.5915647 Z" id="Vector" fill="#FFFFFF" fill-rule="nonzero" mask="url(#mask-2)"></path>
            </g>
        </g>
    </g>
</svg>