<?xml version="1.0" encoding="UTF-8"?>
<svg width="57px" height="61px" viewBox="0 0 57 61" version="1.1" xmlns="http://www.w3.org/2000/svg" xmlns:xlink="http://www.w3.org/1999/xlink">
    <title>download-4 1</title>
    <defs>
        <rect id="path-1" x="0" y="0" width="57" height="61"></rect>
    </defs>
    <g id="Page-1" stroke="none" stroke-width="1" fill="none" fill-rule="evenodd">
        <g id="index" transform="translate(-1300.000000, -252.000000)">
            <g id="download-4-1" transform="translate(1300.000000, 252.000000)">
                <mask id="mask-2" fill="white">
                    <use xlink:href="#path-1"></use>
                </mask>
                <g id="Clip" fill-rule="nonzero"></g>
                <g id="Group" mask="url(#mask-2)" fill-rule="nonzero" stroke="#29193E" stroke-linecap="round" stroke-linejoin="round" stroke-width="1.71701002">
                    <g transform="translate(1.500000, 1.487805)" id="Vector">
                        <path d="M53.9791524,32.1166485 C53.9791524,46.4711389 41.3309986,57.2217178 28.2167985,57.2605495 C13.7446482,57.2605495 7.98495009,48.8031277 6.11250009,45.8529593 C4.86420009,43.8861804 3.01030007,39.1253033 0.550800025,31.5703281 L49.4623523,14.4156399 C51.8850523,19.4968895 53.3906523,25.3972257 53.9791524,32.1166485 Z" fill="#50AF95"></path>
                        <path d="M26.2042503,51.9824142 C40.6764007,51.9824142 52.4085007,40.3456974 52.4085007,25.9912071 C52.4085007,11.6366572 40.6764007,0 26.2042503,0 C11.7320399,0 0,11.6366572 0,25.9912071 C0,40.3456974 11.7320399,51.9824142 26.2042503,51.9824142 Z" fill="#50AF95"></path>
                        <line x1="48.7792511" y1="39.415226" x2="49.7806492" y2="44.6502142" fill="none"></line>
                        <line x1="45.3486023" y1="43.953476" x2="46.3500004" y2="49.1883192" fill="none"></line>
                    </g>
                </g>
                <path d="M30.6492,27.9354713 L30.6482987,27.93294 C30.5087987,27.9924522 29.7859503,28.2898645 28.1392503,28.8555279 C26.8245003,29.3070767 25.8853493,29.586191 25.5545993,29.6824519 L25.5559497,29.6863198 C20.4175496,31.2040296 16.3347002,31.6273098 15.9696002,30.5815318 C15.6049502,29.536944 19.0774486,27.3653437 24.0602984,25.4023339 L25.252049,28.8161028 C25.590899,28.7257931 26.5579502,28.455756 27.8674502,28.0059925 C29.4387003,27.4663657 30.2036992,27.1313121 30.3463492,27.0677828 L29.1548991,23.6553533 C34.283699,22.1438923 38.3573977,21.7235882 38.7215977,22.7668371 C39.0868477,23.8126151 35.62245,25.9785615 30.6492,27.9354713 Z M29.0309997,23.3002144 L27.9643502,20.2453047 L35.0120997,17.8246463 L33.3856483,13.1660318 L14.196434,19.7570067 L15.8228998,24.4156212 L22.8706493,21.9948138 L23.9366994,25.048533 C18.2999992,27.2766696 14.3855989,29.8819655 14.8562989,31.2300655 C15.3268489,32.5780168 20.0269506,32.2230256 25.8462005,30.5178524 L29.2640986,40.3076086 L34.3577981,38.557952 L30.9391503,28.7656645 C36.5667002,26.5408011 40.4710499,23.9402675 40.0009499,22.5935065 C39.5306999,21.2468943 34.8410996,21.5981655 29.0309997,23.3002144 Z" id="Vector" fill="#FFFFFF" mask="url(#mask-2)"></path>
            </g>
        </g>
    </g>
</svg>