<?xml version="1.0" encoding="UTF-8"?>
<svg width="36px" height="39px" viewBox="0 0 36 39" version="1.1" xmlns="http://www.w3.org/2000/svg" xmlns:xlink="http://www.w3.org/1999/xlink">
    <title>download-2 1</title>
    <defs>
        <rect id="path-1" x="0" y="0" width="36" height="39"></rect>
    </defs>
    <g id="Page-1" stroke="none" stroke-width="1" fill="none" fill-rule="evenodd">
        <g id="index" transform="translate(-103.000000, -355.000000)">
            <g id="download-2-1" transform="translate(103.000000, 355.000000)">
                <mask id="mask-2" fill="white">
                    <use xlink:href="#path-1"></use>
                </mask>
                <g id="Clip" fill-rule="nonzero"></g>
                <g id="Group" mask="url(#mask-2)" fill-rule="nonzero" stroke="#29193E" stroke-linecap="round" stroke-linejoin="round" stroke-width="1.09468997">
                    <g transform="translate(1.440000, 1.444704)" id="Vector">
                        <path d="M33.0386409,19.879628 C33.0386409,28.7644057 25.2972007,35.4189627 17.2706406,35.4420738 C8.41286925,35.4420738 4.88764816,30.2074066 3.74160973,28.3816288 C2.97757449,27.1644436 1.84287364,24.217777 0.337507159,19.5416291 L30.2741291,8.92207336 C31.7569449,12.068073 32.6784489,15.7205913 33.0386409,19.879628 Z" fill="#31CB9E"></path>
                        <path d="M16.0384331,32.1758957 C24.8961612,32.1758957 32.0768661,24.9730261 32.0768661,16.0879602 C32.0768661,7.20282205 24.8961612,0 16.0384331,0 C7.18064724,0 0,7.20282205 0,16.0879602 C0,24.9730261 7.18064724,32.1758957 16.0384331,32.1758957 Z" fill="#31CB9E"></path>
                        <line x1="29.8560963" y1="24.3964062" x2="30.4689603" y2="27.6377416" fill="none"></line>
                        <line x1="27.7551365" y1="27.2058506" x2="28.3680006" y2="30.4457395" fill="none"></line>
                    </g>
                </g>
                <path d="M16.8449764,18.0468896 L23.6301121,18.9641104 C23.6851201,18.972777 23.7414246,18.9669999 23.7932646,18.9453333 C23.8451046,18.925111 23.8906076,18.8918891 23.9250236,18.8471113 C23.9595836,18.803778 23.9816177,18.7517772 23.9892497,18.6954439 C23.9968817,18.640555 23.9896794,18.5842218 23.9683674,18.5322218 L21.6070567,12.7082366 C21.5866087,12.6562366 21.5527683,12.6100006 21.5087043,12.5753339 C21.4647843,12.5406672 21.4123682,12.5190148 21.3569282,12.5117926 C21.3016322,12.5045704 21.2453281,12.513223 21.1940641,12.5348897 C21.1428001,12.5565563 21.0984481,12.5926662 21.0656161,12.637444 L16.8449764,18.0468896 Z" id="Vector" fill="#FFFFFF" fill-rule="nonzero" mask="url(#mask-2)"></path>
                <path d="M20.380896,11.2854733 L15.4936787,10.0446953 C15.4425587,10.0302508 15.3887028,10.0287922 15.3370068,10.0403478 C15.2853108,10.0519034 15.2372156,10.0764586 15.1970396,10.1111253 C15.1568636,10.1457919 15.125759,10.1905838 15.106607,10.2396949 C15.087455,10.288806 15.0806879,10.3436953 15.0870239,10.3956953 L16.2197267,17.1383324 L20.5403035,11.7736801 C20.5738555,11.7346801 20.5967512,11.6870145 20.6068312,11.6364589 C20.6169112,11.5859033 20.6137431,11.5339171 20.5976151,11.484806 C20.5816311,11.4356949 20.5532638,11.3923474 20.5152478,11.3562363 C20.4773758,11.3215697 20.431008,11.2970289 20.380896,11.2854733 Z" id="Vector" fill="#FFFFFF" fill-rule="nonzero" mask="url(#mask-2)"></path>
                <path d="M21.4392957,24.7231096 L24.080545,20.4114435 C24.108769,20.3681101 24.1251841,20.3175548 24.1283521,20.2655548 C24.1315201,20.2135548 24.121297,20.1601111 24.098689,20.1138888 C24.075937,20.0662222 24.0416627,20.0257772 23.9988946,19.9968884 C23.9561266,19.966555 23.9064485,19.9477777 23.8546085,19.9434443 L17.0254078,19.1258888 L20.9054879,24.7476654 C20.9363039,24.7909987 20.977487,24.8271114 21.025151,24.8502225 C21.072815,24.8733336 21.1255201,24.8848874 21.1786561,24.883443 C21.2317921,24.8805541 21.2836322,24.8661095 21.3294242,24.838665 C21.3752162,24.8112206 21.4135193,24.7736655 21.4410233,24.7274433" id="Vector" fill="#FFFFFF" fill-rule="nonzero" mask="url(#mask-2)"></path>
                <path d="M15.3679681,18.5148887 L14.0777281,11.2189858 C14.0660641,11.1583191 14.0368321,11.1034301 13.9937761,11.0600967 C13.9507201,11.0167634 13.8957118,10.9878744 13.8358078,10.9763188 C13.7759038,10.9633188 13.7138396,10.9705267 13.6576796,10.9936378 C13.6015196,11.0181934 13.5535676,11.0586377 13.5201596,11.1091933 L10.9980569,15.4237784 C10.9341929,15.5335562 10.8963643,15.6563328 10.8875083,15.7819995 C10.8786667,15.9091106 10.8990281,16.034778 10.9470234,16.151778 L13.8471842,23.3061122 C13.8935522,23.4260011 13.9671356,23.5328886 14.0621756,23.6195553 C14.1570716,23.7047775 14.2708319,23.768335 14.394096,23.8015572 L19.1812321,25.1246661 C19.2407041,25.1376661 19.3029115,25.1333344 19.3597915,25.1116677 C19.4165275,25.0885566 19.4654873,25.0495552 19.5001913,24.9989996 C19.5347513,24.9498885 19.5537602,24.8892218 19.5545015,24.8285551 C19.5552002,24.7678884 19.5376313,24.7072225 19.5042233,24.656667 L15.3679681,18.5148887 Z" id="Vector" fill="#FFFFFF" fill-rule="nonzero" mask="url(#mask-2)"></path>
            </g>
        </g>
    </g>
</svg>