<?xml version="1.0" encoding="UTF-8"?>
<svg width="32px" height="35px" viewBox="0 0 32 35" version="1.1" xmlns="http://www.w3.org/2000/svg" xmlns:xlink="http://www.w3.org/1999/xlink">
    <title>download-5 1</title>
    <defs>
        <rect id="path-1" x="0" y="0" width="32" height="35"></rect>
    </defs>
    <g id="Page-1" stroke="none" stroke-width="1" fill="none" fill-rule="evenodd">
        <g id="index" transform="translate(-1328.000000, -439.000000)">
            <g id="download-5-1" transform="translate(1328.000000, 439.000000)">
                <mask id="mask-2" fill="white">
                    <use xlink:href="#path-1"></use>
                </mask>
                <g id="Clip" fill-rule="nonzero"></g>
                <g id="Group" mask="url(#mask-2)" fill-rule="nonzero" stroke="#29193E" stroke-linecap="round" stroke-linejoin="round" stroke-width="1.11532998">
                    <g transform="translate(1.280256, 1.296530)" id="Vector">
                        <path d="M29.9210236,18.1764332 C29.9210236,26.3003221 22.9091838,32.3851361 15.6400637,32.4071732 C7.61831609,32.4071732 4.42599683,27.6212479 3.38791681,25.9516184 C2.69586347,24.838532 1.66802348,22.1439642 0.304396838,17.8679148 L27.4173443,8.15866852 C28.7596372,11.0347092 29.5941969,14.3739641 29.9210236,18.1764332 Z" fill="#FDA029"></path>
                        <path d="M14.5251834,29.4202499 C22.5471996,29.4202499 29.0503693,22.8342842 29.0503693,14.7101361 C29.0503693,6.58594905 22.5471996,0 14.5251834,0 C6.50314162,0 0,6.58594905 0,14.7101361 C0,22.8342842 6.50314162,29.4202499 14.5251834,29.4202499 Z" fill="#FDA029"></path>
                        <line x1="27.0384636" y1="22.3077297" x2="27.5939836" y2="25.2710645" fill="none"></line>
                        <line x1="25.1376629" y1="24.8756943" x2="25.6919036" y2="27.8390267" fill="none"></line>
                    </g>
                </g>
                <path d="M16.7513597,15.7512961 L20.9382395,13.9585178 C21.0278395,13.9196289 21.0700798,13.9014807 21.0265598,13.7809251 C20.8806398,13.3349992 20.7001594,12.900727 20.4851194,12.4833196 C20.4505594,12.3990604 20.3942397,12.3822217 20.3046397,12.4211106 L11.9718272,15.9911114 C11.8694272,16.0351855 11.8553594,16.0818515 11.8963194,16.1790738 L12.4147203,17.4209258 C12.4825603,17.5803703 12.4825471,17.5803706 12.6476671,17.5103706 L16.7513597,15.7512961 Z M19.3625596,11.1144311 C19.3612796,11.0781348 19.3459201,11.0431474 19.3216001,11.0172215 C19.1872001,10.892777 19.0425598,10.7812831 18.8889598,10.6840608 C18.6457598,10.5103571 18.3846402,10.3664809 18.1081602,10.2537031 C17.9673602,10.174629 17.8163197,10.1149993 17.6601597,10.0761104 C16.8499197,9.81685114 15.9897596,9.75722183 15.1513597,9.90111072 C14.7302397,9.97759221 14.3206393,10.1046292 13.9276793,10.2770366 L10.2297472,11.8611104 C10.1273472,11.9051844 10.1299195,11.9531484 10.1683195,12.0438891 L11.2025596,14.5198148 C11.2460796,14.6235185 11.2575995,14.6520371 11.3894395,14.5962963 L19.3356797,11.1909262 C19.377493,11.1624071 19.3975463,11.1321599 19.3958396,11.1001846 L19.3625596,11.1144311 Z M21.214719,15.5503705 C21.091839,15.5866668 20.9740795,15.6372226 20.8627195,15.7007411 L13.2262401,18.9725919 C13.1225601,19.016666 13.0880004,19.0322214 13.1456004,19.1709251 L14.1568004,21.591111 C14.2041604,21.7025925 14.2156795,21.7311107 14.3539195,21.6727774 L17.8790403,20.1612966 C18.0531203,20.1029633 18.2169598,20.018703 18.3667198,19.9111104 C18.8633598,19.6557401 19.3190398,19.3277773 19.7222398,18.9362958 C19.8707198,18.8001847 20.0063992,18.648518 20.1254392,18.4838884 L20.1740794,18.4631479 C20.8179194,17.6737035 21.2044795,16.7027777 21.2761595,15.6812962 C21.2795725,15.5974692 21.2590924,15.5538273 21.214719,15.5503705 Z M13.3555198,23.578332 L13.3388792,23.5368511 L12.6592003,21.9125915 L12.4300804,21.3616665 L11.7452794,19.7218513 C11.7068794,19.6311105 11.7017595,19.618148 11.5916795,19.6648147 L10.0966399,20.3051844 C10.0134399,20.3414807 9.98016013,20.35574 9.93280013,20.2442585 L9.37983985,18.9194445 L10.9772667,18.2350003 C11.0668667,18.1961114 11.1014396,18.1818516 11.0515196,18.0625924 L10.5036803,16.7520372 C10.4691203,16.667778 10.4601604,16.6470364 10.3500804,16.6949994 L8.85631996,17.3340735 C8.77311996,17.3703698 8.73855966,17.3846291 8.69247967,17.2731477 L8.17919963,16.0455556 C8.14719963,15.9690742 8.13952003,15.9483333 8.24960003,15.9016667 L9.72927963,15.2677774 C9.83295962,15.222407 9.86111964,15.2107405 9.80479964,15.0785182 L8.23423992,11.3192595 C8.18815992,11.207778 8.17663957,11.1792596 8.31487957,11.1209263 L13.47968,8.90814811 C13.85984,8.76296292 14.2502396,8.64498657 14.6470396,8.55554213 C15.4662396,8.37276435 16.3097596,8.33518497 17.1404795,8.44148127 C17.6934396,8.51537015 18.2336002,8.65925885 18.7481602,8.87055515 C19.1411202,9.04036996 19.5161598,9.24518494 19.8732798,9.48240716 C20.2291198,9.72481457 20.5593606,10.0048015 20.8563206,10.3185052 C20.9152006,10.4092459 21.0342401,10.4351713 21.1238401,10.376838 L22.3564793,9.84925892 C22.5139193,9.78185151 22.5139204,9.78185169 22.5856004,9.93222205 L23.0630393,11.0768381 C23.1103993,11.1883196 23.0809594,11.233703 22.9695994,11.2803697 L22.0198386,11.6886901 C21.9238386,11.7288753 21.8956803,11.7405559 21.9545603,11.863704 C22.1696003,12.2720373 22.3475201,12.6985179 22.4883201,13.1392586 C22.5369601,13.2585179 22.54336,13.2727771 22.6752,13.2157401 L23.7619187,12.7503571 C23.8361587,12.7918386 23.8143991,12.8761108 23.8412791,12.938333 C23.8809591,13.0174071 23.9155197,13.0990734 23.9423997,13.1820364 L24.2956809,14.0272221 C24.3443209,14.1451851 24.3251202,14.1944438 24.2214402,14.2398141 L22.91968,14.7972219 C22.8224,14.8179627 22.7583988,14.9151852 22.7750388,15.015 C22.8070388,15.9638889 22.6163205,16.9075921 22.2208006,17.7683328 C22.0761606,18.0820365 21.9135992,18.3892592 21.7343992,18.6835184 C21.5257592,18.9635184 21.3273588,19.2448143 21.0995188,19.4988884 C20.6783988,19.9590736 20.2060801,20.3674076 19.6928001,20.7174076 C19.2012801,21.0414817 18.6815994,21.3162968 18.1363194,21.5405561 L13.3580797,23.5887041 L13.3542393,23.5809257 L13.3555198,23.578332 Z" id="Vector" fill="#FFFEEB" fill-rule="nonzero" mask="url(#mask-2)"></path>
            </g>
        </g>
    </g>
</svg>