<svg width="169" height="32" viewBox="0 0 169 32" fill="none" xmlns="http://www.w3.org/2000/svg">
<g clip-path="url(#clip0_88_672)">
<path d="M31.8442 15.995C31.8442 20.8892 29.6886 25.1795 26.1481 28.1577C23.399 30.4486 19.8689 31.8336 16.0056 31.8336C7.25843 31.8336 0.166992 24.7421 0.166992 15.995C0.166992 7.24784 7.24802 0.156403 15.9952 0.156403C24.7423 0.156403 31.8442 7.24784 31.8442 15.995Z" fill="white"/>
<path d="M28.6678 6.47706C28.3971 6.11259 28.1055 5.76895 27.8035 5.43573C27.6577 5.26911 27.5015 5.1025 27.3453 4.93589C27.2933 4.88382 27.2412 4.83176 27.1891 4.77969C26.658 4.24861 26.0853 3.75919 25.4813 3.30101C25.3251 3.18646 25.1794 3.07191 25.0232 2.96778C24.7837 2.80117 24.5441 2.64497 24.3046 2.49918C24.0651 2.3534 23.8152 2.20761 23.5549 2.07224C23.2737 1.91604 22.9926 1.78067 22.701 1.64529C22.4719 1.53075 22.2324 1.43703 21.9929 1.3329C21.6909 1.20794 21.3889 1.09339 21.0869 0.989258C20.962 0.947605 20.837 0.905952 20.7121 0.864299C20.5871 0.822645 20.4621 0.791406 20.3372 0.749753C20.1497 0.697686 19.9623 0.64562 19.7645 0.603967C19.6395 0.572727 19.5041 0.541487 19.3792 0.510247C18.2858 0.270742 17.1611 0.145782 15.9948 0.145782C14.8286 0.145782 13.7039 0.270742 12.6105 0.510247C12.4856 0.541487 12.3502 0.562314 12.2252 0.603967C12.0378 0.64562 11.8504 0.697686 11.6525 0.749753C11.5275 0.780992 11.4026 0.822645 11.2776 0.864299C11.1527 0.905952 11.0277 0.947605 10.9028 0.989258C10.6008 1.09339 10.2884 1.20794 9.9968 1.3329C9.75729 1.42662 9.51779 1.53075 9.28869 1.64529C8.99712 1.78067 8.71596 1.92645 8.43481 2.07224C8.18489 2.20761 7.93497 2.3534 7.69546 2.49918C7.52885 2.60332 7.37265 2.70745 7.21645 2.81158C6.97695 2.96778 6.74785 3.13439 6.51876 3.31142C6.44587 3.3739 6.36256 3.42596 6.28967 3.48844C5.98769 3.71754 5.69611 3.96745 5.41496 4.21737C5.26917 4.34233 5.1338 4.47771 4.99842 4.60266C4.93594 4.66514 4.86305 4.73804 4.80057 4.80052C4.08206 5.50862 3.43643 6.30003 2.8637 7.1435C2.79081 7.24764 2.71792 7.35177 2.65544 7.4559C1.07262 9.92385 0.15625 12.85 0.15625 15.9948C0.15625 16.0885 0.15625 16.1822 0.15625 16.2759C0.15625 16.3176 0.15625 16.3593 0.15625 16.3905V16.4009C0.15625 16.4946 0.166663 16.5779 0.166663 16.6612C0.166663 16.6717 0.166663 16.6821 0.166663 16.6821C0.166663 16.7758 0.177077 16.8695 0.177077 16.9632C0.177077 16.9841 0.177077 17.0153 0.177077 17.0361C0.18749 17.1298 0.18749 17.234 0.197903 17.3277C0.197903 17.3381 0.197903 17.3381 0.197903 17.3485C0.208316 17.4318 0.208316 17.5151 0.21873 17.5984C0.21873 17.6297 0.229143 17.6609 0.229143 17.7026C0.239556 17.8067 0.249969 17.9004 0.260383 18.0046C0.270796 18.1191 0.291623 18.2336 0.312449 18.3378C0.322862 18.4315 0.343689 18.5356 0.354102 18.6293C0.364516 18.671 0.364516 18.7231 0.374929 18.7647C0.385342 18.8376 0.406169 18.9105 0.416582 18.9938C0.437409 19.0875 0.458235 19.1813 0.479062 19.2854C0.510301 19.4103 0.531128 19.5353 0.562368 19.6603C0.583194 19.7436 0.604021 19.8373 0.624848 19.9206C0.635261 19.9622 0.645674 19.9935 0.656087 20.0351C0.676914 20.1184 0.69774 20.2018 0.718567 20.2851C0.739394 20.3684 0.76022 20.4413 0.79146 20.5246C0.801873 20.5558 0.812286 20.5975 0.8227 20.6287C0.85394 20.712 0.874766 20.8057 0.906006 20.889C0.906006 20.8994 0.916419 20.9203 0.916419 20.9307C0.947659 21.0244 0.978899 21.1181 1.01014 21.2118C1.04138 21.316 1.08303 21.4201 1.11427 21.5138C1.18716 21.7013 1.26006 21.8991 1.34336 22.0866C1.38502 22.1803 1.41626 22.2636 1.45791 22.3573C1.46832 22.3885 1.48915 22.4302 1.49956 22.4614C1.50998 22.4823 1.50998 22.4927 1.52039 22.5135C1.55163 22.576 1.58287 22.6489 1.61411 22.7114C1.65576 22.8051 1.70783 22.9092 1.74948 23.0029C1.80155 23.0966 1.8432 23.1904 1.89527 23.2945C1.93692 23.3778 1.98899 23.4715 2.03064 23.5548C2.03064 23.5652 2.04105 23.5757 2.04105 23.5757C2.09312 23.6694 2.14519 23.7631 2.19725 23.8568C2.19725 23.8672 2.20767 23.8776 2.21808 23.8881C2.25973 23.9714 2.3118 24.0547 2.36386 24.138C2.47841 24.3254 2.59296 24.5233 2.71792 24.7107C2.76998 24.7836 2.81164 24.8565 2.8637 24.9294C2.9366 25.0335 3.00949 25.1376 3.08238 25.2418C3.13445 25.3147 3.18651 25.3876 3.23858 25.4605C3.24899 25.4709 3.24899 25.4813 3.25941 25.4813C3.31147 25.5542 3.36354 25.6167 3.41561 25.6896C3.4885 25.7833 3.56139 25.8666 3.63428 25.9603C3.69676 26.0436 3.76966 26.1269 3.83214 26.2102C3.90503 26.2935 3.96751 26.3768 4.0404 26.4497C4.24867 26.6892 4.46735 26.9183 4.68603 27.1474C4.74851 27.2099 4.81099 27.2724 4.88388 27.3453C4.89429 27.3557 4.9047 27.3661 4.91512 27.3765C4.98801 27.4494 5.0609 27.5119 5.1338 27.5848C5.14421 27.5952 5.15462 27.6056 5.16504 27.616C5.23793 27.6889 5.31082 27.7514 5.38372 27.8139C5.46702 27.8868 5.53991 27.9492 5.62322 28.0221C5.77942 28.1575 5.94603 28.2929 6.11265 28.4282C6.19595 28.4907 6.27926 28.5636 6.36256 28.6261C6.44587 28.6886 6.52918 28.7511 6.6229 28.8135C6.6229 28.8135 6.63331 28.8135 6.63331 28.8239L6.88323 29.001C6.96653 29.0635 7.06025 29.1259 7.14356 29.178C7.27893 29.2717 7.4143 29.355 7.54968 29.4383C7.68505 29.5216 7.82042 29.6049 7.9558 29.6883C8.18489 29.8236 8.40357 29.9486 8.64307 30.0631C8.71596 30.1048 8.79927 30.136 8.87216 30.1777C10.0176 30.7816 11.5588 31.2502 11.9128 31.3231C12.0378 31.344 12.1732 31.2815 12.194 31.1461C12.2669 30.8129 12.4023 30.1777 12.496 29.782C12.9333 28.0221 13.4228 26.054 12.8813 23.6277C12.8709 23.5861 12.8604 23.534 12.85 23.4819C12.8292 23.4195 12.8188 23.357 12.798 23.2945C12.7355 23.2945 12.6834 23.2945 12.6209 23.2841C12.5585 23.2841 12.496 23.2737 12.4439 23.2633C12.1628 23.2216 11.9337 23.1279 11.7879 22.9613C11.5275 22.6489 11.5484 22.2323 11.7358 21.8575C11.9857 21.9095 12.2357 21.9304 12.496 21.9408C12.5585 21.9408 12.6209 21.9408 12.6834 21.9408C12.7459 21.9408 12.8188 21.9408 12.8813 21.9408C13.6727 21.9199 14.3495 21.7637 14.4016 21.7533C14.4849 21.7325 14.5474 21.6388 14.5266 21.5555C14.5057 21.4618 14.412 21.4097 14.3287 21.4305C14.3183 21.4305 13.8185 21.5451 13.1833 21.5971C13.1 21.6075 13.0271 21.6075 12.9333 21.6075C12.8604 21.6075 12.7876 21.618 12.7147 21.618C12.4543 21.618 12.1836 21.6075 11.9337 21.5659C11.8712 21.5555 11.8087 21.5451 11.7462 21.5347C11.6837 21.5242 11.6317 21.5034 11.5796 21.493C11.3193 21.4201 11.0902 21.316 10.9028 21.1494C9.71564 20.1601 9.02836 16.9632 8.57018 14.8597C8.33067 13.7559 8.16406 12.9645 7.97662 12.6625C7.97662 12.6625 7.96621 12.6313 7.94538 12.5896C8.14323 12.0794 8.27861 11.5691 8.33067 11.3401C8.3515 11.2463 8.29943 11.163 8.20571 11.1422C8.17447 11.1318 8.14323 11.1422 8.11199 11.1526C8.05993 11.1734 8.01827 11.2151 8.00786 11.2672C7.94538 11.5483 7.85166 11.8503 7.75794 12.1523C7.73712 12.2252 7.70588 12.3085 7.67464 12.3814C7.6434 12.4647 7.61216 12.5376 7.58092 12.6105C7.43513 12.9437 7.27893 13.2249 7.10191 13.3811C6.25843 14.1725 5.33165 14.1412 4.96718 14.0892C4.61313 14.0371 4.42569 13.933 4.38404 13.8809C4.41528 13.8288 4.56107 13.7247 4.67561 13.6518C5.07132 13.3915 5.72735 12.9437 6.20636 11.9336C6.57083 11.163 6.88323 10.7257 7.13315 10.4862C7.19563 10.4237 7.24769 10.382 7.31017 10.3404C7.37265 10.2987 7.42472 10.2675 7.47678 10.2571C7.56009 10.2258 7.62257 10.2258 7.68505 10.2258C7.71629 10.2258 7.73712 10.2258 7.75794 10.2154C7.81001 10.1946 7.86208 10.1425 7.86208 10.0696C7.87249 9.97592 7.7996 9.89261 7.71629 9.89261C7.65381 9.8822 7.59133 9.8822 7.52885 9.89261C7.54968 9.78848 7.5705 9.68434 7.60174 9.58021C7.73712 9.12203 7.96621 8.71591 8.28902 8.35144C8.32026 8.3931 8.37233 8.41392 8.41398 8.41392C8.45563 8.41392 8.49729 8.3931 8.53894 8.36186C8.59101 8.30979 8.60142 8.22649 8.55976 8.16401C8.55976 8.15359 8.54935 8.14318 8.52853 8.13277C8.52853 8.12235 8.51811 8.12235 8.51811 8.12235C8.47646 8.0807 8.44522 8.04946 8.41398 8.00781C8.37233 7.96615 8.34109 7.91409 8.30985 7.86202C8.0391 7.4559 7.99745 6.99772 8.08075 6.69573C8.12241 6.56036 8.1953 6.45623 8.25778 6.4354C8.26819 6.4354 8.27861 6.4354 8.27861 6.4354C8.29943 6.48747 8.28902 6.63325 8.28902 6.73739C8.27861 6.97689 8.27861 7.26846 8.38274 7.53921C8.41398 7.6121 8.48687 7.65376 8.57018 7.64334C8.62224 7.63293 8.67431 7.59128 8.69514 7.54962C8.70555 7.5288 8.70555 7.50797 8.70555 7.48714C8.70555 7.09144 9.40324 6.42499 9.80936 6.33127C9.9239 6.31044 9.93432 6.34168 9.94473 6.3521C10.0385 6.54995 9.90308 6.68532 9.58027 6.93524C9.49696 6.99772 9.40324 7.07061 9.31993 7.15392C9.20539 7.25805 9.11167 7.3726 9.0596 7.50797C9.02836 7.58086 9.01795 7.65375 9.01795 7.72665C9.01795 7.75789 9.01795 7.78913 9.02836 7.83078C9.02836 7.85161 9.03878 7.87243 9.04919 7.89326C9.08043 7.94533 9.14291 7.98698 9.2158 7.97657C9.30952 7.96615 9.372 7.88285 9.36159 7.78913C9.34076 7.66417 9.40324 7.54962 9.5282 7.43508C10.809 6.75821 11.9857 6.64367 13.0166 7.10185C13.1208 7.1435 13.2145 7.19557 13.3082 7.24764C13.4019 7.2997 13.4852 7.35177 13.579 7.41425C13.933 7.65375 14.2558 7.96615 14.5578 8.35144C14.6828 8.49723 14.8806 8.66384 14.9119 8.69508C14.9535 8.72632 14.9952 8.75756 15.0577 8.80963C15.3909 9.08037 15.9636 9.62186 16.5259 10.1425C16.8696 10.4549 17.2444 10.809 17.6193 11.1526C17.6089 11.1839 17.5985 11.2255 17.5777 11.2567C17.536 11.3817 17.4839 11.5275 17.4423 11.6837C17.3694 11.9128 17.2861 12.1731 17.1924 12.4959L17.182 12.548L17.2028 12.6001C17.4111 13.2144 18.2025 13.8392 19.0355 14.0371C19.223 14.0787 19.4 14.0996 19.5666 14.0996C19.9727 14.0996 20.3476 13.985 20.6496 13.7559C20.6912 13.7247 20.7433 13.683 20.785 13.6414C20.8058 13.6206 20.8162 13.6102 20.837 13.5893L20.8474 13.5789C20.8578 13.5685 20.8683 13.5477 20.8891 13.5268C20.9203 13.4748 20.9724 13.4019 21.014 13.3186C21.0661 13.3498 21.1182 13.3915 21.1702 13.4227C21.5555 13.6726 21.9408 14.0996 22.0241 14.2662C22.0554 14.3703 22.0554 14.4849 22.0345 14.5994C22.0345 14.6202 22.0241 14.6411 22.0137 14.6619C21.9929 14.7244 21.9617 14.7869 21.92 14.8493C21.8992 14.891 21.8679 14.9326 21.8367 14.9743C21.6388 15.2138 21.3369 15.4221 20.9828 15.547C20.9203 15.5678 20.8683 15.5887 20.8058 15.5991C20.7537 15.6095 20.7121 15.6199 20.66 15.6303C20.66 15.6303 20.66 15.6303 20.6496 15.6303C20.5246 15.6512 19.3063 15.8802 17.7339 15.9948C17.1715 16.0364 16.5676 16.0573 15.9532 16.0573C15.6824 16.0573 15.4013 16.0469 15.1305 16.0364C14.714 16.0156 14.2975 15.9844 13.9018 15.9323H13.8914C13.5686 15.8907 13.2562 15.8282 12.9646 15.7553C12.9333 15.7553 12.9125 15.7449 12.8917 15.7345H12.8813C11.8087 15.37 11.2152 15.6616 10.9028 15.9636C10.4237 16.4321 10.3092 17.2548 10.5799 18.1295C10.8611 19.0042 11.5692 19.9831 12.7771 20.4725C12.8396 20.5037 12.9125 20.5246 12.975 20.5454C13.0479 20.5662 13.1104 20.587 13.1833 20.6079C13.3395 20.6495 13.5061 20.6912 13.6727 20.712C13.7248 20.7224 13.7872 20.7328 13.8393 20.7328C13.933 20.7432 14.0267 20.7537 14.1309 20.7641C14.235 20.7745 14.3495 20.7849 14.4537 20.7953C14.6619 20.8057 14.8702 20.8161 15.0889 20.8161H15.1201C16.0469 20.8161 17.0258 20.7016 17.9525 20.4933C18.9106 20.2746 19.8165 19.9727 20.5767 19.5978C20.6808 19.5457 20.785 19.4937 20.8891 19.4312C20.9828 19.3791 21.0661 19.327 21.1494 19.275C21.3056 19.1813 21.4514 19.0771 21.5868 18.9834C21.8783 18.7647 22.1179 18.5356 22.2845 18.2961C22.3157 18.3274 22.3365 18.3794 22.3469 18.4211V18.4315C22.3574 18.4627 22.3574 18.494 22.3574 18.5252C22.3574 18.7647 22.2012 19.0667 21.9617 19.3687C21.92 19.4208 21.8783 19.4728 21.8367 19.5145C21.795 19.5665 21.743 19.6186 21.7013 19.6603C21.3993 19.9727 21.0245 20.2538 20.6496 20.4413C20.5663 20.4829 20.535 20.5766 20.5663 20.6495V20.6599C20.5975 20.7224 20.66 20.7537 20.7225 20.7537C20.7433 20.7537 20.7745 20.7537 20.7954 20.7328C21.2536 20.5142 21.7326 20.1393 22.097 19.7227C22.1387 19.6707 22.1803 19.629 22.222 19.577C22.2636 19.5249 22.2949 19.4832 22.3261 19.4312C22.5552 19.1188 22.701 18.7855 22.701 18.5044C22.701 18.4003 22.6802 18.3065 22.6489 18.2232C22.6802 18.1816 22.6802 18.1816 22.7218 18.1503C23.0655 18.2753 23.3362 18.494 23.4924 18.7751C23.607 18.9938 23.6278 19.2125 23.5445 19.3583C23.5445 19.3687 23.5341 19.3791 23.5341 19.3895C23.4716 19.577 23.3674 19.7332 23.2321 19.8894C23.1904 19.931 23.1592 19.9727 23.1175 20.0143C23.0759 20.056 23.0342 20.0872 22.9926 20.1289C23.0342 20.1705 23.0863 20.2122 23.1279 20.2642C23.1592 20.2955 23.1904 20.3267 23.2217 20.3684C24.1901 21.5138 25.6896 24.7836 25.7729 28.0221C25.7729 28.1887 25.9708 28.272 26.0957 28.1679C26.0957 28.1679 26.3144 27.9805 26.4185 27.8868C26.5747 27.7514 26.7205 27.6056 26.8767 27.4702C26.9288 27.4182 26.9913 27.3661 27.0433 27.314C27.0954 27.262 27.1475 27.2099 27.1995 27.1682C27.2516 27.1162 27.3037 27.0641 27.3453 27.012C27.3974 26.96 27.439 26.9079 27.4911 26.8558C27.5432 26.8038 27.5848 26.7517 27.6369 26.6996C27.6785 26.6476 27.7202 26.6059 27.7723 26.5539C27.9493 26.3456 28.1263 26.1477 28.3033 25.9291C28.345 25.877 28.3866 25.8353 28.4179 25.7833C28.4595 25.7312 28.5012 25.6791 28.5324 25.6375C28.5741 25.5854 28.6053 25.5334 28.647 25.4813C28.6886 25.4292 28.7199 25.3772 28.7615 25.3251C28.8344 25.221 28.9073 25.1168 28.9802 25.0127C29.0219 24.9606 29.0531 24.9086 29.0843 24.8565C29.2614 24.5962 29.428 24.3254 29.5946 24.0443C29.6362 23.9714 29.6779 23.9089 29.7195 23.836C29.8029 23.7006 29.8757 23.5548 29.9486 23.4195C29.9903 23.3466 30.0215 23.2737 30.0632 23.2112C30.0944 23.1591 30.1152 23.0966 30.1465 23.0446C30.4901 22.3573 30.7817 21.6388 31.0212 20.8994C31.0629 20.7745 31.1045 20.6495 31.1358 20.5246C31.1566 20.4621 31.167 20.3996 31.1878 20.3371C31.2295 20.1913 31.2711 20.056 31.3024 19.9102C31.3753 19.629 31.4377 19.3375 31.5002 19.0459C31.5315 18.9001 31.5523 18.7543 31.5835 18.6085C31.5939 18.546 31.6043 18.4732 31.6148 18.4107C31.646 18.2336 31.6668 18.0566 31.6877 17.8692C31.7189 17.5984 31.7501 17.3277 31.7605 17.0569C31.7814 16.7862 31.7918 16.505 31.7918 16.2239V16.2031C31.7918 16.1718 31.7918 16.1406 31.7918 16.0989C31.7918 16.0677 31.7918 16.026 31.7918 15.9948C31.8439 12.423 30.6567 9.13244 28.6678 6.47706ZM15.1201 8.37227C15.0785 8.34103 15.0472 8.3202 15.016 8.30979L15.0056 8.28897C14.7661 7.96615 14.5057 7.685 14.235 7.44549C14.36 7.46632 14.4849 7.48714 14.5995 7.50797C15.193 7.6121 15.7449 7.70582 16.3281 7.44549C16.3385 7.62252 15.6512 8.05987 15.1201 8.37227ZM18.973 18.9313C18.7544 18.9001 18.3795 18.9001 17.9525 19.0251C17.7234 19.0875 17.4944 19.1917 17.2653 19.3479C17.1507 19.4208 17.0362 19.5353 16.932 19.6499C16.88 19.7123 16.8175 19.7852 16.7758 19.8477C16.7238 19.9206 16.6717 19.9831 16.6301 20.056C16.5467 20.1913 16.4843 20.3163 16.4739 20.3996C16.0573 20.4413 15.6512 20.4725 15.2451 20.4725C15.0993 20.4725 14.9431 20.4725 14.7973 20.4621C14.7244 20.4621 14.6411 20.4621 14.5682 20.4517C14.5891 20.4204 14.6099 20.3996 14.6307 20.358C14.7661 20.1601 15.0056 19.8373 15.37 19.5145C15.5471 19.3479 15.7553 19.1917 15.9844 19.0459C16.1615 18.9417 16.3489 18.8376 16.5467 18.7543C16.9425 18.5877 17.3173 18.4732 17.661 18.4003C17.9109 18.3482 18.14 18.317 18.3378 18.317C18.5982 18.3065 18.8064 18.3274 18.9626 18.369C18.9835 18.3794 19.0043 18.3794 19.0147 18.3898C19.4833 18.5565 19.3063 18.973 18.973 18.9313Z" fill="black"/>
<path d="M14.6196 23.3353C14.396 23.4053 13.6526 23.6182 12.9198 23.626L12.8891 23.6229C12.8381 23.6177 12.7963 23.6237 12.7452 23.6185C12.684 23.6123 12.633 23.6071 12.5707 23.611C12.1728 23.5705 11.8137 23.4514 11.5734 23.1794C11.2333 22.7736 11.2364 22.2378 11.4485 21.7748C11.4752 21.7157 11.5008 21.6667 11.5274 21.6076C11.552 21.5689 11.5776 21.5199 11.6022 21.4812C11.6521 21.4966 11.7123 21.513 11.7725 21.5295C11.8327 21.5459 11.8939 21.5522 11.9643 21.5697C11.9285 21.6176 11.9039 21.6563 11.8681 21.7042C11.8313 21.7623 11.8046 21.8214 11.7678 21.8795C11.5854 22.2527 11.5631 22.6732 11.8197 22.988C11.9582 23.1465 12.1958 23.2429 12.4703 23.2812C12.5315 23.2874 12.5826 23.2926 12.654 23.2999C12.705 23.3051 12.7662 23.3113 12.8285 23.3074C13.3429 23.3186 13.9524 23.2054 14.5059 23.035C14.5907 23.0127 14.6896 23.0538 14.7108 23.1487C14.7108 23.1487 14.7098 23.1589 14.72 23.16C14.7546 23.2253 14.7044 23.313 14.6196 23.3353Z" fill="black"/>
<path d="M20.9411 12.7875C20.9203 12.8396 20.8891 12.8916 20.8682 12.9333C20.837 12.9854 20.8162 13.0478 20.7849 13.0895C20.7433 13.1624 20.712 13.2249 20.6808 13.2665C20.6704 13.2873 20.6496 13.3082 20.6391 13.329C20.6183 13.3498 20.5975 13.3706 20.5767 13.3811C20.535 13.4227 20.4829 13.4644 20.4309 13.4956C19.9935 13.7872 19.5041 13.7664 19.15 13.683C18.4628 13.5164 17.7755 13.0062 17.5776 12.5168C17.7026 12.069 17.8171 11.7358 17.9109 11.4546C17.9213 11.4234 17.9317 11.4025 17.9317 11.3713C17.9317 11.3609 17.9421 11.3505 17.9421 11.3401C17.9421 11.3296 17.9421 11.3296 17.9525 11.3192C17.9629 11.2776 17.9838 11.2359 17.9942 11.1943C18.0046 11.1734 18.0046 11.1526 18.015 11.1318C18.0254 11.0901 18.0358 11.0589 18.0566 11.0172C18.2128 10.5278 18.2545 10.2779 18.14 9.84055C18.0983 9.69476 18.0566 9.53856 18.0046 9.36154C17.7651 8.53889 17.4527 7.51839 18.0775 7.03937C18.2128 6.93524 18.4003 6.904 18.6294 6.95607C19.5249 7.13309 20.9099 8.41393 21.4618 9.37195C21.9304 10.205 21.3577 11.892 20.9411 12.7875Z" fill="#FFB800"/>
<path d="M25.859 25.8266C25.4195 23.7247 24.7367 21.8116 23.5623 20.2536C23.5702 20.2471 23.5846 20.2484 23.5925 20.2419C24.0013 19.9956 24.3847 20.0237 24.7349 20.3328C25.6976 21.1866 25.8013 23.0608 25.8575 24.1876C25.8767 24.5317 25.8881 24.8023 25.9312 24.9665C25.9821 25.2043 25.9527 25.5221 25.859 25.8266Z" fill="white"/>
<path d="M13.7913 25.8381C13.7913 25.8381 13.9685 28.1966 13.4372 29.5908C13.1146 30.3738 12.2759 30.8804 10.9351 30.0084C9.90897 29.0759 10.9232 26.4599 11.1362 25.3088C11.3781 24.0091 12.4723 22.8502 13.6738 24.4431" fill="#FFFDF9"/>
<path d="M12.2226 30.6379C11.8653 30.6371 11.402 30.523 10.8326 30.1499C10.8247 30.1434 10.8168 30.1369 10.8088 30.1304C9.91113 29.3162 10.3977 27.4745 10.7443 26.1279C10.8345 25.7909 10.9147 25.4986 10.9573 25.2684C11.1003 24.5107 11.5564 23.6779 12.2471 23.5141C12.6101 23.4268 13.186 23.5005 13.808 24.3276C13.8665 24.402 13.8492 24.5203 13.7748 24.5788C13.7005 24.6372 13.5821 24.6199 13.5237 24.5455C13.2459 24.1724 12.81 23.7495 12.333 23.8627C11.8703 23.9745 11.4568 24.5771 11.3138 25.3348C11.2726 25.5795 11.1925 25.8718 11.1037 26.2232C10.799 27.4053 10.329 29.1943 11.0441 29.8591C11.6214 30.2387 12.1439 30.3615 12.5538 30.233C12.8721 30.1357 13.1233 29.8773 13.2763 29.5122C13.4662 29.0048 13.5911 28.2853 13.6331 27.3919C13.6374 27.2894 13.7247 27.2151 13.8207 27.2274C13.9232 27.2317 13.9975 27.319 13.9852 27.415C13.9476 28.3518 13.8191 29.1081 13.6047 29.6616C13.4105 30.1256 13.072 30.4583 12.6621 30.5867C12.5401 30.6062 12.3972 30.635 12.2226 30.6379Z" fill="black"/>
<path d="M13.8121 27.5781C13.7096 27.5737 13.6288 27.4944 13.6332 27.3919C13.6729 26.5497 13.6182 25.8554 13.6182 25.8554C13.6081 25.7544 13.6875 25.6735 13.7885 25.6635C13.8895 25.6534 13.9704 25.7328 13.9805 25.8338C13.9833 25.8627 14.0381 26.5569 13.9998 27.4136C13.9861 27.4951 13.9067 27.5759 13.8121 27.5781Z" fill="black"/>
<path d="M10.9574 30.054C12.2174 31.3188 15.4419 30.5583 16.3346 30.2575C17.0198 29.8627 18.3817 27.6682 16.6064 26.8383C15.5997 26.3021 13.4174 26.8707 12.0572 28.0916" fill="#FFFDF9"/>
<path d="M13.2604 30.9451C12.329 30.9453 11.4082 30.7666 10.8318 30.1877C10.7679 30.1151 10.7579 30.0051 10.8335 29.9313C10.9061 29.8673 11.0161 29.8574 11.0899 29.9329C12.1591 31.0123 15.0253 30.5195 16.2617 30.1073C16.6534 29.871 17.3439 28.9211 17.3045 28.0851C17.2863 27.6087 17.0314 27.2435 16.534 27.0093C15.5636 26.4947 13.4472 27.0937 12.1754 28.2339C12.1027 28.2979 11.9858 28.2951 11.9219 28.2224C11.8579 28.1498 11.8607 28.0329 11.9333 27.969C13.3318 26.7274 15.5907 26.1174 16.6927 26.6928C17.2924 26.9789 17.6319 27.455 17.6612 28.0739C17.7017 29.0494 16.9377 30.1379 16.4213 30.4333C16.4085 30.4402 16.3958 30.4471 16.3859 30.4441C16.3663 30.4383 14.8019 30.9452 13.2604 30.9451Z" fill="black"/>
<path d="M16.6404 26.533C16.453 26.6476 16.4738 27.0641 16.5779 27.2203C16.7445 27.4702 17.2131 27.793 17.3902 27.616C18.1295 26.8558 17.286 26.1581 16.6404 26.533Z" fill="white"/>
<path d="M17.2445 27.7722C17.2341 27.7722 17.2133 27.7722 17.2028 27.7722C16.9529 27.7514 16.6197 27.491 16.4843 27.2828C16.401 27.1578 16.3698 26.9079 16.4114 26.7205C16.4427 26.5955 16.5052 26.5018 16.5885 26.4601C16.9529 26.2519 17.4111 26.3248 17.6506 26.6372C17.8381 26.8767 17.8797 27.2828 17.4632 27.6993C17.4111 27.7201 17.3486 27.7722 17.2445 27.7722ZM16.6926 26.6267C16.6614 26.6476 16.6301 26.6892 16.6197 26.7621C16.5885 26.9079 16.6197 27.0953 16.6614 27.1682C16.7759 27.3348 17.0466 27.5431 17.2341 27.5639C17.2757 27.5639 17.2966 27.5639 17.3174 27.5431C17.5881 27.262 17.661 26.9704 17.4944 26.7517C17.3278 26.5539 16.9946 26.4497 16.6926 26.6267Z" fill="black"/>
<path d="M17.2445 27.7722C17.2341 27.7722 17.2133 27.7722 17.2028 27.7722C16.9529 27.7514 16.6197 27.491 16.4843 27.2828C16.401 27.1578 16.3698 26.9079 16.4114 26.7205C16.4427 26.5955 16.5052 26.5018 16.5885 26.4601C16.9529 26.2519 17.4111 26.3248 17.6506 26.6372C17.8381 26.8767 17.8797 27.2828 17.4632 27.6993C17.4111 27.7201 17.3486 27.7722 17.2445 27.7722ZM16.6926 26.6267C16.6614 26.6476 16.6301 26.6892 16.6197 26.7621C16.5885 26.9079 16.6197 27.0953 16.6614 27.1682C16.7759 27.3348 17.0466 27.5431 17.2341 27.5639C17.2757 27.5639 17.2966 27.5639 17.3174 27.5431C17.5881 27.262 17.661 26.9704 17.4944 26.7517C17.3278 26.5539 16.9946 26.4497 16.6926 26.6267Z" fill="black"/>
<path d="M17.4528 27.6785C17.2341 27.6681 17.0259 28.0325 17.0259 28.2095C17.0259 28.5011 17.2446 29.0218 17.4841 28.9697C18.5254 28.7406 18.2026 27.7201 17.4528 27.6785Z" fill="white"/>
<path d="M17.4527 29.0739C17.4006 29.0739 17.3277 29.053 17.2549 29.001C17.057 28.8448 16.9216 28.4595 16.9216 28.2096C16.9216 28.0534 17.0258 27.8347 17.1611 27.6993C17.2549 27.6056 17.359 27.5639 17.4527 27.5743C17.8797 27.5952 18.2129 27.9076 18.2441 28.2929C18.2649 28.5844 18.0879 28.9489 17.5048 29.0739C17.4944 29.0739 17.4735 29.0739 17.4527 29.0739ZM17.4423 27.7826C17.4006 27.7826 17.359 27.8034 17.3069 27.8555C17.2028 27.9492 17.1299 28.1263 17.1299 28.2096C17.1299 28.4074 17.2444 28.7302 17.3902 28.8344C17.4215 28.8552 17.4423 28.8656 17.4735 28.8656C17.8588 28.7823 18.0671 28.574 18.0463 28.3137C18.0254 28.0638 17.7963 27.8034 17.4423 27.7826Z" fill="black"/>
<path d="M17.4527 29.0739C17.4006 29.0739 17.3277 29.053 17.2549 29.001C17.057 28.8448 16.9216 28.4595 16.9216 28.2096C16.9216 28.0534 17.0258 27.8347 17.1611 27.6993C17.2549 27.6056 17.359 27.5639 17.4527 27.5743C17.8797 27.5952 18.2129 27.9076 18.2441 28.2929C18.2649 28.5844 18.0879 28.9489 17.5048 29.0739C17.4944 29.0739 17.4735 29.0739 17.4527 29.0739ZM17.4423 27.7826C17.4006 27.7826 17.359 27.8034 17.3069 27.8555C17.2028 27.9492 17.1299 28.1263 17.1299 28.2096C17.1299 28.4074 17.2444 28.7302 17.3902 28.8344C17.4215 28.8552 17.4423 28.8656 17.4735 28.8656C17.8588 28.7823 18.0671 28.574 18.0463 28.3137C18.0254 28.0638 17.7963 27.8034 17.4423 27.7826Z" fill="black"/>
<path d="M17.2964 28.9697C17.109 28.8448 16.7445 29.053 16.6612 29.2092C16.5154 29.4592 16.4426 30.0215 16.6716 30.0944C17.6817 30.438 17.9212 29.3863 17.2964 28.9697Z" fill="white"/>
<path d="M17.0362 30.2714C16.9216 30.2714 16.7863 30.2506 16.6405 30.1985C16.578 30.1777 16.5051 30.1256 16.453 30.0111C16.3593 29.782 16.4426 29.3759 16.5676 29.1572C16.6405 29.0218 16.8488 28.8864 17.0362 28.8448C17.1612 28.8135 17.2757 28.824 17.359 28.8864C17.7131 29.1259 17.8484 29.5633 17.6818 29.9069C17.5777 30.1048 17.3694 30.2714 17.0362 30.2714ZM17.1612 29.0426C17.1403 29.0426 17.1091 29.0426 17.0883 29.0531C16.9529 29.0843 16.7967 29.1884 16.755 29.2613C16.6613 29.4279 16.5988 29.7716 16.6613 29.9382C16.6717 29.9694 16.6926 30.0007 16.7134 30.0007C17.0778 30.1256 17.3694 30.0527 17.4944 29.8132C17.5985 29.5945 17.536 29.2509 17.2445 29.0635C17.2132 29.0426 17.1924 29.0426 17.1612 29.0426Z" fill="black"/>
<path d="M17.0362 30.2714C16.9216 30.2714 16.7863 30.2506 16.6405 30.1985C16.578 30.1777 16.5051 30.1256 16.453 30.0111C16.3593 29.782 16.4426 29.3759 16.5676 29.1572C16.6405 29.0218 16.8488 28.8864 17.0362 28.8448C17.1612 28.8135 17.2757 28.824 17.359 28.8864C17.7131 29.1259 17.8484 29.5633 17.6818 29.9069C17.5777 30.1048 17.3694 30.2714 17.0362 30.2714ZM17.1612 29.0426C17.1403 29.0426 17.1091 29.0426 17.0883 29.0531C16.9529 29.0843 16.7967 29.1884 16.755 29.2613C16.6613 29.4279 16.5988 29.7716 16.6613 29.9382C16.6717 29.9694 16.6926 30.0007 16.7134 30.0007C17.0778 30.1256 17.3694 30.0527 17.4944 29.8132C17.5985 29.5945 17.536 29.2509 17.2445 29.0635C17.2132 29.0426 17.1924 29.0426 17.1612 29.0426Z" fill="black"/>
<path d="M27.4184 25.9811C25.7419 27.6264 25.2733 27.5015 24.8672 27.3869C24.2424 27.2099 23.8258 26.2935 23.6696 25.5542C23.503 24.7836 23.5551 24.0651 23.805 23.8568C24.4715 23.2945 24.9401 23.0446 24.9505 23.0446C24.9713 23.0342 24.9817 23.0238 24.9921 23.0133L25.5544 22.399C26.7311 22.0345 27.6059 22.2323 28.0432 22.9404C28.543 23.7839 28.2619 25.1481 27.4184 25.9811Z" fill="white"/>
<path d="M28.3035 22.7842C27.7932 21.9408 26.7415 21.6908 25.419 22.1178C25.3878 22.1282 25.3669 22.1386 25.3461 22.1594L24.7734 22.7842C24.6693 22.8467 24.2111 23.107 23.5967 23.6173C23.1802 23.9714 23.2114 24.919 23.3572 25.6166C23.4509 26.0436 23.6175 26.5018 23.8466 26.8871C24.0861 27.2724 24.3881 27.5743 24.7734 27.6785C24.9192 27.7201 25.065 27.7514 25.2212 27.7514C25.721 27.7514 26.3666 27.4494 27.637 26.1998C28.5951 25.2522 28.8866 23.7527 28.3035 22.7842ZM24.8671 27.3765C24.2423 27.1995 23.8258 26.2831 23.6696 25.5438C23.503 24.7732 23.555 24.0547 23.805 23.8464C24.4714 23.2841 24.94 23.0342 24.9504 23.0342C24.9712 23.0237 24.9817 23.0133 24.9921 23.0029L25.5544 22.3885C26.7311 22.0241 27.6058 22.2219 28.0432 22.93C28.5534 23.7735 28.2722 25.1376 27.4288 25.9707C25.7418 27.6264 25.2732 27.491 24.8671 27.3765Z" fill="black"/>
<path d="M25.1065 27.4598C25.2419 27.2828 25.0649 26.8975 24.9087 26.8038C24.6587 26.6372 24.1068 26.5122 24.0027 26.7413C23.5966 27.7201 24.6379 28.0534 25.1065 27.4598Z" fill="white"/>
<path d="M24.5129 27.8555C24.3776 27.8555 24.2526 27.8243 24.1381 27.7514C23.8777 27.5952 23.6799 27.2411 23.9194 26.6892C23.9402 26.6372 23.9923 26.5643 24.1172 26.5226C24.3567 26.4497 24.7629 26.5643 24.9711 26.71C25.0961 26.7934 25.221 27.0224 25.2523 27.2099C25.2731 27.3348 25.2523 27.4494 25.1898 27.5223C25.0128 27.741 24.7629 27.8555 24.5129 27.8555ZM24.2943 26.71C24.2526 26.71 24.211 26.71 24.1797 26.7205C24.1485 26.7309 24.1172 26.7517 24.1068 26.7725C23.9506 27.137 24.0027 27.439 24.2422 27.5743C24.4609 27.6993 24.8045 27.6681 25.0232 27.3869C25.044 27.3557 25.0544 27.3036 25.044 27.2307C25.0232 27.0849 24.9191 26.9183 24.8462 26.8767C24.7212 26.7934 24.4713 26.71 24.2943 26.71Z" fill="black"/>
<path d="M24.5129 27.8555C24.3776 27.8555 24.2526 27.8243 24.1381 27.7514C23.8777 27.5952 23.6799 27.2411 23.9194 26.6892C23.9402 26.6372 23.9923 26.5643 24.1172 26.5226C24.3567 26.4497 24.7629 26.5643 24.9711 26.71C25.0961 26.7934 25.221 27.0224 25.2523 27.2099C25.2731 27.3348 25.2523 27.4494 25.1898 27.5223C25.0128 27.741 24.7629 27.8555 24.5129 27.8555ZM24.2943 26.71C24.2526 26.71 24.211 26.71 24.1797 26.7205C24.1485 26.7309 24.1172 26.7517 24.1068 26.7725C23.9506 27.137 24.0027 27.439 24.2422 27.5743C24.4609 27.6993 24.8045 27.6681 25.0232 27.3869C25.044 27.3557 25.0544 27.3036 25.044 27.2307C25.0232 27.0849 24.9191 26.9183 24.8462 26.8767C24.7212 26.7934 24.4713 26.71 24.2943 26.71Z" fill="black"/>
<path d="M23.9195 26.6996C24.1278 26.6267 24.1902 26.2102 24.1174 26.0436C24.0028 25.7728 23.6071 25.3667 23.3988 25.5125C22.5137 26.1061 23.201 26.9495 23.9195 26.6996Z" fill="white"/>
<path d="M23.6591 26.8454C23.3571 26.8454 23.0759 26.6892 22.9406 26.4289C22.8052 26.1582 22.8469 25.7624 23.3363 25.4292C23.3883 25.398 23.4717 25.3667 23.5966 25.398C23.8361 25.4709 24.1069 25.7833 24.211 26.0124C24.2735 26.1582 24.2526 26.3977 24.1693 26.5747C24.1173 26.6892 24.034 26.7725 23.9402 26.8038C23.8569 26.835 23.7528 26.8454 23.6591 26.8454ZM23.5029 25.5958C23.4925 25.5958 23.4717 25.5958 23.4612 25.6062C23.1384 25.8249 23.0135 26.0957 23.128 26.3456C23.2321 26.5643 23.5445 26.7205 23.8778 26.6163C23.9194 26.6059 23.9507 26.5643 23.9819 26.5018C24.0444 26.3664 24.0444 26.1894 24.0131 26.1061C23.9402 25.9291 23.7112 25.6687 23.5341 25.6167C23.5237 25.5958 23.5133 25.5958 23.5029 25.5958Z" fill="black"/>
<path d="M23.6591 26.8454C23.3571 26.8454 23.0759 26.6892 22.9406 26.4289C22.8052 26.1582 22.8469 25.7624 23.3363 25.4292C23.3883 25.398 23.4717 25.3667 23.5966 25.398C23.8361 25.4709 24.1069 25.7833 24.211 26.0124C24.2735 26.1582 24.2526 26.3977 24.1693 26.5747C24.1173 26.6892 24.034 26.7725 23.9402 26.8038C23.8569 26.835 23.7528 26.8454 23.6591 26.8454ZM23.5029 25.5958C23.4925 25.5958 23.4717 25.5958 23.4612 25.6062C23.1384 25.8249 23.0135 26.0957 23.128 26.3456C23.2321 26.5643 23.5445 26.7205 23.8778 26.6163C23.9194 26.6059 23.9507 26.5643 23.9819 26.5018C24.0444 26.3664 24.0444 26.1894 24.0131 26.1061C23.9402 25.9291 23.7112 25.6687 23.5341 25.6167C23.5237 25.5958 23.5133 25.5958 23.5029 25.5958Z" fill="black"/>
<path d="M23.5757 25.4396C23.7944 25.4813 24.0547 25.1585 24.0756 24.9815C24.1172 24.6899 23.9714 24.138 23.7319 24.1588C22.6698 24.2109 22.8364 25.2834 23.5757 25.4396Z" fill="white"/>
<path d="M23.6174 25.5438C23.5965 25.5438 23.5757 25.5438 23.5549 25.5334C23.1384 25.45 22.8468 25.0856 22.878 24.7003C22.8988 24.4087 23.1384 24.0755 23.7319 24.0338C23.7944 24.0338 23.8881 24.0443 23.9714 24.138C24.138 24.3254 24.2213 24.7211 24.1901 24.971C24.1693 25.1168 24.0339 25.3251 23.8777 25.4396C23.784 25.5125 23.7007 25.5438 23.6174 25.5438ZM23.7423 24.2525C23.3466 24.2733 23.1071 24.4504 23.0863 24.7211C23.0655 24.9606 23.2529 25.2626 23.5965 25.3355C23.6382 25.3459 23.6903 25.3251 23.7423 25.2834C23.8569 25.2001 23.961 25.0439 23.9714 24.9606C24.0027 24.7628 23.9298 24.4295 23.8048 24.2942C23.784 24.2733 23.7632 24.2525 23.7423 24.2525Z" fill="black"/>
<path d="M23.6174 25.5438C23.5965 25.5438 23.5757 25.5438 23.5549 25.5334C23.1384 25.45 22.8468 25.0856 22.878 24.7003C22.8988 24.4087 23.1384 24.0755 23.7319 24.0338C23.7944 24.0338 23.8881 24.0443 23.9714 24.138C24.138 24.3254 24.2213 24.7211 24.1901 24.971C24.1693 25.1168 24.0339 25.3251 23.8777 25.4396C23.784 25.5125 23.7007 25.5438 23.6174 25.5438ZM23.7423 24.2525C23.3466 24.2733 23.1071 24.4504 23.0863 24.7211C23.0655 24.9606 23.2529 25.2626 23.5965 25.3355C23.6382 25.3459 23.6903 25.3251 23.7423 25.2834C23.8569 25.2001 23.961 25.0439 23.9714 24.9606C24.0027 24.7628 23.9298 24.4295 23.8048 24.2942C23.784 24.2733 23.7632 24.2525 23.7423 24.2525Z" fill="black"/>
<path d="M15.9948 32C7.17475 32 0 24.8148 0 15.9948C0 7.17475 7.17475 0 15.9948 0C24.8148 0 31.9896 7.17475 31.9896 15.9948C31.9896 20.8057 29.9486 25.1689 26.231 28.2825C23.3778 30.6775 19.7332 32 15.9948 32ZM15.9948 0.312398C7.35177 0.312398 0.312398 7.35177 0.312398 15.9948C0.312398 24.6378 7.35177 31.6772 15.9948 31.6772C19.6603 31.6772 23.2216 30.3859 26.0332 28.043C29.6674 24.9815 31.6772 20.712 31.6772 15.9948C31.6876 7.35177 24.6482 0.312398 15.9948 0.312398Z" fill="black"/>
</g>
<g clip-path="url(#clip1_88_672)">
<path d="M56.8779 7.52014H60.6703V24.4799H56.8779V7.52014Z" fill="#291A3D"/>
<path d="M69.1354 21.5601C69.6636 21.5601 70.1106 21.5191 70.4627 21.4236C70.8149 21.3281 71.0858 21.2053 71.3025 21.0552C71.5192 20.9052 71.6546 20.7141 71.7359 20.5095C71.8172 20.2912 71.8578 20.0592 71.8578 19.8C71.8578 19.2406 71.6004 18.7903 71.0858 18.4219C70.5711 18.0535 69.6772 17.6578 68.4175 17.2349C67.8622 17.0438 67.3205 16.8119 66.7651 16.5663C66.2098 16.307 65.7222 15.9932 65.2888 15.6112C64.8554 15.2292 64.4897 14.7652 64.2188 14.2195C63.9479 13.6737 63.8125 13.0051 63.8125 12.2274C63.8125 11.4497 63.9615 10.7402 64.2459 10.1126C64.5439 9.48493 64.9502 8.9528 65.4784 8.51619C66.0067 8.07957 66.6568 7.73847 67.4153 7.50651C68.1737 7.27456 69.0406 7.15176 69.9887 7.15176C71.1264 7.15176 72.1016 7.27456 72.9278 7.52016C73.754 7.76575 74.4312 8.03864 74.973 8.32517L73.8759 11.3405C73.4018 11.0949 72.8872 10.8766 72.3047 10.6856C71.7359 10.4946 71.0316 10.3991 70.2325 10.3991C69.325 10.3991 68.6749 10.5219 68.2821 10.7811C67.8893 11.0404 67.6862 11.4224 67.6862 11.9409C67.6862 12.2547 67.7539 12.5139 67.9029 12.7186C68.0518 12.9369 68.255 13.1279 68.5259 13.2917C68.7968 13.469 69.0948 13.6191 69.4469 13.7556C69.7991 13.892 70.1783 14.0421 70.5982 14.1785C71.4785 14.506 72.237 14.8335 72.8871 15.1473C73.5373 15.4611 74.079 15.8431 74.4989 16.2661C74.9323 16.6891 75.2439 17.1939 75.4606 17.7533C75.6773 18.3264 75.7721 19.0223 75.7721 19.8273C75.7721 21.41 75.2168 22.638 74.1197 23.5112C73.0226 24.3844 71.3566 24.8211 69.1354 24.8211C68.3905 24.8211 67.7132 24.7801 67.1173 24.6846C66.5213 24.5891 65.9931 24.4799 65.5326 24.3571C65.0721 24.2207 64.6793 24.0843 64.3407 23.9478C64.0021 23.7977 63.7312 23.6613 63.501 23.5385L64.571 20.5095C65.0721 20.7824 65.6951 21.0416 66.4265 21.2599C67.1715 21.4509 68.0654 21.5601 69.1354 21.5601Z" fill="#291A3D"/>
<path d="M94.7206 15.9796C94.7206 17.4259 94.5039 18.7084 94.0704 19.8136C93.637 20.9188 93.0546 21.8329 92.3097 22.5834C91.5647 23.3202 90.6844 23.8796 89.655 24.2616C88.6256 24.63 87.515 24.821 86.3367 24.821C85.1854 24.821 84.1019 24.63 83.086 24.2616C82.0702 23.8932 81.1763 23.3338 80.4178 22.5834C79.6593 21.8466 79.0634 20.9188 78.6164 19.8136C78.183 18.7084 77.9663 17.4395 77.9663 15.9796C77.9663 14.5333 78.1966 13.2507 78.6435 12.1455C79.0905 11.0403 79.7135 10.1125 80.472 9.36211C81.244 8.61168 82.1379 8.05226 83.1402 7.67022C84.156 7.30183 85.2125 7.11081 86.3367 7.11081C87.4879 7.11081 88.5715 7.30183 89.5873 7.67022C90.6031 8.05226 91.497 8.61168 92.2555 9.36211C93.014 10.1125 93.6099 11.0403 94.0569 12.1455C94.5039 13.2644 94.7206 14.5333 94.7206 15.9796ZM81.8671 15.9796C81.8671 16.8119 81.9619 17.5623 82.165 18.2309C82.3682 18.8994 82.6526 19.4725 83.0454 19.95C83.4246 20.4276 83.8852 20.796 84.4405 21.0689C84.9958 21.3281 85.6188 21.4645 86.3367 21.4645C87.0274 21.4645 87.664 21.3281 88.2193 21.0689C88.7746 20.8096 89.2487 20.4412 89.6279 19.95C90.0072 19.4725 90.3051 18.8994 90.5083 18.2309C90.7115 17.5623 90.8063 16.8119 90.8063 15.9796C90.8063 15.1473 90.7115 14.3968 90.5083 13.7146C90.3051 13.0324 90.0207 12.4593 89.6279 11.9818C89.2487 11.5043 88.7746 11.1359 88.2193 10.863C87.664 10.6037 87.0274 10.4673 86.3367 10.4673C85.6188 10.4673 84.9958 10.6037 84.4405 10.8766C83.8852 11.1495 83.4246 11.5179 83.0454 12.0091C82.6662 12.4866 82.3682 13.0733 82.165 13.7419C81.9754 14.4241 81.8671 15.1746 81.8671 15.9796Z" fill="#291A3D"/>
<path d="M106.585 21.5601C107.114 21.5601 107.561 21.5191 107.913 21.4236C108.265 21.3281 108.536 21.2053 108.752 21.0552C108.969 20.9052 109.105 20.7141 109.186 20.5095C109.267 20.2912 109.308 20.0592 109.308 19.8C109.308 19.2406 109.05 18.7903 108.536 18.4219C108.021 18.0535 107.127 17.6578 105.867 17.2349C105.312 17.0438 104.77 16.8119 104.215 16.5663C103.66 16.307 103.172 15.9932 102.739 15.6112C102.305 15.2292 101.94 14.7652 101.669 14.2195C101.398 13.6737 101.262 13.0051 101.262 12.2274C101.262 11.4497 101.411 10.7402 101.696 10.1126C101.994 9.48493 102.4 8.9528 102.928 8.51619C103.457 8.07957 104.107 7.73847 104.865 7.50651C105.624 7.27456 106.491 7.15176 107.439 7.15176C108.576 7.15176 109.552 7.27456 110.378 7.52016C111.204 7.76575 111.881 8.03864 112.423 8.32517L111.326 11.3405C110.852 11.0949 110.337 10.8766 109.755 10.6856C109.186 10.4946 108.482 10.3991 107.682 10.3991C106.775 10.3991 106.125 10.5219 105.732 10.7811C105.339 11.0404 105.136 11.4224 105.136 11.9409C105.136 12.2547 105.204 12.5139 105.353 12.7186C105.502 12.9369 105.705 13.1279 105.976 13.2917C106.247 13.469 106.545 13.6191 106.897 13.7556C107.249 13.892 107.628 14.0421 108.048 14.1785C108.928 14.506 109.687 14.8335 110.337 15.1473C110.987 15.4611 111.529 15.8431 111.949 16.2661C112.382 16.6891 112.694 17.1939 112.911 17.7533C113.127 18.3264 113.222 19.0223 113.222 19.8273C113.222 21.41 112.667 22.638 111.57 23.5112C110.473 24.3844 108.807 24.8211 106.585 24.8211C105.84 24.8211 105.163 24.7801 104.567 24.6846C103.971 24.5891 103.443 24.4799 102.983 24.3571C102.522 24.2207 102.129 24.0843 101.791 23.9478C101.452 23.7977 101.181 23.6613 100.951 23.5385L102.021 20.5095C102.522 20.7824 103.145 21.0416 103.876 21.2599C104.621 21.4509 105.529 21.5601 106.585 21.5601Z" fill="#291A3D"/>
<path d="M127.213 9.33483C127.403 10.0034 127.62 10.7538 127.85 11.5998C128.08 12.4457 128.337 13.3053 128.608 14.2058C128.879 15.1063 129.15 16.0069 129.421 16.8937C129.692 17.7942 129.963 18.6265 130.22 19.3906C130.437 18.5583 130.654 17.6578 130.87 16.6754C131.087 15.693 131.304 14.6834 131.493 13.6464C131.683 12.6094 131.886 11.5588 132.062 10.5219C132.252 9.48491 132.428 8.48888 132.59 7.52014H136.532C135.963 10.3581 135.299 13.2371 134.568 16.1569C133.823 19.0768 133.024 21.8466 132.157 24.4799H128.69C128.121 22.9108 127.579 21.2735 127.037 19.5544C126.509 17.8352 125.981 16.1024 125.466 14.3832C124.951 16.116 124.423 17.8352 123.908 19.5544C123.394 21.2735 122.852 22.9245 122.283 24.4799H118.816C117.949 21.8602 117.15 19.0768 116.419 16.1569C115.674 13.2371 115.023 10.3581 114.455 7.52014H118.545C118.707 8.48888 118.884 9.48491 119.087 10.5219C119.276 11.5588 119.48 12.5958 119.696 13.6464C119.913 14.697 120.13 15.7067 120.346 16.6754C120.563 17.6578 120.793 18.5583 121.024 19.3906C121.322 18.5856 121.606 17.7397 121.877 16.8392C122.148 15.9386 122.419 15.0381 122.676 14.1512C122.933 13.2507 123.177 12.3911 123.394 11.5588C123.611 10.7265 123.814 9.98975 123.99 9.33483H127.213Z" fill="#291A3D"/>
<path d="M149.25 24.4799C149.06 23.8932 148.857 23.2792 148.64 22.6652C148.424 22.0376 148.207 21.4236 147.99 20.8096H141.421C141.205 21.4236 141.001 22.0513 140.785 22.6652C140.568 23.2929 140.378 23.8932 140.189 24.4799H136.247C136.884 22.6516 137.48 20.9597 138.049 19.4179C138.618 17.8625 139.173 16.4025 139.715 15.0381C140.256 13.6737 140.798 12.3638 141.326 11.1359C141.855 9.90788 142.396 8.70719 142.965 7.52014H146.554C147.11 8.69355 147.652 9.89424 148.193 11.1359C148.735 12.3638 149.277 13.6737 149.819 15.0381C150.36 16.4025 150.916 17.8625 151.485 19.4179C152.053 20.9734 152.649 22.6516 153.286 24.4799H149.25ZM144.685 11.3678C144.604 11.6134 144.482 11.9545 144.32 12.3775C144.157 12.8005 143.968 13.2917 143.764 13.8511C143.561 14.4105 143.317 15.0245 143.06 15.693C142.803 16.3616 142.545 17.0575 142.275 17.7942H147.083C146.825 17.0575 146.582 16.3616 146.338 15.693C146.094 15.0245 145.864 14.4105 145.647 13.8511C145.43 13.2917 145.241 12.8005 145.078 12.3775C144.929 11.9409 144.794 11.5998 144.685 11.3678Z" fill="#291A3D"/>
<path d="M160.519 7.32913C163.024 7.32913 164.961 7.77939 166.302 8.66627C167.643 9.55314 168.32 11.0131 168.32 13.0324C168.32 15.0654 167.643 16.539 166.275 17.4532C164.92 18.3537 162.97 18.8176 160.451 18.8176H159.259V24.4936H155.467V7.76575C156.293 7.60202 157.173 7.49286 158.094 7.42464C159.015 7.35642 159.814 7.32913 160.519 7.32913ZM160.762 10.5765C160.491 10.5765 160.221 10.5901 159.95 10.6037C159.679 10.6174 159.449 10.631 159.259 10.6583V15.5566H160.451C161.765 15.5566 162.753 15.3792 163.417 15.0245C164.081 14.6697 164.419 14.0012 164.419 13.0188C164.419 12.5412 164.338 12.1592 164.162 11.8454C163.986 11.5316 163.756 11.286 163.431 11.0949C163.119 10.9039 162.726 10.7811 162.279 10.6993C161.819 10.6174 161.304 10.5765 160.762 10.5765Z" fill="#291A3D"/>
<path d="M53.248 16.962C52.8552 16.2661 52.1238 15.7067 51.0673 15.2974C52.3676 14.5196 53.0042 13.4417 53.0042 12.091C53.0042 11.1904 52.8281 10.44 52.4624 9.82602C52.0967 9.21203 51.5956 8.72084 50.9454 8.3388C50.2953 7.97041 49.5233 7.69752 48.6294 7.54744C48.0063 7.43828 47.3291 7.37006 46.6113 7.34277H46.8957V5.76004H44.9589V7.32913C44.4848 7.32913 43.8483 7.32913 43.2117 7.32913V5.76004H41.2748V7.32913C41.0717 7.32913 40.9091 7.32913 40.7872 7.32913C40.6518 7.32913 40.557 7.32913 40.557 7.32913H39.04V9.07559H40.5435V22.9518H39.04V24.6982H40.5435C40.5435 24.6982 40.6247 24.6982 40.7737 24.6982C40.8956 24.6982 41.0717 24.6982 41.2613 24.6982V26.24H43.1981V24.6982C43.8076 24.6982 44.4171 24.6982 44.9453 24.6982V26.24H46.8957V24.6846C49.0763 24.6027 50.7423 24.1661 51.9071 23.3475C53.1938 22.4469 53.8439 21.1098 53.8439 19.3361C53.8439 18.4628 53.6408 17.6715 53.248 16.962ZM44.241 10.4809C44.539 10.4537 44.8641 10.4264 45.2433 10.4264C45.609 10.4127 45.9612 10.4127 46.2862 10.4127C47.2885 10.4127 48.047 10.5492 48.5752 10.8221C49.0899 11.0949 49.3472 11.5861 49.3472 12.2683C49.3472 12.9369 49.0899 13.4281 48.5887 13.7283C48.0876 14.0284 47.2479 14.1785 46.0831 14.1785H44.241V10.4809ZM48.9544 21.0825C48.2637 21.41 47.3427 21.5737 46.205 21.5737C45.8122 21.5737 45.46 21.5601 45.135 21.5464C44.8099 21.5328 44.5119 21.5055 44.241 21.4782V17.0848H46.6248C47.7084 17.0848 48.5481 17.2485 49.1305 17.5896C49.7129 17.9307 50.0109 18.4765 50.0109 19.2678C49.9973 20.1411 49.6452 20.7551 48.9544 21.0825Z" fill="#FFB800"/>
</g>
<defs>
<clipPath id="clip0_88_672">
<rect width="32" height="32" fill="white"/>
</clipPath>
<clipPath id="clip1_88_672">
<rect width="129.28" height="20.48" fill="white" transform="translate(39.04 5.76004)"/>
</clipPath>
</defs>
</svg>
