<svg width="26" height="21" viewBox="0 0 26 21" fill="none" xmlns="http://www.w3.org/2000/svg">
<path d="M21.9482 2.13719C21.941 2.12296 21.9292 2.11182 21.9148 2.10575C20.2469 1.32 18.4868 0.759703 16.6785 0.438874C16.6621 0.435738 16.6451 0.438001 16.63 0.44534C16.6149 0.452679 16.6024 0.464721 16.5944 0.479753C16.3547 0.926406 16.1371 1.38519 15.9425 1.85436C13.9933 1.55055 12.0106 1.55055 10.0613 1.85436C9.86542 1.384 9.64437 0.925101 9.39919 0.479753C9.39078 0.465047 9.37825 0.453283 9.36324 0.445991C9.34823 0.4387 9.33142 0.43622 9.31501 0.438874C7.50656 0.759029 5.74634 1.31937 4.07866 2.10579C4.06439 2.112 4.05234 2.12262 4.04419 2.13616C0.70917 7.24997 -0.204417 12.2381 0.243758 17.1644C0.245018 17.1764 0.248631 17.1881 0.254381 17.1987C0.26013 17.2094 0.2679 17.2187 0.277226 17.2261C2.21918 18.7025 4.39127 19.8294 6.70082 20.5588C6.71708 20.5639 6.73445 20.5636 6.75059 20.5582C6.76673 20.5528 6.78085 20.5424 6.79108 20.5285C7.28712 19.8355 7.72665 19.1016 8.1052 18.3344C8.1104 18.3239 8.11337 18.3123 8.11391 18.3005C8.11445 18.2887 8.11255 18.277 8.10834 18.266C8.10413 18.255 8.0977 18.2451 8.08947 18.2368C8.08125 18.2286 8.07141 18.2222 8.06061 18.2181C7.36751 17.9458 6.6965 17.6176 6.05389 17.2365C6.04222 17.2294 6.03241 17.2195 6.02534 17.2077C6.01827 17.1958 6.01416 17.1823 6.01336 17.1685C6.01256 17.1546 6.0151 17.1407 6.02076 17.1281C6.02641 17.1155 6.03501 17.1045 6.0458 17.096C6.18102 16.9923 6.31389 16.8854 6.44431 16.7754C6.45575 16.7658 6.4696 16.7596 6.48428 16.7575C6.49897 16.7555 6.51392 16.7577 6.52744 16.7639C10.7375 18.7368 15.2954 18.7368 19.4556 16.7639C19.4691 16.7573 19.4842 16.7548 19.4991 16.7566C19.514 16.7585 19.5281 16.7647 19.5397 16.7744C19.6703 16.885 19.8035 16.9922 19.9393 17.096C19.9501 17.1044 19.9588 17.1153 19.9645 17.1279C19.9703 17.1405 19.9729 17.1543 19.9722 17.1682C19.9715 17.1821 19.9675 17.1956 19.9605 17.2075C19.9535 17.2194 19.9438 17.2293 19.9322 17.2365C19.291 17.6208 18.6194 17.9488 17.9245 18.2171C17.9137 18.2213 17.9039 18.2278 17.8957 18.2362C17.8876 18.2446 17.8812 18.2546 17.8771 18.2657C17.8729 18.2768 17.8711 18.2886 17.8718 18.3005C17.8724 18.3123 17.8755 18.3239 17.8807 18.3344C18.2656 19.0973 18.7045 19.8303 19.1939 20.5273C19.2038 20.5416 19.2178 20.5523 19.234 20.5579C19.2502 20.5636 19.2678 20.5638 19.2841 20.5587C21.5978 19.8318 23.7737 18.7047 25.7181 17.2261C25.7275 17.219 25.7354 17.21 25.7412 17.1995C25.747 17.189 25.7505 17.1774 25.7515 17.1654C26.2881 11.4701 24.8533 6.52287 21.9482 2.13719ZM8.73393 14.1648C7.4664 14.1648 6.422 12.9704 6.422 11.5036C6.422 10.0368 7.44615 8.84241 8.73393 8.84241C10.0318 8.84241 11.0661 10.0472 11.0458 11.5035C11.0458 12.9704 10.0216 14.1648 8.73393 14.1648ZM17.2818 14.1648C16.0143 14.1648 14.9699 12.9704 14.9699 11.5036C14.9699 10.0368 15.9941 8.84241 17.2818 8.84241C18.5797 8.84241 19.614 10.0472 19.5937 11.5035C19.5937 12.9704 18.5797 14.1648 17.2818 14.1648Z" fill="#231815"/>
</svg>
