<svg width="29" height="25" viewBox="0 0 29 25" fill="none" xmlns="http://www.w3.org/2000/svg">
<path d="M22.3078 16.9608C22.3078 18.2334 21.6442 20.3077 20.0765 20.3077C18.5071 20.3077 17.8435 18.2334 17.8435 16.9608C17.8435 15.6899 18.5071 13.6138 20.0765 13.6138C21.6442 13.6138 22.3078 15.6899 22.3078 16.9608ZM8.92347 13.6138C7.35576 13.6138 6.69218 15.6899 6.69218 16.9608C6.69218 18.2334 7.35576 20.3077 8.92347 20.3077C10.4912 20.3077 11.1548 18.2334 11.1548 16.9608C11.1548 15.6899 10.4912 13.6138 8.92347 13.6138ZM29 13.8936C29 15.8298 28.8089 17.8854 27.9372 19.6629C25.636 24.3166 19.3106 24.7686 14.7798 24.7686C10.179 24.7686 3.46976 24.3694 1.08153 19.6629C0.191059 17.9024 0 15.8298 0 13.8936C0 11.3484 0.697706 8.94485 2.37118 6.99332C2.05935 6.03594 1.90046 5.03537 1.90035 4.02849C1.90035 2.72179 2.19547 1.41679 2.78912 0.229492C5.54241 0.229492 7.30288 1.43214 9.39429 3.06979C11.1597 2.65819 12.967 2.45381 14.7798 2.46079C16.4174 2.46079 18.0738 2.63649 19.6603 3.01861C21.7346 1.39802 23.4934 0.229492 26.2126 0.229492C26.8062 1.41508 27.1014 2.72179 27.1014 4.02849C27.1014 5.02302 26.9444 6.01585 26.6305 6.95749C28.304 8.92608 29 11.3484 29 13.8936ZM25.0952 16.9608C25.0952 14.2945 23.4764 11.9421 20.6344 11.9421C19.4846 11.9421 18.3877 12.1519 17.2362 12.3088C16.3304 12.4487 15.4246 12.4999 14.5 12.4999C13.5754 12.4999 12.6696 12.4487 11.7638 12.3088C10.6311 12.1519 9.51541 11.9421 8.36565 11.9421C5.52535 11.9421 3.90476 14.2945 3.90476 16.9608C3.90476 22.2934 8.78359 23.1122 13.0364 23.1122H15.9654C20.2181 23.1139 25.0952 22.2934 25.0952 16.9608Z" fill="#231815"/>
</svg>
