<svg width="263" height="50" viewBox="0 0 263 50" fill="none" xmlns="http://www.w3.org/2000/svg">
<g clip-path="url(#clip0_52_75)">
<path d="M49.7559 24.9918C49.7559 32.6391 46.3878 39.3426 40.8558 43.9961C36.5603 47.5756 31.0445 49.7396 25.0081 49.7396C11.3406 49.7396 0.260254 38.6592 0.260254 24.9918C0.260254 11.3244 11.3244 0.244019 24.9918 0.244019C38.6592 0.244019 49.7559 11.3244 49.7559 24.9918Z" fill="white"/>
<path d="M44.7933 10.1204C44.3703 9.55092 43.9147 9.01399 43.4428 8.49332C43.2151 8.23299 42.971 7.97266 42.7269 7.71233C42.6456 7.63097 42.5642 7.54962 42.4829 7.46827C41.6531 6.63846 40.7582 5.87373 39.8145 5.15782C39.5704 4.97884 39.3426 4.79986 39.0986 4.63716C38.7243 4.37682 38.3501 4.13276 37.9759 3.90497C37.6016 3.67718 37.2112 3.44939 36.8044 3.23787C36.3651 2.99381 35.9258 2.78229 35.4702 2.57077C35.1122 2.39179 34.738 2.24536 34.3638 2.08265C33.8919 1.8874 33.4201 1.70842 32.9482 1.54571C32.753 1.48063 32.5577 1.41555 32.3625 1.35046C32.1672 1.28538 31.972 1.23657 31.7767 1.17149C31.4838 1.09013 31.191 1.00878 30.8818 0.943696C30.6866 0.894884 30.4751 0.846072 30.2798 0.797259C28.5714 0.423032 26.8141 0.227783 24.9918 0.227783C23.1695 0.227783 21.4123 0.423032 19.7038 0.797259C19.5086 0.846072 19.2971 0.878613 19.1018 0.943696C18.8089 1.00878 18.5161 1.09013 18.2069 1.17149C18.0117 1.2203 17.8164 1.28538 17.6212 1.35046C17.4259 1.41555 17.2307 1.48063 17.0354 1.54571C16.5636 1.70842 16.0755 1.8874 15.6199 2.08265C15.2456 2.22908 14.8714 2.39179 14.5135 2.57077C14.0579 2.78229 13.6186 3.01008 13.1793 3.23787C12.7888 3.44939 12.3983 3.67718 12.024 3.90497C11.7637 4.06768 11.5196 4.23039 11.2756 4.39309C10.9014 4.63716 10.5434 4.89749 10.1854 5.17409C10.0715 5.27171 9.94138 5.35307 9.82749 5.45069C9.35564 5.80865 8.90005 6.19915 8.46074 6.58964C8.23295 6.78489 8.02143 6.99641 7.80992 7.19166C7.71229 7.28929 7.59839 7.40318 7.50077 7.50081C6.37809 8.60722 5.3693 9.84379 4.47441 11.1617C4.36052 11.3244 4.24662 11.4871 4.149 11.6498C1.67584 15.506 0.244019 20.0781 0.244019 24.9919C0.244019 25.1383 0.244019 25.2847 0.244019 25.4312C0.244019 25.4963 0.244019 25.5613 0.244019 25.6101V25.6264C0.244019 25.7729 0.260289 25.903 0.260289 26.0332C0.260289 26.0495 0.260289 26.0657 0.260289 26.0657C0.260289 26.2122 0.27656 26.3586 0.27656 26.505C0.27656 26.5376 0.27656 26.5864 0.27656 26.6189C0.292831 26.7654 0.292831 26.9281 0.309102 27.0745C0.309102 27.0908 0.309102 27.0908 0.309102 27.1071C0.325372 27.2372 0.325372 27.3674 0.341643 27.4976C0.341643 27.5464 0.357914 27.5952 0.357914 27.6603C0.374185 27.823 0.390455 27.9694 0.406726 28.1321C0.422997 28.3111 0.455538 28.4901 0.48808 28.6528C0.50435 28.7992 0.536892 28.9619 0.553163 29.1084C0.569433 29.1734 0.569433 29.2548 0.585704 29.3199C0.601975 29.4338 0.634516 29.5477 0.650787 29.6778C0.683329 29.8243 0.71587 29.9707 0.748412 30.1334C0.797224 30.3287 0.829765 30.5239 0.878578 30.7192C0.911119 30.8493 0.943661 30.9958 0.976202 31.1259C0.992473 31.191 1.00874 31.2398 1.02501 31.3049C1.05756 31.4351 1.0901 31.5652 1.12264 31.6954C1.15518 31.8256 1.18772 31.9395 1.23653 32.0696C1.2528 32.1184 1.26908 32.1835 1.28535 32.2323C1.33416 32.3625 1.3667 32.5089 1.41551 32.6391C1.41551 32.6554 1.43178 32.6879 1.43178 32.7042C1.4806 32.8506 1.52941 32.9971 1.57822 33.1435C1.62703 33.3062 1.69211 33.4689 1.74093 33.6154C1.85482 33.9082 1.96872 34.2174 2.09888 34.5102C2.16397 34.6567 2.21278 34.7868 2.27786 34.9333C2.29413 34.9821 2.32667 35.0472 2.34294 35.096C2.35922 35.1285 2.35922 35.1448 2.37549 35.1773C2.4243 35.275 2.47311 35.3889 2.52192 35.4865C2.58701 35.6329 2.66836 35.7956 2.73344 35.9421C2.8148 36.0885 2.87988 36.2349 2.96123 36.3977C3.02632 36.5278 3.10767 36.6743 3.17275 36.8044C3.17275 36.8207 3.18902 36.837 3.18902 36.837C3.27038 36.9834 3.35173 37.1298 3.43308 37.2763C3.43308 37.2925 3.44936 37.3088 3.46563 37.3251C3.53071 37.4552 3.61206 37.5854 3.69342 37.7156C3.87239 38.0085 4.05137 38.3176 4.24662 38.6105C4.32798 38.7244 4.39306 38.8383 4.47441 38.9522C4.58831 39.1149 4.7022 39.2776 4.8161 39.4403C4.89745 39.5542 4.97881 39.6681 5.06016 39.782C5.07643 39.7982 5.07643 39.8145 5.0927 39.8145C5.17405 39.9284 5.25541 40.026 5.33676 40.1399C5.45066 40.2864 5.56455 40.4165 5.67845 40.563C5.77607 40.6931 5.88997 40.8233 5.98759 40.9535C6.10149 41.0836 6.19911 41.2138 6.31301 41.3277C6.63842 41.7019 6.98011 42.0599 7.32179 42.4178C7.41942 42.5155 7.51704 42.6131 7.63094 42.727C7.64721 42.7432 7.66348 42.7595 7.67975 42.7758C7.79364 42.8897 7.90754 42.9873 8.02143 43.1012C8.03771 43.1175 8.05398 43.1337 8.07025 43.15C8.18414 43.2639 8.29804 43.3615 8.41193 43.4592C8.5421 43.5731 8.65599 43.6707 8.78616 43.7846C9.03022 43.9961 9.29055 44.2076 9.55088 44.4191C9.68105 44.5168 9.81122 44.6306 9.94138 44.7283C10.0715 44.8259 10.2017 44.9235 10.3482 45.0212C10.3482 45.0212 10.3644 45.0211 10.3644 45.0374L10.7549 45.314C10.8851 45.4116 11.0315 45.5093 11.1617 45.5906C11.3732 45.7371 11.5847 45.8672 11.7962 45.9974C12.0078 46.1276 12.2193 46.2577 12.4308 46.3879C12.7888 46.5994 13.1304 46.7947 13.5047 46.9736C13.6186 47.0387 13.7487 47.0875 13.8626 47.1526C15.6524 48.0963 18.0605 48.8285 18.6137 48.9424C18.8089 48.9749 19.0205 48.8773 19.053 48.6658C19.1669 48.1451 19.3784 47.1526 19.5249 46.5343C20.2082 43.7846 20.9729 40.7094 20.1269 36.9183C20.1106 36.8532 20.0943 36.7719 20.0781 36.6905C20.0455 36.5929 20.0292 36.4953 19.9967 36.3977C19.8991 36.3977 19.8177 36.3977 19.7201 36.3814C19.6225 36.3814 19.5249 36.3651 19.4435 36.3488C19.0042 36.2838 18.6462 36.1373 18.4184 35.877C18.0117 35.3889 18.0442 34.738 18.3371 34.1523C18.7276 34.2336 19.1181 34.2662 19.5249 34.2825C19.6225 34.2825 19.7201 34.2825 19.8177 34.2825C19.9153 34.2825 20.0292 34.2825 20.1269 34.2825C21.3634 34.2499 22.421 34.0059 22.5024 33.9896C22.6326 33.957 22.7302 33.8106 22.6976 33.6804C22.6651 33.534 22.5187 33.4526 22.3885 33.4852C22.3722 33.4852 21.5912 33.6642 20.5987 33.7455C20.4686 33.7618 20.3547 33.7618 20.2082 33.7618C20.0943 33.7618 19.9804 33.7781 19.8665 33.7781C19.4598 33.7781 19.0367 33.7618 18.6462 33.6967C18.5486 33.6804 18.451 33.6642 18.3534 33.6479C18.2557 33.6316 18.1744 33.5991 18.093 33.5828C17.6863 33.4689 17.3283 33.3062 17.0354 33.0459C15.1806 31.5002 14.1067 26.505 13.3908 23.2183C13.0166 21.4936 12.7562 20.2571 12.4633 19.7852C12.4633 19.7852 12.4471 19.7364 12.4145 19.6713C12.7237 18.8741 12.9352 18.0768 13.0166 17.7188C13.0491 17.5724 12.9677 17.4422 12.8213 17.4097C12.7725 17.3934 12.7237 17.4097 12.6749 17.426C12.5935 17.4585 12.5284 17.5236 12.5122 17.6049C12.4145 18.0443 12.2681 18.5161 12.1217 18.988C12.0891 19.1018 12.0403 19.232 11.9915 19.3459C11.9427 19.4761 11.8939 19.59 11.8451 19.7039C11.6173 20.2245 11.3732 20.6638 11.0966 20.9079C9.77867 22.1445 8.33058 22.0957 7.7611 22.0143C7.2079 21.933 6.91502 21.7703 6.84994 21.6889C6.89875 21.6075 7.12654 21.4448 7.30552 21.3309C7.92381 20.9242 8.94887 20.2245 9.69732 18.6463C10.2668 17.4422 10.7549 16.7589 11.1454 16.3846C11.243 16.287 11.3244 16.2219 11.422 16.1568C11.5196 16.0918 11.601 16.0429 11.6824 16.0267C11.8125 15.9779 11.9101 15.9779 12.0078 15.9779C12.0566 15.9779 12.0891 15.9779 12.1217 15.9616C12.203 15.9291 12.2844 15.8477 12.2844 15.7338C12.3006 15.5874 12.1867 15.4572 12.0566 15.4572C11.959 15.4409 11.8613 15.4409 11.7637 15.4572C11.7962 15.2945 11.8288 15.1318 11.8776 14.9691C12.0891 14.2532 12.4471 13.6186 12.9515 13.0491C13.0003 13.1142 13.0816 13.1468 13.1467 13.1468C13.2118 13.1468 13.2769 13.1142 13.342 13.0654C13.4233 12.984 13.4396 12.8539 13.3745 12.7563C13.3745 12.74 13.3582 12.7237 13.3257 12.7074C13.3257 12.6912 13.3094 12.6912 13.3094 12.6912C13.2443 12.6261 13.1955 12.5773 13.1467 12.5122C13.0816 12.4471 13.0328 12.3658 12.984 12.2844C12.561 11.6498 12.4959 10.9339 12.6261 10.4621C12.6911 10.2506 12.805 10.0879 12.9027 10.0553C12.9189 10.0553 12.9352 10.0553 12.9352 10.0553C12.9677 10.1367 12.9515 10.3645 12.9515 10.5272C12.9352 10.9014 12.9352 11.357 13.0979 11.78C13.1467 11.8939 13.2606 11.959 13.3908 11.9427C13.4721 11.9264 13.5535 11.8614 13.586 11.7963C13.6023 11.7637 13.6023 11.7312 13.6023 11.6987C13.6023 11.0804 14.6924 10.039 15.327 9.89261C15.506 9.86006 15.5222 9.90888 15.5385 9.92515C15.685 10.2343 15.4734 10.4458 14.969 10.8363C14.8389 10.9339 14.6924 11.0478 14.5623 11.178C14.3833 11.3407 14.2369 11.5197 14.1555 11.7312C14.1067 11.8451 14.0904 11.959 14.0904 12.0729C14.0904 12.1217 14.0904 12.1705 14.1067 12.2356C14.1067 12.2681 14.123 12.3007 14.1392 12.3332C14.188 12.4146 14.2857 12.4797 14.3996 12.4634C14.546 12.4471 14.6436 12.3169 14.6274 12.1705C14.5948 11.9753 14.6924 11.7963 14.8877 11.6173C16.889 10.5597 18.7276 10.3807 20.3384 11.0966C20.5011 11.1617 20.6475 11.2431 20.794 11.3244C20.9404 11.4058 21.0706 11.4871 21.217 11.5848C21.7702 11.959 22.2746 12.4471 22.7465 13.0491C22.9417 13.2769 23.2509 13.5373 23.2997 13.5861C23.3647 13.6349 23.4298 13.6837 23.5275 13.765C24.0481 14.1881 24.943 15.0342 25.8216 15.8477C26.3586 16.3358 26.9443 16.889 27.5301 17.426C27.5138 17.4748 27.4975 17.5399 27.465 17.5887C27.3999 17.7839 27.3185 18.0117 27.2535 18.2558C27.1396 18.6137 27.0094 19.0205 26.863 19.5249L26.8467 19.6062L26.8792 19.6876C27.2046 20.6476 28.4412 21.6238 29.7429 21.933C30.0358 21.998 30.3124 22.0306 30.5727 22.0306C31.2072 22.0306 31.793 21.8516 32.2648 21.4937C32.3299 21.4448 32.4113 21.3798 32.4764 21.3147C32.5089 21.2821 32.5252 21.2659 32.5577 21.2333L32.574 21.217C32.5903 21.2008 32.6065 21.1682 32.6391 21.1357C32.6879 21.0543 32.7692 20.9404 32.8343 20.8103C32.9157 20.8591 32.997 20.9242 33.0784 20.973C33.6804 21.3635 34.2824 22.0306 34.4126 22.2909C34.4614 22.4536 34.4614 22.6326 34.4289 22.8116C34.4289 22.8441 34.4126 22.8767 34.3963 22.9092C34.3638 23.0068 34.315 23.1045 34.2499 23.2021C34.2173 23.2672 34.1685 23.3322 34.1197 23.3973C33.8106 23.7716 33.3387 24.097 32.7855 24.2922C32.6879 24.3248 32.6065 24.3573 32.5089 24.3736C32.4276 24.3898 32.3625 24.4061 32.2811 24.4224C32.2811 24.4224 32.2811 24.4224 32.2648 24.4224C32.0696 24.4549 30.1659 24.8129 27.709 24.9919C26.8304 25.0569 25.8867 25.0895 24.9267 25.0895C24.5037 25.0895 24.0644 25.0732 23.6413 25.0569C22.9905 25.0244 22.3397 24.9756 21.7214 24.8942H21.7051C21.2007 24.8292 20.7126 24.7315 20.257 24.6176C20.2082 24.6176 20.1757 24.6014 20.1431 24.5851H20.1269C18.451 24.0156 17.5235 24.4712 17.0354 24.943C16.287 25.6752 16.108 26.9606 16.531 28.3274C16.9703 29.6941 18.0768 31.2236 19.9642 31.9883C20.0618 32.0371 20.1757 32.0696 20.2733 32.1022C20.3872 32.1347 20.4848 32.1673 20.5987 32.1998C20.8428 32.2649 21.1031 32.33 21.3634 32.3625C21.4448 32.3788 21.5424 32.3951 21.6238 32.3951C21.7702 32.4113 21.9167 32.4276 22.0794 32.4439C22.2421 32.4601 22.421 32.4764 22.5838 32.4927C22.9092 32.5089 23.2346 32.5252 23.5763 32.5252H23.6251C25.0732 32.5252 26.6026 32.3462 28.0507 32.0208C29.5476 31.6791 30.9632 31.2073 32.1509 30.6215C32.3137 30.5402 32.4764 30.4588 32.6391 30.3612C32.7855 30.2799 32.9157 30.1985 33.0458 30.1171C33.2899 29.9707 33.5177 29.808 33.7292 29.6616C34.1848 29.3199 34.559 28.9619 34.8194 28.5877C34.8682 28.6365 34.9007 28.7179 34.917 28.7829V28.7992C34.9332 28.848 34.9332 28.8968 34.9332 28.9457C34.9332 29.3199 34.6892 29.7917 34.315 30.2636C34.2499 30.3449 34.1848 30.4263 34.1197 30.4914C34.0546 30.5727 33.9733 30.6541 33.9082 30.7192C33.4363 31.2073 32.8506 31.6466 32.2648 31.9395C32.1347 32.0046 32.0859 32.151 32.1347 32.2649V32.2812C32.1835 32.3788 32.2811 32.4276 32.3787 32.4276C32.4113 32.4276 32.4601 32.4276 32.4926 32.3951C33.2085 32.0534 33.957 31.4676 34.5265 30.8168C34.5916 30.7354 34.6566 30.6704 34.7217 30.589C34.7868 30.5076 34.8356 30.4426 34.8844 30.3612C35.2424 29.8731 35.4702 29.3524 35.4702 28.9131C35.4702 28.7504 35.4376 28.604 35.3888 28.4738C35.4376 28.4087 35.4376 28.4087 35.5027 28.3599C36.0397 28.5552 36.4627 28.8968 36.7068 29.3361C36.8857 29.6778 36.9183 30.0195 36.7881 30.2473C36.7881 30.2636 36.7718 30.2799 36.7718 30.2961C36.6742 30.589 36.5115 30.8331 36.3 31.0771C36.2349 31.1422 36.1861 31.2073 36.121 31.2724C36.0559 31.3375 35.9908 31.3863 35.9258 31.4513C35.9908 31.5164 36.0722 31.5815 36.1373 31.6629C36.1861 31.7117 36.2349 31.7605 36.2837 31.8256C37.7969 33.6154 40.1399 38.7244 40.2701 43.7846C40.2701 44.0449 40.5792 44.1751 40.7744 44.0124C40.7744 44.0124 41.1161 43.7195 41.2788 43.5731C41.5229 43.3615 41.7507 43.1337 41.9948 42.9222C42.0761 42.8409 42.1737 42.7595 42.2551 42.6782C42.3364 42.5968 42.4178 42.5155 42.4991 42.4504C42.5805 42.369 42.6618 42.2877 42.7269 42.2063C42.8083 42.125 42.8734 42.0436 42.9547 41.9622C43.0361 41.8809 43.1012 41.7995 43.1825 41.7182C43.2476 41.6368 43.3127 41.5718 43.394 41.4904C43.6706 41.165 43.9472 40.8558 44.2238 40.5142C44.2889 40.4328 44.354 40.3677 44.4028 40.2864C44.4679 40.205 44.533 40.1237 44.5818 40.0586C44.6469 39.9772 44.6957 39.8959 44.7608 39.8145C44.8259 39.7332 44.8747 39.6518 44.9398 39.5704C45.0536 39.4077 45.1675 39.245 45.2814 39.0823C45.3465 39.001 45.3953 38.9196 45.4441 38.8383C45.7207 38.4315 45.9811 38.0085 46.2414 37.5691C46.3065 37.4552 46.3716 37.3576 46.4367 37.2437C46.5668 37.0322 46.6807 36.8044 46.7946 36.5929C46.8597 36.479 46.9085 36.3651 46.9736 36.2675C47.0224 36.1861 47.055 36.0885 47.1038 36.0072C47.6407 34.9333 48.0963 33.8106 48.4705 32.6554C48.5356 32.4601 48.6007 32.2649 48.6495 32.0696C48.682 31.972 48.6983 31.8744 48.7308 31.7768C48.7959 31.549 48.861 31.3375 48.9098 31.1097C49.0237 30.6703 49.1213 30.2148 49.219 29.7592C49.2678 29.5314 49.3003 29.3036 49.3491 29.0758C49.3654 28.9782 49.3817 28.8643 49.3979 28.7667C49.4468 28.4901 49.4793 28.2135 49.5118 27.9206C49.5606 27.4976 49.6095 27.0745 49.6257 26.6515C49.6583 26.2284 49.6745 25.7891 49.6745 25.3498V25.3173C49.6745 25.2685 49.6745 25.2197 49.6745 25.1546C49.6745 25.1058 49.6745 25.0407 49.6745 24.9919C49.7559 19.411 47.901 14.2694 44.7933 10.1204ZM23.6251 13.0817C23.56 13.0329 23.5112 13.0003 23.4624 12.984L23.4461 12.9515C23.0719 12.4471 22.6651 12.0078 22.2421 11.6336C22.4373 11.6661 22.6326 11.6987 22.8115 11.7312C23.739 11.8939 24.6013 12.0403 25.5125 11.6336C25.5288 11.9102 24.4549 12.5936 23.6251 13.0817ZM29.6453 29.5802C29.3036 29.5314 28.7178 29.5314 28.0507 29.7266C27.6928 29.8243 27.3348 29.987 26.9769 30.231C26.7979 30.3449 26.6189 30.5239 26.4562 30.7029C26.3748 30.8005 26.2772 30.9144 26.2121 31.012C26.1308 31.1259 26.0494 31.2236 25.9843 31.3375C25.8542 31.549 25.7565 31.7442 25.7403 31.8744C25.0894 31.9395 24.4549 31.9883 23.8203 31.9883C23.5925 31.9883 23.3485 31.9883 23.1207 31.972C23.0068 31.972 22.8766 31.972 22.7627 31.9557C22.7953 31.9069 22.8278 31.8744 22.8604 31.8093C23.0719 31.5002 23.4461 30.9958 24.0156 30.4914C24.2922 30.231 24.6176 29.987 24.9756 29.7592C25.2522 29.5965 25.545 29.4338 25.8542 29.3036C26.4725 29.0433 27.0582 28.8643 27.5951 28.7504C27.9856 28.669 28.3436 28.6202 28.6527 28.6202C29.0595 28.604 29.3849 28.6365 29.629 28.7016C29.6615 28.7179 29.6941 28.7179 29.7103 28.7341C30.4425 28.9945 30.1659 29.6453 29.6453 29.5802Z" fill="black"/>
<path d="M22.8431 36.4615C22.4937 36.5708 21.3321 36.9035 20.187 36.9156L20.1392 36.9108C20.0595 36.9026 19.9941 36.9121 19.9144 36.904C19.8187 36.8942 19.739 36.8861 19.6417 36.8923C19.0199 36.8289 18.4589 36.6428 18.0834 36.2179C17.5519 35.5838 17.5567 34.7466 17.8882 34.0232C17.9299 33.9308 17.9699 33.8543 18.0115 33.7619C18.0499 33.7014 18.0899 33.6249 18.1283 33.5644C18.2064 33.5885 18.3004 33.6141 18.3945 33.6398C18.4885 33.6655 18.5842 33.6753 18.6942 33.7026C18.6382 33.7775 18.5998 33.838 18.5439 33.9128C18.4863 34.0036 18.4446 34.096 18.387 34.1868C18.1021 34.7699 18.0673 35.4269 18.4683 35.9188C18.6847 36.1664 19.0559 36.317 19.4848 36.3769C19.5805 36.3866 19.6602 36.3948 19.7718 36.4061C19.8515 36.4143 19.9472 36.424 20.0445 36.4178C20.8482 36.4353 21.8006 36.2585 22.6654 35.9923C22.7978 35.9574 22.9524 36.0215 22.9856 36.1699C22.9856 36.1699 22.984 36.1858 22.9999 36.1875C23.0539 36.2896 22.9755 36.4266 22.8431 36.4615Z" fill="black"/>
<path d="M32.7204 19.9805C32.6879 20.0618 32.6391 20.1432 32.6065 20.2083C32.5577 20.2896 32.5252 20.3872 32.4764 20.4523C32.4113 20.5662 32.3625 20.6638 32.3136 20.7289C32.2974 20.7615 32.2648 20.794 32.2486 20.8265C32.216 20.8591 32.1835 20.8916 32.1509 20.9079C32.0859 20.973 32.0045 21.0381 31.9231 21.0869C31.2398 21.5425 30.4751 21.5099 29.9218 21.3797C28.848 21.1194 27.7741 20.3221 27.465 19.5574C27.6602 18.8578 27.8392 18.3371 27.9856 17.8978C28.0019 17.849 28.0182 17.8165 28.0182 17.7676C28.0182 17.7514 28.0344 17.7351 28.0344 17.7188C28.0344 17.7026 28.0344 17.7026 28.0507 17.6863C28.067 17.6212 28.0995 17.5561 28.1158 17.491C28.1321 17.4585 28.1321 17.426 28.1483 17.3934C28.1646 17.3283 28.1809 17.2795 28.2134 17.2144C28.4575 16.4497 28.5226 16.0592 28.3436 15.3758C28.2785 15.1481 28.2134 14.904 28.1321 14.6274C27.7578 13.342 27.2697 11.7475 28.246 10.999C28.4575 10.8363 28.7504 10.7875 29.1083 10.8688C30.5076 11.1454 32.6716 13.1468 33.534 14.6437C34.2661 15.9453 33.3712 18.5812 32.7204 19.9805Z" fill="#FFB800"/>
<path d="M40.4045 40.3541C39.7177 37.0699 38.6509 34.0806 36.8158 31.6463C36.8282 31.6361 36.8507 31.6382 36.863 31.6279C37.5018 31.2431 38.1009 31.2871 38.6481 31.7701C40.1523 33.104 40.3143 36.0325 40.402 37.7932C40.432 38.3309 40.4499 38.7536 40.5172 39.0102C40.5967 39.3817 40.5508 39.8783 40.4045 40.3541Z" fill="white"/>
<path d="M21.5489 40.372C21.5489 40.372 21.8259 44.0572 20.9958 46.2357C20.4916 47.4591 19.1812 48.2506 17.0862 46.8882C15.4829 45.4311 17.0676 41.3436 17.4004 39.5451C17.7784 37.5142 19.4881 35.7034 21.3653 38.1923" fill="#FFFDF9"/>
<path d="M19.0978 47.8717C18.5396 47.8705 17.8157 47.6923 16.926 47.1092C16.9136 47.099 16.9012 47.0889 16.8888 47.0787C15.4862 45.8066 16.2465 42.929 16.788 40.8249C16.929 40.2983 17.0542 39.8416 17.1208 39.4819C17.3442 38.2979 18.057 36.9967 19.1361 36.7408C19.7034 36.6044 20.6032 36.7196 21.5751 38.0119C21.6664 38.1281 21.6393 38.313 21.5232 38.4043C21.407 38.4957 21.2221 38.4686 21.1308 38.3524C20.6967 37.7694 20.0157 37.1085 19.2703 37.2855C18.5474 37.4602 17.9012 38.4017 17.6778 39.5857C17.6135 39.968 17.4883 40.4246 17.3495 40.9738C16.8735 42.8208 16.1391 45.6161 17.2565 46.6548C18.1585 47.248 18.9749 47.4398 19.6154 47.2391C20.1127 47.087 20.5052 46.6833 20.7443 46.1128C21.0409 45.3201 21.2361 44.1958 21.3017 42.7998C21.3085 42.6397 21.4449 42.5236 21.5949 42.5428C21.755 42.5495 21.8712 42.686 21.852 42.836C21.7932 44.2996 21.5923 45.4814 21.2573 46.3462C20.9539 47.0713 20.425 47.5911 19.7845 47.7917C19.5939 47.8221 19.3707 47.8672 19.0978 47.8717Z" fill="black"/>
<path d="M21.5813 43.0908C21.4212 43.084 21.2949 42.96 21.3017 42.7999C21.3638 41.4839 21.2783 40.3991 21.2783 40.3991C21.2625 40.2413 21.3865 40.115 21.5444 40.0992C21.7023 40.0834 21.8286 40.2075 21.8443 40.3654C21.8488 40.4105 21.9344 41.4953 21.8745 42.8337C21.8531 42.9612 21.729 43.0875 21.5813 43.0908Z" fill="black"/>
<path d="M17.1208 46.9593C19.0897 48.9356 24.1279 47.7473 25.5227 47.2774C26.5934 46.6605 28.7214 43.2316 25.9475 41.9348C24.3745 41.0971 20.9646 41.9855 18.8394 43.8931" fill="#FFFDF9"/>
<path d="M20.7192 48.3518C19.264 48.3521 17.8253 48.0729 16.9246 47.1683C16.8247 47.0549 16.8091 46.8829 16.9272 46.7677C17.0407 46.6678 17.2126 46.6522 17.3278 46.7702C18.9986 48.4568 23.477 47.6868 25.4088 47.0427C26.0209 46.6735 27.0997 45.1893 27.0382 43.883C27.0097 43.1386 26.6114 42.568 25.8342 42.2021C24.3181 41.398 21.0111 42.3339 19.0239 44.1155C18.9104 44.2155 18.7277 44.2111 18.6278 44.0976C18.5279 43.9841 18.5323 43.8014 18.6457 43.7015C20.8308 41.7616 24.3603 40.8085 26.0823 41.7075C27.0192 42.1546 27.5497 42.8984 27.5955 43.8655C27.6587 45.3897 26.465 47.0905 25.6581 47.552C25.6382 47.5628 25.6183 47.5736 25.6029 47.569C25.5722 47.5598 23.1278 48.3519 20.7192 48.3518Z" fill="black"/>
<path d="M26.0006 41.4578C25.7077 41.6368 25.7402 42.2876 25.9029 42.5316C26.1633 42.9221 26.8955 43.4265 27.1721 43.1499C28.3273 41.9622 27.0094 40.872 26.0006 41.4578Z" fill="white"/>
<path d="M26.9443 43.394C26.928 43.394 26.8954 43.394 26.8792 43.394C26.4887 43.3615 25.968 42.9547 25.7565 42.6293C25.6263 42.434 25.5775 42.0435 25.6426 41.7507C25.6914 41.5554 25.789 41.409 25.9192 41.3439C26.4887 41.0185 27.2046 41.1324 27.5788 41.6205C27.8717 41.9947 27.9368 42.6293 27.2859 43.2801C27.2046 43.3127 27.107 43.394 26.9443 43.394ZM26.0819 41.6042C26.0331 41.6368 25.9843 41.7019 25.968 41.8158C25.9192 42.0435 25.968 42.3364 26.0331 42.4503C26.2121 42.7106 26.6351 43.0361 26.928 43.0686C26.9931 43.0686 27.0256 43.0686 27.0581 43.0361C27.4812 42.5968 27.5951 42.1412 27.3348 41.7995C27.0744 41.4903 26.5538 41.3276 26.0819 41.6042Z" fill="black"/>
<path d="M26.9443 43.394C26.928 43.394 26.8954 43.394 26.8792 43.394C26.4887 43.3615 25.968 42.9547 25.7565 42.6293C25.6263 42.434 25.5775 42.0435 25.6426 41.7507C25.6914 41.5554 25.789 41.409 25.9192 41.3439C26.4887 41.0185 27.2046 41.1324 27.5788 41.6205C27.8717 41.9947 27.9368 42.6293 27.2859 43.2801C27.2046 43.3127 27.107 43.394 26.9443 43.394ZM26.0819 41.6042C26.0331 41.6368 25.9843 41.7019 25.968 41.8158C25.9192 42.0435 25.968 42.3364 26.0331 42.4503C26.2121 42.7106 26.6351 43.0361 26.928 43.0686C26.9931 43.0686 27.0256 43.0686 27.0581 43.0361C27.4812 42.5968 27.5951 42.1412 27.3348 41.7995C27.0744 41.4903 26.5538 41.3276 26.0819 41.6042Z" fill="black"/>
<path d="M27.2698 43.2477C26.9281 43.2314 26.6027 43.8009 26.6027 44.0775C26.6027 44.533 26.9443 45.3466 27.3186 45.2652C28.9456 44.9073 28.4413 43.3127 27.2698 43.2477Z" fill="white"/>
<path d="M27.2698 45.428C27.1884 45.428 27.0745 45.3954 26.9606 45.3141C26.6515 45.07 26.4399 44.468 26.4399 44.0775C26.4399 43.8334 26.6026 43.4917 26.8142 43.2802C26.9606 43.1338 27.1233 43.0687 27.2698 43.085C27.9369 43.1175 28.4575 43.6056 28.5063 44.2076C28.5389 44.6632 28.2623 45.2327 27.3511 45.428C27.3348 45.428 27.3023 45.428 27.2698 45.428ZM27.2535 43.4104C27.1884 43.4104 27.1233 43.4429 27.042 43.5243C26.8793 43.6707 26.7654 43.9473 26.7654 44.0775C26.7654 44.3866 26.9443 44.891 27.1721 45.0537C27.2209 45.0863 27.2535 45.1025 27.3023 45.1025C27.9043 44.9724 28.2297 44.647 28.1972 44.2402C28.1646 43.8497 27.8067 43.4429 27.2535 43.4104Z" fill="black"/>
<path d="M27.2698 45.428C27.1884 45.428 27.0745 45.3954 26.9606 45.3141C26.6515 45.07 26.4399 44.468 26.4399 44.0775C26.4399 43.8334 26.6026 43.4917 26.8142 43.2802C26.9606 43.1338 27.1233 43.0687 27.2698 43.085C27.9369 43.1175 28.4575 43.6056 28.5063 44.2076C28.5389 44.6632 28.2623 45.2327 27.3511 45.428C27.3348 45.428 27.3023 45.428 27.2698 45.428ZM27.2535 43.4104C27.1884 43.4104 27.1233 43.4429 27.042 43.5243C26.8793 43.6707 26.7654 43.9473 26.7654 44.0775C26.7654 44.3866 26.9443 44.891 27.1721 45.0537C27.2209 45.0863 27.2535 45.1025 27.3023 45.1025C27.9043 44.9724 28.2297 44.647 28.1972 44.2402C28.1646 43.8497 27.8067 43.4429 27.2535 43.4104Z" fill="black"/>
<path d="M27.0256 45.2653C26.7327 45.07 26.1633 45.3954 26.0331 45.6395C25.8053 46.03 25.6914 46.9086 26.0494 47.0225C27.6276 47.5595 28.0018 45.9161 27.0256 45.2653Z" fill="white"/>
<path d="M26.6189 47.2991C26.4399 47.2991 26.2284 47.2665 26.0006 47.1852C25.903 47.1526 25.7891 47.0713 25.7077 46.8923C25.5613 46.5344 25.6914 45.8998 25.8867 45.5581C26.0006 45.3466 26.326 45.1351 26.6189 45.07C26.8141 45.0212 26.9931 45.0374 27.1233 45.1351C27.6765 45.5093 27.888 46.1927 27.6277 46.7296C27.465 47.0388 27.1395 47.2991 26.6189 47.2991ZM26.8141 45.3791C26.7816 45.3791 26.7328 45.3791 26.7002 45.3954C26.4887 45.4442 26.2447 45.6069 26.1796 45.7208C26.0331 45.9812 25.9355 46.5181 26.0331 46.7784C26.0494 46.8272 26.0819 46.876 26.1145 46.876C26.684 47.0713 27.1395 46.9574 27.3348 46.5832C27.4975 46.2415 27.3999 45.7045 26.9443 45.4117C26.8955 45.3791 26.8629 45.3791 26.8141 45.3791Z" fill="black"/>
<path d="M26.6189 47.2991C26.4399 47.2991 26.2284 47.2665 26.0006 47.1852C25.903 47.1526 25.7891 47.0713 25.7077 46.8923C25.5613 46.5344 25.6914 45.8998 25.8867 45.5581C26.0006 45.3466 26.326 45.1351 26.6189 45.07C26.8141 45.0212 26.9931 45.0374 27.1233 45.1351C27.6765 45.5093 27.888 46.1927 27.6277 46.7296C27.465 47.0388 27.1395 47.2991 26.6189 47.2991ZM26.8141 45.3791C26.7816 45.3791 26.7328 45.3791 26.7002 45.3954C26.4887 45.4442 26.2447 45.6069 26.1796 45.7208C26.0331 45.9812 25.9355 46.5181 26.0331 46.7784C26.0494 46.8272 26.0819 46.876 26.1145 46.876C26.684 47.0713 27.1395 46.9574 27.3348 46.5832C27.4975 46.2415 27.3999 45.7045 26.9443 45.4117C26.8955 45.3791 26.8629 45.3791 26.8141 45.3791Z" fill="black"/>
<path d="M42.8407 40.5955C40.2211 43.1663 39.4889 42.9711 38.8544 42.7921C37.8781 42.5155 37.2273 41.0837 36.9833 39.9284C36.7229 38.7244 36.8043 37.6017 37.1948 37.2763C38.2361 36.3977 38.9683 36.0072 38.9846 36.0072C39.0171 35.9909 39.0334 35.9747 39.0496 35.9584L39.9283 34.9984C41.7668 34.4289 43.1336 34.7381 43.817 35.8445C44.598 37.1624 44.1586 39.2939 42.8407 40.5955Z" fill="white"/>
<path d="M44.2238 35.6004C43.4265 34.2825 41.7832 33.892 39.7168 34.5591C39.668 34.5753 39.6354 34.5916 39.6029 34.6241L38.708 35.6004C38.5453 35.698 37.8294 36.1048 36.8694 36.902C36.2186 37.4552 36.2674 38.9359 36.4952 40.026C36.6416 40.6931 36.902 41.409 37.2599 42.0111C37.6341 42.6131 38.106 43.0849 38.708 43.2476C38.9358 43.3127 39.1636 43.3615 39.4076 43.3615C40.1886 43.3615 41.1974 42.8897 43.1825 40.9372C44.6794 39.4566 45.1349 37.1136 44.2238 35.6004ZM38.8544 42.7758C37.8782 42.4992 37.2274 41.0674 36.9833 39.9121C36.723 38.7081 36.8043 37.5854 37.1948 37.26C38.2362 36.3814 38.9683 35.9909 38.9846 35.9909C39.0172 35.9746 39.0334 35.9583 39.0497 35.9421L39.9283 34.9821C41.7669 34.4126 43.1336 34.7218 43.817 35.8282C44.6143 37.1461 44.175 39.2776 42.857 40.5792C40.2212 43.1663 39.489 42.9548 38.8544 42.7758Z" fill="black"/>
<path d="M39.2288 42.9059C39.4403 42.6293 39.1637 42.0273 38.9196 41.8809C38.5291 41.6205 37.6668 41.4253 37.5041 41.7832C36.8695 43.3127 38.4966 43.8333 39.2288 42.9059Z" fill="white"/>
<path d="M38.3013 43.5242C38.0898 43.5242 37.8945 43.4754 37.7155 43.3615C37.3088 43.1174 36.9996 42.5642 37.3739 41.7019C37.4064 41.6205 37.4878 41.5066 37.683 41.4415C38.0572 41.3276 38.6918 41.5066 39.0172 41.7344C39.2125 41.8646 39.4077 42.2225 39.4565 42.5154C39.4891 42.7106 39.4565 42.8896 39.3589 43.0035C39.0823 43.3452 38.6918 43.5242 38.3013 43.5242ZM37.9596 41.7344C37.8945 41.7344 37.8294 41.7344 37.7806 41.7507C37.7318 41.7669 37.683 41.7995 37.6667 41.832C37.4227 42.4015 37.504 42.8733 37.8783 43.0849C38.2199 43.2801 38.7569 43.2313 39.0986 42.792C39.1311 42.7432 39.1474 42.6618 39.1311 42.5479C39.0986 42.3201 38.9359 42.0598 38.822 41.9947C38.6267 41.8646 38.2362 41.7344 37.9596 41.7344Z" fill="black"/>
<path d="M38.3013 43.5242C38.0898 43.5242 37.8945 43.4754 37.7155 43.3615C37.3088 43.1174 36.9996 42.5642 37.3739 41.7019C37.4064 41.6205 37.4878 41.5066 37.683 41.4415C38.0572 41.3276 38.6918 41.5066 39.0172 41.7344C39.2125 41.8646 39.4077 42.2225 39.4565 42.5154C39.4891 42.7106 39.4565 42.8896 39.3589 43.0035C39.0823 43.3452 38.6918 43.5242 38.3013 43.5242ZM37.9596 41.7344C37.8945 41.7344 37.8294 41.7344 37.7806 41.7507C37.7318 41.7669 37.683 41.7995 37.6667 41.832C37.4227 42.4015 37.504 42.8733 37.8783 43.0849C38.2199 43.2801 38.7569 43.2313 39.0986 42.792C39.1311 42.7432 39.1474 42.6618 39.1311 42.5479C39.0986 42.3201 38.9359 42.0598 38.822 41.9947C38.6267 41.8646 38.2362 41.7344 37.9596 41.7344Z" fill="black"/>
<path d="M37.3738 41.7181C37.6992 41.6042 37.7969 40.9534 37.683 40.6931C37.504 40.27 36.8857 39.6355 36.5603 39.8633C35.1773 40.7907 36.2512 42.1086 37.3738 41.7181Z" fill="white"/>
<path d="M36.967 41.9459C36.4952 41.9459 36.0559 41.7019 35.8444 41.2951C35.6328 40.872 35.6979 40.2538 36.4626 39.7331C36.544 39.6843 36.6742 39.6355 36.8694 39.6843C37.2436 39.7982 37.6667 40.2863 37.8294 40.6443C37.927 40.872 37.8945 41.2463 37.7643 41.5229C37.683 41.7019 37.5528 41.832 37.4063 41.8808C37.2762 41.9296 37.1135 41.9459 36.967 41.9459ZM36.723 39.9934C36.7067 39.9934 36.6742 39.9934 36.6579 40.0097C36.1535 40.3514 35.9583 40.7744 36.1372 41.1649C36.2999 41.5066 36.7881 41.7507 37.3087 41.588C37.3738 41.5717 37.4226 41.5066 37.4714 41.409C37.5691 41.1975 37.5691 40.9209 37.5202 40.7907C37.4063 40.5141 37.0484 40.1073 36.7718 40.026C36.7555 39.9934 36.7392 39.9934 36.723 39.9934Z" fill="black"/>
<path d="M36.967 41.9459C36.4952 41.9459 36.0559 41.7019 35.8444 41.2951C35.6328 40.872 35.6979 40.2538 36.4626 39.7331C36.544 39.6843 36.6742 39.6355 36.8694 39.6843C37.2436 39.7982 37.6667 40.2863 37.8294 40.6443C37.927 40.872 37.8945 41.2463 37.7643 41.5229C37.683 41.7019 37.5528 41.832 37.4063 41.8808C37.2762 41.9296 37.1135 41.9459 36.967 41.9459ZM36.723 39.9934C36.7067 39.9934 36.6742 39.9934 36.6579 40.0097C36.1535 40.3514 35.9583 40.7744 36.1372 41.1649C36.2999 41.5066 36.7881 41.7507 37.3087 41.588C37.3738 41.5717 37.4226 41.5066 37.4714 41.409C37.5691 41.1975 37.5691 40.9209 37.5202 40.7907C37.4063 40.5141 37.0484 40.1073 36.7718 40.026C36.7555 39.9934 36.7392 39.9934 36.723 39.9934Z" fill="black"/>
<path d="M36.8369 39.7494C37.1785 39.8145 37.5853 39.3101 37.6179 39.0335C37.6829 38.5779 37.4552 37.7155 37.0809 37.7481C35.4213 37.8294 35.6816 39.5053 36.8369 39.7494Z" fill="white"/>
<path d="M36.902 39.9121C36.8694 39.9121 36.8369 39.9121 36.8043 39.8958C36.1535 39.7657 35.6979 39.1962 35.7467 38.5942C35.7793 38.1386 36.1535 37.6179 37.0809 37.5529C37.1786 37.5529 37.325 37.5691 37.4552 37.7156C37.7155 38.0084 37.8457 38.6267 37.7969 39.0172C37.7643 39.245 37.5528 39.5704 37.3087 39.7494C37.1623 39.8633 37.0321 39.9121 36.902 39.9121ZM37.0972 37.8945C36.4789 37.9271 36.1047 38.2037 36.0722 38.6267C36.0396 39.001 36.3325 39.4728 36.8694 39.5867C36.9345 39.603 37.0159 39.5704 37.0972 39.5053C37.2762 39.3752 37.4389 39.1311 37.4552 39.001C37.504 38.6918 37.3901 38.1711 37.1948 37.9596C37.1623 37.9271 37.1298 37.8945 37.0972 37.8945Z" fill="black"/>
<path d="M36.902 39.9121C36.8694 39.9121 36.8369 39.9121 36.8043 39.8958C36.1535 39.7657 35.6979 39.1962 35.7467 38.5942C35.7793 38.1386 36.1535 37.6179 37.0809 37.5529C37.1786 37.5529 37.325 37.5691 37.4552 37.7156C37.7155 38.0084 37.8457 38.6267 37.7969 39.0172C37.7643 39.245 37.5528 39.5704 37.3087 39.7494C37.1623 39.8633 37.0321 39.9121 36.902 39.9121ZM37.0972 37.8945C36.4789 37.9271 36.1047 38.2037 36.0722 38.6267C36.0396 39.001 36.3325 39.4728 36.8694 39.5867C36.9345 39.603 37.0159 39.5704 37.0972 39.5053C37.2762 39.3752 37.4389 39.1311 37.4552 39.001C37.504 38.6918 37.3901 38.1711 37.1948 37.9596C37.1623 37.9271 37.1298 37.8945 37.0972 37.8945Z" fill="black"/>
<path d="M24.9919 50C11.2105 50 0 38.7732 0 24.9919C0 11.2105 11.2105 0 24.9919 0C38.7732 0 49.9837 11.2105 49.9837 24.9919C49.9837 32.509 46.7947 39.3264 40.986 44.1913C36.5278 47.9336 30.8331 50 24.9919 50ZM24.9919 0.488122C11.4871 0.488122 0.488122 11.4871 0.488122 24.9919C0.488122 38.4966 11.4871 49.4956 24.9919 49.4956C30.7192 49.4956 36.2838 47.478 40.6769 43.8171C46.3553 39.0335 49.4956 32.3625 49.4956 24.9919C49.5119 11.4871 38.5129 0.488122 24.9919 0.488122Z" fill="black"/>
</g>
<g clip-path="url(#clip1_52_75)">
<path d="M88.8716 11.7501H94.7972V38.2498H88.8716V11.7501Z" fill="white"/>
<path d="M108.024 33.6876C108.849 33.6876 109.548 33.6236 110.098 33.4744C110.648 33.3251 111.071 33.1333 111.41 32.8987C111.749 32.6642 111.96 32.3658 112.087 32.046C112.214 31.7049 112.278 31.3424 112.278 30.9374C112.278 30.0633 111.876 29.3598 111.071 28.7842C110.267 28.2085 108.871 27.5903 106.902 26.9294C106.035 26.6309 105.188 26.2685 104.32 25.8848C103.453 25.4797 102.691 24.9894 102.014 24.3924C101.337 23.7955 100.765 23.0706 100.342 22.2179C99.9186 21.3651 99.707 20.3205 99.707 19.1053C99.707 17.8901 99.9398 16.7815 100.384 15.8008C100.85 14.8201 101.485 13.9887 102.31 13.3065C103.135 12.6243 104.151 12.0913 105.336 11.7289C106.521 11.3664 107.876 11.1746 109.357 11.1746C111.135 11.1746 112.659 11.3664 113.95 11.7502C115.241 12.1339 116.299 12.5603 117.145 13.008L115.431 17.7195C114.69 17.3358 113.886 16.9947 112.976 16.6962C112.087 16.3977 110.987 16.2485 109.738 16.2485C108.32 16.2485 107.304 16.4404 106.691 16.8454C106.077 17.2505 105.76 17.8474 105.76 18.6576C105.76 19.1479 105.865 19.553 106.098 19.8728C106.331 20.2139 106.648 20.5123 107.072 20.7682C107.495 21.0453 107.96 21.2798 108.511 21.493C109.061 21.7062 109.654 21.9407 110.31 22.1539C111.685 22.6656 112.87 23.1772 113.886 23.6676C114.902 24.1579 115.748 24.7548 116.404 25.4157C117.082 26.0766 117.568 26.8654 117.907 27.7395C118.246 28.6349 118.394 29.7222 118.394 30.98C118.394 33.453 117.526 35.3718 115.812 36.7362C114.098 38.1006 111.495 38.7828 108.024 38.7828C106.86 38.7828 105.802 38.7189 104.871 38.5696C103.94 38.4204 103.114 38.2498 102.395 38.058C101.675 37.8448 101.061 37.6316 100.532 37.4184C100.003 37.1839 99.58 36.9707 99.2202 36.7788L100.892 32.046C101.675 32.4724 102.649 32.8774 103.791 33.2185C104.955 33.517 106.352 33.6876 108.024 33.6876Z" fill="white"/>
<path d="M148.001 24.968C148.001 27.2278 147.662 29.2318 146.985 30.9587C146.308 32.6855 145.398 34.1139 144.234 35.2865C143.07 36.4377 141.694 37.3118 140.086 37.9087C138.477 38.4843 136.742 38.7828 134.901 38.7828C133.102 38.7828 131.409 38.4843 129.822 37.9087C128.235 37.3331 126.838 36.459 125.653 35.2865C124.468 34.1352 123.536 32.6855 122.838 30.9587C122.161 29.2318 121.822 27.2492 121.822 24.968C121.822 22.7082 122.182 20.7042 122.88 18.9774C123.579 17.2505 124.552 15.8008 125.737 14.6283C126.944 13.4557 128.34 12.5816 129.906 11.9847C131.494 11.4091 133.144 11.1106 134.901 11.1106C136.7 11.1106 138.393 11.4091 139.98 11.9847C141.567 12.5816 142.964 13.4557 144.149 14.6283C145.334 15.8008 146.265 17.2505 146.964 18.9774C147.662 20.7255 148.001 22.7082 148.001 24.968ZM127.917 24.968C127.917 26.2685 128.065 27.441 128.383 28.4857C128.7 29.5303 129.145 30.4257 129.758 31.1719C130.351 31.9181 131.07 32.4937 131.938 32.9201C132.806 33.3251 133.779 33.5383 134.901 33.5383C135.98 33.5383 136.975 33.3251 137.843 32.9201C138.71 32.515 139.451 31.9394 140.044 31.1719C140.636 30.4257 141.102 29.5303 141.419 28.4857C141.737 27.441 141.885 26.2685 141.885 24.968C141.885 23.6676 141.737 22.495 141.419 21.429C141.102 20.3631 140.657 19.4677 140.044 18.7215C139.451 17.9754 138.71 17.3997 137.843 16.9734C136.975 16.5683 135.98 16.3551 134.901 16.3551C133.779 16.3551 132.806 16.5683 131.938 16.9947C131.07 17.4211 130.351 17.9967 129.758 18.7642C129.166 19.5103 128.7 20.427 128.383 21.4717C128.086 22.5376 127.917 23.7102 127.917 24.968Z" fill="white"/>
<path d="M166.539 33.6876C167.365 33.6876 168.063 33.6236 168.613 33.4744C169.164 33.3251 169.587 33.1333 169.926 32.8987C170.264 32.6642 170.476 32.3658 170.603 32.046C170.73 31.7049 170.793 31.3424 170.793 30.9374C170.793 30.0633 170.391 29.3598 169.587 28.7842C168.783 28.2085 167.386 27.5903 165.418 26.9294C164.55 26.6309 163.704 26.2685 162.836 25.8848C161.968 25.4797 161.206 24.9894 160.529 24.3924C159.852 23.7955 159.281 23.0706 158.857 22.2179C158.434 21.3651 158.222 20.3205 158.222 19.1053C158.222 17.8901 158.455 16.7815 158.9 15.8008C159.365 14.8201 160 13.9887 160.826 13.3065C161.651 12.6243 162.667 12.0913 163.852 11.7289C165.037 11.3664 166.391 11.1746 167.873 11.1746C169.65 11.1746 171.174 11.3664 172.465 11.7502C173.756 12.1339 174.814 12.5603 175.661 13.008L173.947 17.7195C173.206 17.3358 172.402 16.9947 171.492 16.6962C170.603 16.3977 169.502 16.2485 168.254 16.2485C166.836 16.2485 165.82 16.4404 165.206 16.8454C164.592 17.2505 164.275 17.8474 164.275 18.6576C164.275 19.1479 164.381 19.553 164.614 19.8728C164.846 20.2139 165.164 20.5123 165.587 20.7682C166.01 21.0453 166.476 21.2798 167.026 21.493C167.576 21.7062 168.169 21.9407 168.825 22.1539C170.201 22.6656 171.386 23.1772 172.402 23.6676C173.417 24.1579 174.264 24.7548 174.92 25.4157C175.597 26.0766 176.084 26.8654 176.423 27.7395C176.761 28.6349 176.909 29.7222 176.909 30.98C176.909 33.453 176.042 35.3718 174.327 36.7362C172.613 38.1006 170.01 38.7828 166.539 38.7828C165.376 38.7828 164.317 38.7189 163.386 38.5696C162.455 38.4204 161.63 38.2498 160.91 38.058C160.191 37.8448 159.577 37.6316 159.048 37.4184C158.519 37.1839 158.095 36.9707 157.736 36.7788L159.408 32.046C160.191 32.4724 161.164 32.8774 162.307 33.2185C163.471 33.517 164.889 33.6876 166.539 33.6876Z" fill="white"/>
<path d="M198.771 14.5856C199.067 15.6302 199.405 16.8028 199.765 18.1245C200.125 19.4463 200.527 20.7894 200.95 22.1965C201.374 23.6036 201.797 25.0106 202.22 26.3964C202.643 27.8034 203.067 29.1039 203.469 30.2978C203.807 28.9973 204.146 27.5902 204.485 26.0553C204.823 24.5203 205.162 22.9427 205.458 21.3224C205.754 19.7022 206.072 18.0606 206.347 16.4403C206.643 14.8201 206.918 13.2638 207.172 11.7501H213.331C212.442 16.1845 211.405 20.6828 210.262 25.2451C209.098 29.8074 207.849 34.1352 206.495 38.2498H201.077C200.188 35.7981 199.342 33.2398 198.495 30.5536C197.67 27.8674 196.845 25.1598 196.041 22.4736C195.236 25.1812 194.411 27.8674 193.607 30.5536C192.803 33.2398 191.956 35.8194 191.067 38.2498H185.65C184.295 34.1565 183.047 29.8074 181.904 25.2451C180.74 20.6828 179.724 16.1845 178.835 11.7501H185.226C185.48 13.2638 185.755 14.8201 186.073 16.4403C186.369 18.0606 186.687 19.6808 187.025 21.3224C187.364 22.964 187.702 24.5416 188.041 26.0553C188.38 27.5902 188.739 28.9973 189.099 30.2978C189.565 29.0399 190.009 27.7181 190.432 26.3111C190.856 24.904 191.279 23.497 191.681 22.1112C192.083 20.7042 192.464 19.361 192.803 18.0606C193.141 16.7601 193.459 15.6089 193.734 14.5856H198.771Z" fill="white"/>
<path d="M233.203 38.2498C232.906 37.3331 232.589 36.3737 232.25 35.4143C231.912 34.4337 231.573 33.4743 231.234 32.5149H220.97C220.632 33.4743 220.314 34.455 219.976 35.4143C219.637 36.395 219.341 37.3331 219.045 38.2498H212.886C213.881 35.393 214.812 32.7495 215.701 30.3404C216.59 27.91 217.457 25.6289 218.304 23.497C219.15 21.365 219.997 19.3184 220.822 17.3997C221.648 15.481 222.494 13.6049 223.383 11.7501H228.991C229.859 13.5836 230.705 15.4596 231.552 17.3997C232.398 19.3184 233.245 21.365 234.091 23.497C234.938 25.6289 235.806 27.91 236.695 30.3404C237.583 32.7708 238.515 35.393 239.509 38.2498H233.203ZM226.071 17.7621C225.944 18.1459 225.753 18.6788 225.499 19.3397C225.245 20.0006 224.949 20.7681 224.632 21.6422C224.314 22.5163 223.933 23.4756 223.531 24.5203C223.129 25.5649 222.727 26.6522 222.304 27.8034H229.817C229.414 26.6522 229.034 25.5649 228.653 24.5203C228.272 23.4756 227.912 22.5163 227.573 21.6422C227.235 20.7681 226.938 20.0006 226.684 19.3397C226.452 18.6575 226.24 18.1245 226.071 17.7621Z" fill="white"/>
<path d="M250.81 11.4517C254.725 11.4517 257.752 12.1552 259.847 13.5409C261.942 14.9267 263 17.2078 263 20.3631C263 23.5396 261.942 25.8421 259.804 27.2704C257.688 28.6775 254.641 29.4024 250.704 29.4024H248.842V38.2711H242.916V12.1339C244.207 11.878 245.583 11.7075 247.022 11.6009C248.461 11.4943 249.71 11.4517 250.81 11.4517ZM251.191 16.5256C250.768 16.5256 250.345 16.5469 249.921 16.5682C249.498 16.5896 249.138 16.6109 248.842 16.6535V24.3071H250.704C252.757 24.3071 254.302 24.0299 255.339 23.4756C256.376 22.9213 256.905 21.8767 256.905 20.3417C256.905 19.5956 256.778 18.9986 256.503 18.5083C256.228 18.0179 255.868 17.6342 255.36 17.3357C254.873 17.0373 254.26 16.8454 253.561 16.7175C252.842 16.5896 252.038 16.5256 251.191 16.5256Z" fill="white"/>
<path d="M83.1999 26.503C82.5862 25.4157 81.4434 24.5416 79.7927 23.9021C81.8243 22.6869 82.819 21.0027 82.819 18.8921C82.819 17.485 82.5438 16.3125 81.9724 15.3531C81.401 14.3937 80.618 13.6262 79.6022 13.0293C78.5864 12.4537 77.3801 12.0273 75.9833 11.7928C75.0098 11.6223 73.9517 11.5157 72.8301 11.473H73.2745V9H70.2482V11.4517C69.5075 11.4517 68.5128 11.4517 67.5182 11.4517V9H64.4919V11.4517C64.1744 11.4517 63.9205 11.4517 63.73 11.4517C63.5184 11.4517 63.3702 11.4517 63.3702 11.4517H61V14.1805H63.3491V35.8621H61V38.5909H63.3491C63.3491 38.5909 63.4761 38.5909 63.7089 38.5909C63.8993 38.5909 64.1744 38.5909 64.4707 38.5909V41H67.497V38.5909C68.4493 38.5909 69.4017 38.5909 70.227 38.5909V41H73.2745V38.5696C76.6817 38.4417 79.2848 37.7595 81.1048 36.4803C83.1152 35.0733 84.1311 32.984 84.1311 30.2125C84.1311 28.8481 83.8136 27.6116 83.1999 26.503ZM69.1266 16.3764C69.5921 16.3338 70.1001 16.2911 70.6926 16.2911C71.264 16.2698 71.8142 16.2698 72.3222 16.2698C73.8882 16.2698 75.0733 16.483 75.8987 16.9094C76.7029 17.3358 77.105 18.1033 77.105 19.1692C77.105 20.2139 76.7029 20.9813 75.9199 21.4504C75.1368 21.9194 73.8247 22.1539 72.0047 22.1539H69.1266V16.3764ZM76.4913 32.9414C75.4119 33.453 73.9729 33.7089 72.1952 33.7089C71.5815 33.7089 71.0312 33.6875 70.5233 33.6662C70.0154 33.6449 69.5498 33.6023 69.1266 33.5596V26.6949H72.8512C74.5443 26.6949 75.8564 26.9507 76.7664 27.4837C77.6764 28.0167 78.142 28.8694 78.142 30.1059C78.1208 31.4704 77.5706 32.4297 76.4913 32.9414Z" fill="#FFB800"/>
</g>
<defs>
<clipPath id="clip0_52_75">
<rect width="50" height="50" fill="white"/>
</clipPath>
<clipPath id="clip1_52_75">
<rect width="202" height="32" fill="white" transform="translate(61 9)"/>
</clipPath>
</defs>
</svg>
