<svg width="29" height="23" viewBox="0 0 29 23" fill="none" xmlns="http://www.w3.org/2000/svg">
<path d="M26.6853 3.08527L29 0.964484V0.5H20.9835L15.2703 14.1249L8.77174 0.5H0.366276V0.964484L3.06992 4.08265C3.33424 4.31309 3.47018 4.65156 3.4362 4.99002V17.243C3.51927 17.6859 3.37201 18.136 3.04727 18.4565L0 21.9959V22.4532H8.63203V21.9887L5.58854 18.4601C5.26003 18.1396 5.10143 17.6931 5.1694 17.2466V6.64632L12.7479 22.4604H13.6277L20.1452 6.64632V19.245C20.1452 19.5763 20.1452 19.6447 19.9186 19.8643L17.5737 22.0355V22.5H28.9471V22.0355L26.6853 19.9147C26.4889 19.7707 26.387 19.5295 26.4285 19.2954V3.70458C26.387 3.47054 26.4889 3.2293 26.6853 3.08527Z" fill="#231815"/>
</svg>
