<svg width="29" height="26" viewBox="0 0 29 26" fill="none" xmlns="http://www.w3.org/2000/svg">
<path d="M26.0479 8.03399C26.0479 7.76196 26.0426 7.493 26.0306 7.22588C27.1935 6.3594 28.2024 5.27476 29.0004 4.03359C27.9167 4.52121 26.7636 4.83669 25.5826 4.96866C26.8117 4.21227 27.7544 3.00256 28.1998 1.55084C27.0489 2.24882 25.7759 2.74782 24.4223 3.00783C23.3378 1.77377 21.7901 0.987756 20.0792 0.958547C16.7932 0.904223 14.1295 3.68105 14.1295 7.15994C14.1295 7.65444 14.1812 8.13399 14.2839 8.59708C9.33565 8.27865 4.95089 5.70301 2.01785 1.82021C1.50607 2.75048 1.21245 3.83768 1.21245 5.00278C1.21245 7.20644 2.26287 9.16503 3.85889 10.3208C2.88182 10.2766 1.96654 9.98066 1.16375 9.49547V9.5764C1.16375 12.6563 3.21528 15.2368 5.93742 15.8389C5.43838 15.9808 4.91202 16.0547 4.37067 16.052C3.99454 16.0501 3.61964 16.009 3.25201 15.9295C4.0084 18.4534 6.20674 20.2974 8.80934 20.3588C6.77244 22.0477 4.20657 23.0566 1.42079 23.0495C0.94047 23.0495 0.465824 23.0173 0.000488281 22.9589C2.6346 24.7657 5.76136 25.8181 9.1226 25.8181C20.0642 25.8207 26.0479 16.297 26.0479 8.03399Z" fill="#231815"/>
</svg>
